<svg width="42" height="25" viewBox="0 0 42 25" fill="none" xmlns="http://www.w3.org/2000/svg">
<path d="M10.8906 24.8906L0.6875 1.125H4.54688L9.67188 13.3125C9.97396 14.0208 10.224 14.6771 10.4219 15.2812C10.6198 15.875 10.776 16.4427 10.8906 16.9844C11.026 16.4115 11.1979 15.8177 11.4062 15.2031C11.6146 14.5885 11.8594 13.9583 12.1406 13.3125L17.25 1.125H21.0938L10.8906 24.8906ZM27.6719 15.0156H34.0469L31.7031 9.79688C31.5677 9.46354 31.4271 9.08333 31.2812 8.65625C31.1354 8.21875 30.9896 7.73438 30.8438 7.20312C30.7188 7.70312 30.5833 8.17188 30.4375 8.60938C30.3021 9.03646 30.1615 9.43229 30.0156 9.79688L27.6719 15.0156ZM37.9531 24L35.3594 18.1094H26.2969L23.6406 24H19.7344L30.8125 0.21875L41.875 24H37.9531Z" fill="white"/>
</svg>
