<svg xmlns="http://www.w3.org/2000/svg" width="61.407" height="63.4" viewBox="0 0 61.407 63.4">
  <g id="Group_217" data-name="Group 217" transform="translate(-10 0.736)">
    <g id="Group_854" data-name="Group 854" transform="translate(10 2)">
      <path id="Path_1880" data-name="Path 1880" d="M6396.936,452.926a.226.226,0,0,1-.094-.021c-.166-.077-.336-.153-.5-.224a.224.224,0,0,1,.176-.412c.173.073.346.151.519.23a.224.224,0,0,1-.1.427Z" transform="translate(-6375.849 -450.94)" fill="#52d1bd"/>
      <path id="Path_1881" data-name="Path 1881" d="M6025.713,457.847a.224.224,0,0,1,0-.448c.362,0,.733-.017,1.1-.045a.224.224,0,1,1,.034.447c-.379.029-.761.044-1.132.046Zm-1.116-.035h-.016c-.38-.026-.76-.068-1.128-.124a.224.224,0,0,1,.068-.443c.356.054.724.094,1.091.12a.224.224,0,0,1-.015.447Zm3.343-.131a.224.224,0,0,1-.031-.446c.36-.051.726-.114,1.087-.188a.224.224,0,0,1,.09.439c-.372.076-.747.141-1.115.193Zm-5.55-.2a.22.22,0,0,1-.052-.006c-.369-.089-.737-.194-1.093-.314a.224.224,0,1,1,.143-.424c.343.116.7.218,1.054.3a.224.224,0,0,1-.052.442Zm7.738-.241a.224.224,0,0,1-.057-.44c.355-.095.711-.2,1.058-.315a.224.224,0,1,1,.14.425c-.354.117-.718.226-1.083.323A.228.228,0,0,1,6030.128,457.235Zm-9.853-.473a.221.221,0,0,1-.09-.019c-.346-.154-.687-.325-1.017-.51a.224.224,0,1,1,.219-.39c.317.178.646.344.979.491a.224.224,0,0,1-.091.429Zm-1.945-1.093a.221.221,0,0,1-.127-.04l-.049-.034c-.29-.2-.578-.422-.857-.653a.224.224,0,1,1,.287-.345c.268.224.546.436.827.631l.047.033a.224.224,0,0,1-.127.408Zm-1.719-1.424a.223.223,0,0,1-.157-.064c-.268-.262-.53-.539-.78-.825a.224.224,0,0,1,.337-.295c.243.277.5.546.755.8a.224.224,0,0,1-.156.384Zm-1.471-1.681a.225.225,0,0,1-.18-.09c-.226-.3-.442-.614-.646-.932a.224.224,0,0,1,.378-.242c.2.308.408.612.627.9a.224.224,0,0,1-.046.313A.22.22,0,0,1,6015.141,452.564Zm-1.2-1.88a.225.225,0,0,1-.2-.117c-.18-.333-.348-.676-.5-1.017a.224.224,0,0,1,.409-.182c.148.331.312.663.486.986a.224.224,0,0,1-.09.3A.227.227,0,0,1,6013.937,450.684Zm-.908-2.038a.224.224,0,0,1-.211-.149c-.127-.36-.24-.726-.333-1.086a.224.224,0,0,1,.433-.113c.091.348.2.7.323,1.05a.224.224,0,0,1-.211.3Zm-.559-2.161a.225.225,0,0,1-.221-.188,11.043,11.043,0,0,1-.125-1.133.224.224,0,0,1,.447-.026,10.561,10.561,0,0,0,.12,1.087.224.224,0,0,1-.185.257Zm7.9-.24c-.072,0-.145,0-.215,0a.224.224,0,1,1,.015-.447c.066,0,.133,0,.2,0h0a6.07,6.07,0,0,0,.872-.064.224.224,0,1,1,.065.443,6.5,6.5,0,0,1-.937.069Zm-1.312-.154a.22.22,0,0,1-.053-.007l-.033-.008a5.048,5.048,0,0,1-1.059-.4.224.224,0,0,1,.2-.4,4.592,4.592,0,0,0,.965.366l.029.007a.224.224,0,0,1-.054.441Zm3.306-.169a.224.224,0,0,1-.071-.436,5.644,5.644,0,0,0,.982-.432.224.224,0,0,1,.219.39,6.112,6.112,0,0,1-1.061.466A.225.225,0,0,1,6022.366,445.921Zm-5.278-.838a.222.222,0,0,1-.142-.051,6.38,6.38,0,0,1-.818-.818.224.224,0,0,1,.343-.287,5.953,5.953,0,0,0,.76.761.224.224,0,0,1-.143.4Zm7.207-.259a.224.224,0,0,1-.15-.39,3.925,3.925,0,0,0,.681-.8.224.224,0,1,1,.378.24,4.36,4.36,0,0,1-.76.895A.22.22,0,0,1,6024.295,444.824Zm-11.948-.566h-.014a.223.223,0,0,1-.21-.237,8.946,8.946,0,0,1,.14-1.137.224.224,0,1,1,.439.085,8.48,8.48,0,0,0-.132,1.079A.225.225,0,0,1,6012.347,444.258Zm3.3-.874a.225.225,0,0,1-.192-.108,8.5,8.5,0,0,1-.527-1.02.224.224,0,1,1,.411-.179,8.143,8.143,0,0,0,.5.966.224.224,0,0,1-.076.308A.218.218,0,0,1,6015.652,443.384Zm9.814-.425a.228.228,0,0,1-.059-.008.223.223,0,0,1-.157-.275,3.437,3.437,0,0,0,.122-.909c0-.043,0-.086,0-.129a.224.224,0,1,1,.447-.016c0,.048,0,.1,0,.146a3.876,3.876,0,0,1-.138,1.027A.223.223,0,0,1,6025.466,442.958Zm-12.694-.886a.221.221,0,0,1-.073-.012.224.224,0,0,1-.138-.285,7.322,7.322,0,0,1,.46-1.055.224.224,0,1,1,.4.211,6.882,6.882,0,0,0-.433.991A.225.225,0,0,1,6012.772,442.072Zm1.99-.733a.224.224,0,0,1-.216-.164,7.873,7.873,0,0,1-.224-1.127.224.224,0,0,1,.444-.055,7.61,7.61,0,0,0,.211,1.063.224.224,0,0,1-.215.284Zm10.637-.582a.225.225,0,0,1-.214-.156,4.752,4.752,0,0,0-.436-.972.224.224,0,0,1,.387-.226,5.325,5.325,0,0,1,.476,1.062.224.224,0,0,1-.213.292Zm-11.581-.649a.224.224,0,0,1-.18-.357,9.234,9.234,0,0,1,.634-.764.232.232,0,0,1-.015-.083,9.581,9.581,0,0,1,.082-1.141.224.224,0,0,1,.445.058,8.943,8.943,0,0,0-.078,1.06.225.225,0,0,1,0,.3,8.867,8.867,0,0,0-.7.832A.223.223,0,0,1,6013.818,440.107Zm10.475-1.275a.225.225,0,0,1-.17-.078,6.609,6.609,0,0,0-.769-.758.224.224,0,1,1,.287-.343,7.087,7.087,0,0,1,.822.809.224.224,0,0,1-.17.37Zm-8.937-.34a.224.224,0,0,1-.144-.4,9.565,9.565,0,0,1,.924-.676.224.224,0,1,1,.242.377,9.032,9.032,0,0,0-.88.644A.223.223,0,0,1,6015.356,438.492Zm7.229-1.088a.22.22,0,0,1-.113-.031,5.571,5.571,0,0,0-.971-.455.224.224,0,1,1,.148-.423,5.976,5.976,0,0,1,1.05.492.224.224,0,0,1-.114.417Zm-5.351-.112a.224.224,0,0,1-.094-.427,7.5,7.5,0,0,1,1.076-.407.224.224,0,0,1,.125.43,7.045,7.045,0,0,0-1.012.383A.223.223,0,0,1,6017.235,437.292Zm-2.467-.375a.224.224,0,0,1-.217-.277c.089-.363.2-.73.325-1.092a.224.224,0,0,1,.422.149c-.122.348-.227.7-.312,1.049A.225.225,0,0,1,6014.768,436.917Zm5.721-.233h-.024a5.1,5.1,0,0,0-1.068,0,.224.224,0,0,1-.044-.445,5.534,5.534,0,0,1,1.161,0,.224.224,0,0,1-.024.447Zm-4.983-1.873a.224.224,0,0,1-.2-.317c.157-.342.332-.682.519-1.011a.224.224,0,0,1,.39.222c-.182.318-.351.646-.5.976A.225.225,0,0,1,6015.505,434.811Zm1.106-1.939a.224.224,0,0,1-.184-.352c.217-.314.45-.618.69-.9a.224.224,0,1,1,.343.288c-.23.276-.455.57-.665.872A.224.224,0,0,1,6016.612,432.873Zm1.435-1.708a.224.224,0,0,1-.155-.384c.03-.029.058-.057.088-.085.244-.233.5-.457.77-.666a.224.224,0,1,1,.276.352c-.256.2-.5.415-.738.638l-.084.082A.224.224,0,0,1,6018.047,431.164Zm1.755-1.377a.224.224,0,0,1-.119-.414,11.365,11.365,0,0,1,.994-.555.224.224,0,1,1,.2.4,10.8,10.8,0,0,0-.955.533A.225.225,0,0,1,6019.8,429.787Zm11.855-.9a.228.228,0,0,1-.074-.013c-.346-.121-.7-.232-1.052-.329a.224.224,0,0,1,.12-.432c.36.1.725.213,1.081.338a.224.224,0,0,1-.074.435Zm-9.856-.085a.224.224,0,0,1-.08-.433c.35-.133.714-.251,1.082-.353a.224.224,0,0,1,.12.432c-.354.1-.7.212-1.042.34A.222.222,0,0,1,6021.8,428.8Zm7.7-.51a.228.228,0,0,1-.044,0c-.36-.073-.726-.134-1.086-.182a.224.224,0,0,1,.058-.444c.371.048.748.111,1.118.187a.224.224,0,0,1-.045.443Zm-5.553-.087a.224.224,0,0,1-.041-.444c.368-.068.747-.121,1.125-.159a.224.224,0,1,1,.044.446c-.366.036-.732.088-1.088.154A.219.219,0,0,1,6023.951,428.2Zm3.339-.2h-.013c-.368-.021-.737-.028-1.1-.021a.224.224,0,1,1-.008-.448c.373-.007.755,0,1.133.021a.224.224,0,0,1-.012.447Z" transform="translate(-6012.123 -427.528)" fill="#52d1bd"/>
      <path id="Path_1882" data-name="Path 1882" d="M6387.943,962.862a.224.224,0,0,1-.084-.431c.309-.126.48-.208.5-.217a.224.224,0,1,1,.2.4c-.02.01-.2.1-.525.229A.227.227,0,0,1,6387.943,962.862Z" transform="translate(-6367.817 -933.859)" fill="#52d1bd"/>
    </g>
    <ellipse id="Ellipse_164" data-name="Ellipse 164" cx="29.566" cy="1.992" rx="29.566" ry="1.992" transform="translate(12.274 58.68)" fill="#b7cae5"/>
    <g id="Group_858" data-name="Group 858" transform="translate(15.501 13.992)">
      <path id="Path_1883" data-name="Path 1883" d="M6347.19,718.687h-39.357a3.184,3.184,0,0,0-3.184,3.184V749.72a3.184,3.184,0,0,0,3.184,3.184h4.761v5.681a1.189,1.189,0,0,0,1.774,1.035l11.888-6.716h20.934a3.184,3.184,0,0,0,3.184-3.184V721.871A3.184,3.184,0,0,0,6347.19,718.687Z" transform="translate(-6304.649 -717.251)" fill="#4076a3" opacity="0.2" style="mix-blend-mode: multiply;isolation: isolate"/>
      <path id="Path_1884" data-name="Path 1884" d="M6379.2,694.763v27.868a3.165,3.165,0,0,1-.4,1.534,3.2,3.2,0,0,1-1.483,1.356h0a3.162,3.162,0,0,1-1.3.275h-20.933l-11.889,6.716a1.189,1.189,0,0,1-1.773-1.035V725.8h-4.762a3.184,3.184,0,0,1-3.184-3.184V694.763a3.179,3.179,0,0,1,3.184-3.184h39.376A3.184,3.184,0,0,1,6379.2,694.763Z" transform="translate(-6331.944 -691.579)" fill="#d6f2ee"/>
      <g id="Group_855" data-name="Group 855" transform="translate(7.358 8.644)">
        <path id="Path_1885" data-name="Path 1885" d="M6459.038,857.064H6444.7a1.186,1.186,0,0,1-1.183-1.183h0a1.186,1.186,0,0,1,1.183-1.183h14.342a1.187,1.187,0,0,1,1.183,1.183h0A1.187,1.187,0,0,1,6459.038,857.064Z" transform="translate(-6443.513 -854.697)" fill="#5693db"/>
        <path id="Rectangle_363" data-name="Rectangle 363" d="M1.183,0H9.968a1.183,1.183,0,0,1,1.183,1.183v0A1.183,1.183,0,0,1,9.968,2.366H1.183A1.183,1.183,0,0,1,0,1.183v0A1.183,1.183,0,0,1,1.183,0Z" transform="translate(0 4.894)" fill="#5693db"/>
        <rect id="Rectangle_364" data-name="Rectangle 364" width="21.854" height="2.366" rx="1.183" transform="translate(12.209 4.894)" fill="#5693db"/>
        <rect id="Rectangle_365" data-name="Rectangle 365" width="16.709" height="2.366" rx="1.183" transform="translate(0 9.789)" fill="#5693db"/>
        <rect id="Rectangle_366" data-name="Rectangle 366" width="16.422" height="2.366" rx="1.183" transform="translate(17.641 9.789)" fill="#5693db"/>
        <path id="Path_1886" data-name="Path 1886" d="M6455.31,1134.153H6444.7a1.186,1.186,0,0,1-1.183-1.183h0a1.186,1.186,0,0,1,1.183-1.183h10.613a1.186,1.186,0,0,1,1.183,1.183h0A1.187,1.187,0,0,1,6455.31,1134.153Z" transform="translate(-6443.513 -1117.103)" fill="#5693db"/>
        <path id="Path_1887" data-name="Path 1887" d="M6720.216,1134.153H6709.6a1.186,1.186,0,0,1-1.183-1.183h0a1.186,1.186,0,0,1,1.183-1.183h10.613a1.187,1.187,0,0,1,1.183,1.183h0A1.187,1.187,0,0,1,6720.216,1134.153Z" transform="translate(-6694.383 -1117.103)" fill="#5693db"/>
      </g>
      <path id="Path_1888" data-name="Path 1888" d="M6764.063,1114.4h25.311a2,2,0,0,0,1.669-1.968v-17.449a2,2,0,0,0-2-1.995h-24.659a2,2,0,0,0-2,1.995v17.449A2,2,0,0,0,6764.063,1114.4Z" transform="translate(-6738.139 -1071.718)" fill="#4076a3" opacity="0.2" style="mix-blend-mode: multiply;isolation: isolate"/>
      <g id="Group_857" data-name="Group 857" transform="translate(25.839 19.615)">
        <path id="Path_1889" data-name="Path 1889" d="M6794.277,1061.753h24.66a1.994,1.994,0,0,1,1.995,1.995V1081.2a1.994,1.994,0,0,1-1.995,1.995h-2.984v3.559a.745.745,0,0,1-1.111.648l-7.449-4.208h-13.117a1.994,1.994,0,0,1-1.994-1.995v-17.449A1.994,1.994,0,0,1,6794.277,1061.753Z" transform="translate(-6792.283 -1061.753)" fill="#f4b545"/>
        <g id="Group_856" data-name="Group 856" transform="translate(3.289 5.094)">
          <path id="Path_1890" data-name="Path 1890" d="M6864.405,1159.417h-9.293a.768.768,0,0,1-.766-.767h0a.768.768,0,0,1,.766-.767h9.293a.769.769,0,0,1,.767.767h0A.769.769,0,0,1,6864.405,1159.417Z" transform="translate(-6854.346 -1157.883)" fill="#fff"/>
          <rect id="Rectangle_367" data-name="Rectangle 367" width="7.226" height="1.533" rx="0.767" transform="translate(0 3.171)" fill="#fff"/>
          <path id="Path_1891" data-name="Path 1891" d="M7017.038,1219.267H7004.41a.769.769,0,0,1-.767-.767h0a.769.769,0,0,1,.767-.767h12.628a.769.769,0,0,1,.766.767h0A.769.769,0,0,1,7017.038,1219.267Z" transform="translate(-6995.732 -1214.563)" fill="#fff"/>
          <rect id="Rectangle_368" data-name="Rectangle 368" width="10.827" height="1.533" rx="0.767" transform="translate(0 6.343)" fill="#fff"/>
          <rect id="Rectangle_369" data-name="Rectangle 369" width="10.641" height="1.533" rx="0.767" transform="translate(11.431 6.343)" fill="#fff"/>
          <path id="Path_1892" data-name="Path 1892" d="M6861.988,1338.969h-6.876a.768.768,0,0,1-.766-.767h0a.768.768,0,0,1,.766-.767h6.876a.769.769,0,0,1,.768.767h0A.769.769,0,0,1,6861.988,1338.969Z" transform="translate(-6854.346 -1327.921)" fill="#fff"/>
          <path id="Path_1893" data-name="Path 1893" d="M7033.649,1338.969h-6.878a.769.769,0,0,1-.767-.767h0a.769.769,0,0,1,.767-.767h6.878a.768.768,0,0,1,.766.767h0A.769.769,0,0,1,7033.649,1338.969Z" transform="translate(-7016.909 -1327.921)" fill="#fff"/>
        </g>
      </g>
    </g>
    <path id="Path_1894" data-name="Path 1894" d="M6278.283,1098.452a.362.362,0,0,0-.159-.084,8.135,8.135,0,0,1-1.325-.749l-.079-.044h0a.524.524,0,0,0-.1-.044c.011-.865-.871-3.834-.83-6.694a46.251,46.251,0,0,0-.333-5.959.193.193,0,0,0,.069-.2,5.8,5.8,0,0,0-.219-.789l0-.018h0c.125-.119-.034-.3-.129-.385a10.2,10.2,0,0,1-.3-1.044,6.571,6.571,0,0,1-.177-1.267l.088-.046c0,.017,0,.034,0,.051v.036c0,.032,0,.064,0,.1,0,.008,0,.016,0,.024s0,.011,0,.016l0,.081c0,.015,0,.03,0,.045s0,.052,0,.078,0,.031,0,.046,0,.051.006.076a.391.391,0,0,0,0,.048c0,.024,0,.048.007.072s0,.033.005.049.005.045.008.068,0,.033.007.05.006.042.009.063.006.034.009.05.007.039.011.059.006.034.01.05.009.037.014.055.008.033.013.048.009.034.015.05.009.031.015.046.011.031.017.046.01.03.016.043.013.028.019.042.012.027.02.04.014.025.021.037.013.025.021.036.017.022.024.033a.385.385,0,0,0,.023.031c.009.01.019.019.028.029s.016.017.024.024a.364.364,0,0,0,.035.026c.007.005.015.011.022.016a.382.382,0,0,0,.062.03c.409.148.551-.187.586-.525a2.055,2.055,0,0,0,0-.37.978.978,0,0,0-.031-.184c-.013-.036-.032-.09-.055-.156l0-.009-.021-.062-.008-.023c0-.011-.007-.022-.009-.034s-.007-.022-.011-.033l-.014-.047c0-.011-.006-.022-.01-.034s-.006-.022-.008-.033-.01-.034-.014-.052-.006-.024-.009-.037l-.008-.037a.213.213,0,0,1-.007-.034c0-.019-.008-.038-.012-.057s0-.024-.006-.036,0-.017,0-.026c0-.03-.009-.059-.011-.088l.516-.068a.232.232,0,0,0,.2-.26l-.032-.247a.6.6,0,0,0,.1-.147,1.52,1.52,0,0,0-.183-.942c-.049-.047-.091-.042-.125-.01a.243.243,0,0,0-.049-.031.232.232,0,0,0-.2-.071l-.435.057a3.376,3.376,0,0,0-.429-.733.556.556,0,0,0,.242-.187c.045-.057.088-.12.139-.185.2-.253-.885-.506-.3-1.519a3.581,3.581,0,0,0,.351-2.11,1.9,1.9,0,0,0,.073-.325c.131-.5-.531-1.445-1.568-1.678-.033-.007-.066-.015-.1-.02-1.2-.211-1.75.97-2.3,1.1a1.475,1.475,0,0,0-1.012,1.308,2.563,2.563,0,0,1-.292,1.073v0a6.167,6.167,0,0,0-.857,1.912,3.617,3.617,0,0,0,0,1.776.617.617,0,0,0,.146.264h0c.042.045.086.1.133.158.03.039.062.082.095.128.245.348.556.255.817,0,.009.033.017.066.026.1l.069-.038,1.021,1.8a1,1,0,0,0,.193.206h0a5.736,5.736,0,0,1-.376,1.041c-.21.369-.016.464-.016.464h0c-.015,0-.086.037-.154.286-.009.034-.019.072-.029.115-.084.39-.51.722-.157.775a.75.75,0,0,0,.1.007c-.728,1.376-.3,3.8-.231,6.07.014.428.016.85-.006,1.258-.111,2.168-.675,4.419-.654,5.31-.033.058-.056.046-.072.109h0a2.77,2.77,0,0,0-.034.466c-.021.69.146,1.007.407,1.16a2.208,2.208,0,0,0,1.182.07c.081-.03.126-.141.14-.281a1.068,1.068,0,0,0-.1-.564,2.165,2.165,0,0,1-.152-.409c-.035-.116-.065-.238-.093-.356.19-1.014.833-5.794,1.29-7.067a15.774,15.774,0,0,0,.47-1.652c.153.252.321.541.467.837a2.967,2.967,0,0,1,.4,1.406,37.44,37.44,0,0,0,1.167,6.388.23.23,0,0,0-.17.11.863.863,0,0,0-.121.435c-.008.094-.011.188-.011.264a.665.665,0,0,0,.018.16,23.455,23.455,0,0,0,3.171.276.185.185,0,0,0,.114-.176A.368.368,0,0,0,6278.283,1098.452Zm-6.827-18.471-.073.006a.889.889,0,0,1,.172,0A.783.783,0,0,0,6271.457,1079.981Zm.362.1a.448.448,0,0,0-.213-.091A.448.448,0,0,1,6271.818,1080.081Zm-.215-.091-.046-.006Zm.219.1h0a.01.01,0,0,1,0,0Zm2.986.381-.009.005c0-.009.007-.017.01-.026C6274.81,1080.454,6274.808,1080.461,6274.808,1080.468Zm-3.431-.48a1.306,1.306,0,0,0-.15.027A1.306,1.306,0,0,1,6271.377,1079.988Zm-.156.028c-.049.012-.1.026-.146.041C6271.125,1080.041,6271.172,1080.027,6271.222,1080.016Zm-.153.044c-.044.015-.088.031-.13.047C6270.979,1080.09,6271.024,1080.074,6271.068,1080.059Zm-.151.056-.034.014Zm-.206.093,0,0Zm.119-.056-.013.006Z" transform="translate(-6255.618 -1038.268)" fill="#4076a3" opacity="0.2" style="mix-blend-mode: multiply;isolation: isolate"/>
    <g id="Group_862" data-name="Group 862" transform="translate(14.097 34.174)">
      <path id="Path_1895" data-name="Path 1895" d="M6347.587,1301.807a2.974,2.974,0,0,1,.4,1.406,35.013,35.013,0,0,0,1.281,6.685c.184.148.645-.042,1.035-.211s-.8-3.627-.751-6.938a45.721,45.721,0,0,0-.368-6.243l-1.911-.3s-.2,1.171-.374,2.238c-.143.859-.271,1.65-.271,1.706C6346.627,1300.234,6347.186,1300.994,6347.587,1301.807Z" transform="translate(-6343 -1284.354)" fill="#15315e"/>
      <path id="Path_1896" data-name="Path 1896" d="M6346.627,1321.15c0,.078.559.839.96,1.652l.524-4.422s-.684.592-1.213,1.063C6346.756,1320.3,6346.627,1321.094,6346.627,1321.15Z" transform="translate(-6343 -1305.349)" fill="#122c51"/>
      <path id="Path_1897" data-name="Path 1897" d="M6348.449,1109.383c.463.071.623-.04.755-.205.046-.057.089-.12.14-.185.2-.253-.885-.506-.3-1.519a3.358,3.358,0,0,0,.267-2.426c-.3-.107-1.319,1.223-1.942,2.231a5.053,5.053,0,0,0-.477.912C6346.667,1108.9,6347.827,1109.288,6348.449,1109.383Z" transform="translate(-6343.22 -1103.315)" fill="#1f3a6f"/>
      <path id="Path_1898" data-name="Path 1898" d="M6348.449,1144.109c.463.071.623-.04.755-.205-1.08-.578-.539-2.125-.511-2.192,0,0-.961.222-1.329.294a5.053,5.053,0,0,0-.477.912C6346.667,1143.624,6347.827,1144.015,6348.449,1144.109Z" transform="translate(-6343.22 -1138.042)" fill="#15315e"/>
      <path id="Path_1899" data-name="Path 1899" d="M6298.772,1304.049a1.277,1.277,0,0,0,1.1,0c.092-.105.829-5.842,1.335-7.255a34.908,34.908,0,0,1,1.128-3.67,4.265,4.265,0,0,0,.23-2.573s-1.743-1.187-2.8.116a1.96,1.96,0,0,0-.126.173c-.877,1.335-.417,3.881-.34,6.256.014.428.016.85-.006,1.258C6299.162,1301.033,6298.333,1303.838,6298.772,1304.049Z" transform="translate(-6297.561 -1278.524)" fill="#1f3a6f"/>
      <path id="Path_1900" data-name="Path 1900" d="M6307.723,1308.016c.1-1.028-.113-3.709.316-4.844.5-1.335,2.283-1.462,2.283-1.462s-1.191-.084-2.132-.123c-.044.054-.085.111-.127.173C6307.185,1303.094,6307.646,1305.64,6307.723,1308.016Z" transform="translate(-6305.978 -1289.444)" fill="#15315e"/>
      <path id="Path_1901" data-name="Path 1901" d="M6278.276,1079.635a.588.588,0,0,0,.145.264h0c.042.045.085.1.133.158.03.039.062.082.095.128.507.717,1.286-.436,1.351-1.034s.632-1.026,1-1.4a1.809,1.809,0,0,0,.4-1.02c0-.027,0-.053,0-.079a.855.855,0,0,0-.1-.475.372.372,0,0,0-.08-.09c-.267-.209-.3-.665-.1-.809a.238.238,0,0,1,.156-.044.355.355,0,0,1,.09.015.641.641,0,0,0,.19.031.248.248,0,0,0,.127-.037c.05-.03.095-.073.171-.112a.991.991,0,0,1,.4-.093c.557-.037.414.61,1.03.48h0a1.568,1.568,0,0,0,.3-.1,1.165,1.165,0,0,0,.15-.079,1.726,1.726,0,0,0,.675-1.176c.131-.5-.531-1.445-1.567-1.678l-.1-.02c-1.2-.211-1.75.97-2.3,1.1a1.478,1.478,0,0,0-1.013,1.308,2.548,2.548,0,0,1-.292,1.073v0a6.156,6.156,0,0,0-.857,1.913A3.614,3.614,0,0,0,6278.276,1079.635Z" transform="translate(-6278.167 -1072.442)" fill="#1f3a6f"/>
      <path id="Path_1902" data-name="Path 1902" d="M6284.682,1156.762c.03.039.062.082.095.128.506.717,1.286-.436,1.35-1.034s.632-1.026,1-1.4a1.806,1.806,0,0,0,.4-1.02,1.472,1.472,0,0,1-1.109.521A2.314,2.314,0,0,0,6284.682,1156.762Z" transform="translate(-6284.293 -1149.146)" fill="#15315e"/>
      <path id="Path_1903" data-name="Path 1903" d="M6324.428,1147.38s.837,1.144,1.469,1a1.494,1.494,0,0,0,.916-.612.689.689,0,0,1-.454-.246.707.707,0,0,1-.111-.545l-1.062-.778a1.951,1.951,0,0,1-.139.532A.982.982,0,0,1,6324.428,1147.38Z" transform="translate(-6321.977 -1142.293)" fill="#fdc8aa"/>
      <path id="Path_1904" data-name="Path 1904" d="M6336.106,1146.733a1.487,1.487,0,0,0,1.312.79.7.7,0,0,1-.111-.545l-1.061-.778A2.022,2.022,0,0,1,6336.106,1146.733Z" transform="translate(-6333.036 -1142.293)" fill="#fbb188"/>
      <path id="Path_1905" data-name="Path 1905" d="M6328.413,1104.758c0,.333.18.6.4.6l.034,0a1.327,1.327,0,0,0,1.2.992,1.087,1.087,0,0,0,.318-.048,1.568,1.568,0,0,0,.979-1.545,1.889,1.889,0,0,0-.1-.6,1.223,1.223,0,0,0-2.4,0l-.034,0C6328.593,1104.156,6328.413,1104.426,6328.413,1104.758Z" transform="translate(-6325.75 -1101.538)" fill="#fdc8aa"/>
      <path id="Path_1906" data-name="Path 1906" d="M6302.273,1171.827c.025.51.047,1.067.047,1.067a7.7,7.7,0,0,1-.45,1.318c-.211.369-.016.464-.016.464h0c-.015,0-.086.037-.154.285-.011.034-.019.072-.028.115-.084.39-.512.722-.159.775s1.472-.211,2.226-.153,2.284.453,2.189-.105a6.189,6.189,0,0,0-.225-.807h0c.125-.119-.034-.3-.128-.385a10.35,10.35,0,0,1-.3-1.044,6.453,6.453,0,0,1-.179-1.311,2.035,2.035,0,0,1,.066-.549,1.089,1.089,0,0,1,.22-.432,1.572,1.572,0,0,1,.647-.323s-.514-2-1.744-1.912a4.741,4.741,0,0,1-2.193-.387,1.208,1.208,0,0,0-.819.385,2.894,2.894,0,0,0-.306,2.371s.864-.515,1.249-.2c0,0,0,0,0,.006C6302.231,1171.056,6302.253,1171.427,6302.273,1171.827Z" transform="translate(-6299.636 -1163.357)" fill="#5693db"/>
      <path id="Path_1907" data-name="Path 1907" d="M6326.845,1202.417c.016.053.037.425.057.825l.548.856-.522-2.482S6326.867,1202.361,6326.845,1202.417Z" transform="translate(-6324.266 -1194.771)" fill="#3177bc"/>
      <path id="Path_1908" data-name="Path 1908" d="M6377.275,1215.268h0c0,.02.085.589.205,1.121a2.1,2.1,0,0,1,.065-.549C6377.448,1215.625,6377.281,1215.268,6377.275,1215.268Z" transform="translate(-6372.023 -1207.699)" fill="#3177bc"/>
      <path id="Path_1909" data-name="Path 1909" d="M6359.787,1288.14h0s-.2.271-1.476.129c-1.159-.13.788.425,1.571.167Z" transform="translate(-6353.724 -1276.71)" fill="#3177bc"/>
      <path id="Path_1910" data-name="Path 1910" d="M6317.067,1286.349c.616.2,1.519-.378,1.032-.254a1.49,1.49,0,0,1-.875-.031h0C6317.208,1286.068,6317.136,1286.1,6317.067,1286.349Z" transform="translate(-6315.006 -1274.744)" fill="#3177bc"/>
      <path id="Path_1911" data-name="Path 1911" d="M6382.841,1204.754c.017.671.121,1.354.479,1.484.408.149.549-.186.585-.525a2,2,0,0,0,0-.37.948.948,0,0,0-.031-.184,4.185,4.185,0,0,1-.2-.7.965.965,0,0,1,.008-.406.058.058,0,0,0,0-.012c.1-.316-.027-.159.189-.319.047-.035.09-.371-.106-.381a.748.748,0,0,0-.221.032.325.325,0,0,1-.062.01c-.04,0-.065-.016-.074-.075a.326.326,0,0,1,.022-.175.391.391,0,0,1,.187-.186c.156-.08.053-.24-.171-.158-.026.009-.053.02-.08.033a1.277,1.277,0,0,0-.164.09,1.088,1.088,0,0,0-.146.112.474.474,0,0,0-.173.33c0,.093-.034.439-.048.862C6382.838,1204.386,6382.836,1204.569,6382.841,1204.754Z" transform="translate(-6377.292 -1195.859)" fill="#fdc8aa"/>
      <path id="Path_1912" data-name="Path 1912" d="M6383.318,1208.852c.409.149.551-.186.586-.525a.485.485,0,0,1-.49.211c-.574-.062-.279-2.469-.205-3.013a.593.593,0,0,0-.32.442C6382.886,1206.235,6382.622,1208.6,6383.318,1208.852Z" transform="translate(-6377.291 -1198.473)" fill="#fbb188"/>
      <path id="Path_1913" data-name="Path 1913" d="M6395.245,1215.59a.868.868,0,0,0-.031-.184,2.3,2.3,0,0,1-.188-1.108c.1-.331-.027-.169.192-.331.047-.035.09-.371-.106-.381a.733.733,0,0,0-.221.032c-.021.113-.041.254-.06.43A1.675,1.675,0,0,0,6395.245,1215.59Z" transform="translate(-6388.629 -1206.106)" fill="#ffd6bb"/>
      <path id="Path_1914" data-name="Path 1914" d="M6382.841,1226.576a1.568,1.568,0,0,1,.838-.3.965.965,0,0,1,.008-.406.058.058,0,0,0,0-.012c-.047-.019-.1-.04-.118-.05-.045-.023-.3.118-.322.129s-.282.069-.409.1C6382.838,1226.208,6382.836,1226.391,6382.841,1226.576Z" transform="translate(-6377.292 -1217.681)" fill="#ea9165" opacity="0.7"/>
      <path id="Path_1915" data-name="Path 1915" d="M6365.319,1123.959a1.569,1.569,0,0,0,.979-1.544,1.9,1.9,0,0,0-.1-.6h-.249A1.9,1.9,0,0,1,6365.319,1123.959Z" transform="translate(-6360.701 -1119.194)" fill="#ffd6bb"/>
      <path id="Path_1916" data-name="Path 1916" d="M6328.057,1098.27s-.263.489-.644.4a.963.963,0,0,1-.666-.4c-.146-.2-.647-.106-.734.014s-.454.243-.6.095-.412.481-.079.8a.529.529,0,0,1,.031.749c-.063.049-.407-.323-.372-.471a4.324,4.324,0,0,0-.21-.823,3.348,3.348,0,0,1,.267-.654,4.675,4.675,0,0,1,.766-.83,3.2,3.2,0,0,1,.739-.26,2.558,2.558,0,0,1,.78.211A11.3,11.3,0,0,1,6328.057,1098.27Z" transform="translate(-6322.317 -1095.596)" fill="#1f3a6f"/>
      <path id="Path_1917" data-name="Path 1917" d="M6387.1,1204.023c.033.286.109.908.109.908l.4-.127-.088-.424-.051-.249-.064-.311a1.347,1.347,0,0,0-.164.09A1.033,1.033,0,0,0,6387.1,1204.023Z" transform="translate(-6381.327 -1196.859)" fill="#ea9165" opacity="0.7"/>
      <g id="Group_859" data-name="Group 859" transform="translate(5.819 6.695)">
        <rect id="Rectangle_370" data-name="Rectangle 370" width="1.026" height="1.673" rx="0.513" transform="translate(1.235 1.659) rotate(172.543)" fill="#3db29c"/>
        <rect id="Rectangle_371" data-name="Rectangle 371" width="1.026" height="1.673" rx="0.513" transform="matrix(-0.992, 0.13, -0.13, -0.992, 1.304, 1.709)" fill="#52d1bd"/>
      </g>
      <path id="Path_1918" data-name="Path 1918" d="M6304.5,1201.827l1.021,1.8a1.034,1.034,0,0,0,.193.206.887.887,0,0,0,.637.208c.535-.042,1.877-1.125,2.123-1.244l.088-.044a2.707,2.707,0,0,1,.932-.364c.253.014.717-.443.772-.591a1.509,1.509,0,0,0-.182-.942c-.076-.072-.134-.022-.173.06a.614.614,0,0,0-.058.257.4.4,0,0,1-.162.313c-.155.08-.2.184-.309-.062h0a.14.14,0,0,1-.009-.02c-.1-.216-.183-.169-.223.122,0,.011,0,.022,0,.034-.021.183-.219.346-.484.492a6.432,6.432,0,0,1-.718.318c-.554.216-1.519.654-1.651.459s-.566-1.081-.608-1.164h0s0,0,0-.005h0a.53.53,0,0,0-.362-.1,1.774,1.774,0,0,0-.594.156C6304.63,1201.759,6304.551,1201.8,6304.5,1201.827Z" transform="translate(-6303.104 -1194.022)" fill="#fdc8aa"/>
      <path id="Path_1919" data-name="Path 1919" d="M6304.5,1201.827l1.021,1.8a1.034,1.034,0,0,0,.193.206.887.887,0,0,0,.637.208c.535-.042,1.877-1.125,2.123-1.244l.088-.044a2.707,2.707,0,0,1,.932-.364c.253.014.717-.443.772-.591a1.509,1.509,0,0,0-.182-.942c-.076-.072-.134-.022-.173.06.543.474-.029,1.289-.278,1.287a2.942,2.942,0,0,0-.886.28,15.206,15.206,0,0,1-2.225,1.278.713.713,0,0,1-.928-.415l-.869-1.63C6304.63,1201.759,6304.551,1201.8,6304.5,1201.827Z" transform="translate(-6303.104 -1194.022)" fill="#fbb188"/>
      <path id="Path_1920" data-name="Path 1920" d="M6319.958,1209.559c.4.269.618,1.422,1.055,1.5a8.4,8.4,0,0,0,2.742-1.176.892.892,0,0,0,.256-.483c-.1-.216-.183-.169-.222.122,0,.011,0,.022,0,.034-.021.183-.218.346-.484.492a6.429,6.429,0,0,1-.718.319c-.554.216-1.519.654-1.65.459s-.567-1.081-.608-1.164h0s0,0,0,0h0A.533.533,0,0,0,6319.958,1209.559Z" transform="translate(-6317.743 -1202.019)" fill="#ffd6bb"/>
      <g id="Group_860" data-name="Group 860" transform="translate(5.851 25.083)">
        <path id="Path_1921" data-name="Path 1921" d="M6391.884,1547.029a.187.187,0,0,1-.115.176,23.489,23.489,0,0,1-3.171-.276.681.681,0,0,1-.017-.16c0-.076,0-.17.01-.264a.869.869,0,0,1,.121-.435s.1-.194.371-.072a.748.748,0,0,0,.239.059.818.818,0,0,0,.584-.154c.129-.125.152-.138.3-.057h0c.023.012.049.027.079.044a8.179,8.179,0,0,0,1.325.75.365.365,0,0,1,.159.084A.371.371,0,0,1,6391.884,1547.029Z" transform="translate(-6388.582 -1545.795)" fill="#fff"/>
        <path id="Path_1922" data-name="Path 1922" d="M6391.889,1564.431a.185.185,0,0,1-.115.176,23.477,23.477,0,0,1-3.171-.276.634.634,0,0,1-.017-.16A22.338,22.338,0,0,0,6391.889,1564.431Z" transform="translate(-6388.585 -1563.197)" fill="#9fb8d6"/>
        <path id="Path_1923" data-name="Path 1923" d="M6389.5,1548.958a.737.737,0,0,1-.73.448.869.869,0,0,1,.121-.435s.1-.194.372-.072A.743.743,0,0,0,6389.5,1548.958Z" transform="translate(-6388.762 -1548.696)" fill="#d7e3f4"/>
        <path id="Path_1924" data-name="Path 1924" d="M6418.98,1547.637a2.872,2.872,0,0,1-1.287-.19c-.531-.158-.387-.506-.277-.687h0c.023.012.049.026.079.044a8.165,8.165,0,0,0,1.325.75A.358.358,0,0,1,6418.98,1547.637Z" transform="translate(-6415.79 -1546.709)" fill="#d7e3f4"/>
      </g>
      <g id="Group_861" data-name="Group 861" transform="translate(0.978 24.436)">
        <path id="Path_1925" data-name="Path 1925" d="M6298.35,1535.827c-.014.139-.059.25-.14.281a2.21,2.21,0,0,1-1.183-.07c-.26-.153-.429-.47-.408-1.16a2.657,2.657,0,0,1,.035-.466h0c.021-.078.051-.039.1-.165l.05-.073a.4.4,0,0,1,.009-.049c.026-.138.134-.525.484-.525a.53.53,0,0,1,.617.5c.042.2.1.5.181.76a2.207,2.207,0,0,0,.153.409A1.076,1.076,0,0,1,6298.35,1535.827Z" transform="translate(-6296.618 -1533.598)" fill="#ecf3fe"/>
        <path id="Path_1926" data-name="Path 1926" d="M6298.35,1550.354c-.014.139-.059.251-.14.281a2.208,2.208,0,0,1-1.183-.07c-.26-.153-.429-.47-.408-1.16a2.661,2.661,0,0,1,.035-.466,2.507,2.507,0,0,0,.34,1.376C6297.27,1550.581,6298.025,1550.434,6298.35,1550.354Z" transform="translate(-6296.618 -1548.126)" fill="#9fb8d6"/>
        <path id="Path_1927" data-name="Path 1927" d="M6301.533,1534.854a1.879,1.879,0,0,1-1-.063c-.166-.081-.246-.386-.281-.667.027-.138.135-.525.485-.525a.531.531,0,0,1,.617.5C6301.394,1534.29,6301.458,1534.59,6301.533,1534.854Z" transform="translate(-6300.059 -1533.598)" fill="#d7e3f4"/>
      </g>
    </g>
    <path id="Path_1928" data-name="Path 1928" d="M6710.582,453.856c-.056-.132-.406-.246-.9-.338a.34.34,0,0,1-.272-.188.418.418,0,0,1-.028-.209h.245a17.126,17.126,0,0,0,.425-3.486,3.5,3.5,0,0,0-.059-.752,6.373,6.373,0,0,0-1.627-2.937,2.522,2.522,0,0,0-.379-.38s0,0,0,0l0,0,0,0h0a2.494,2.494,0,0,0-.863-.449v-1.23a1.734,1.734,0,0,0,.1-.248c.146-.033.259-.065.259-.065.643-.262.18-1.678-.581-2.527s-1.591-.343-2.253-.05-1.035-.119-1.417.418.432,1.391.432,1.391a.626.626,0,0,0,.384.158,1.844,1.844,0,0,0,.109.627,1.775,1.775,0,0,0,1.118,1.1,1.628,1.628,0,0,0,.207.05l-.022.015.024.182a3.166,3.166,0,0,0-.54.038.917.917,0,0,0-.267.082.305.305,0,0,0-.1.077.08.08,0,0,0-.041.037l-.2.424L6703.206,448a.079.079,0,0,1-.142,0l-.779-1.234a.078.078,0,0,0-.079-.045l-.127.012c-.013-.071-.029-.164-.04-.267a2.041,2.041,0,0,1-.006-.514.9.9,0,0,0,.007-.18l.028-.028a.1.1,0,0,0,.028-.092l-.063-.281-.251-1.095a.1.1,0,0,0-.151-.057h0a.094.094,0,0,0-.142-.012l-.611.618a.107.107,0,0,0-.026.1l.067.3a.736.736,0,0,0-.044.127,2.278,2.278,0,0,0,.144,1.173h0a2.8,2.8,0,0,0,.036.312l-.023,0a.08.08,0,0,0-.066.109,13.944,13.944,0,0,0,1.131,2.043c.317.463.642.83.886.878.48.093,1.19-.918,1.606-1.574a3.141,3.141,0,0,1-.158,1.085,4.029,4.029,0,0,1-.34.433c-.075.01-.2.051-.175.2a3.764,3.764,0,0,0-.28.366,1.354,1.354,0,0,0-.094.17l-4.682-1.63a2.256,2.256,0,0,0-1.375.131l-.314-.115a2.459,2.459,0,0,0-1.839.567c-.915.733-4.3,2.568-4.3,2.568s.031.049.09.124l-.557.5c-.083-.074-.169-.105-.259-.039a9.937,9.937,0,0,1-1.4.7,2.446,2.446,0,0,1-.466.152.5.5,0,0,0-.443.327.148.148,0,0,0,.042.154,27.244,27.244,0,0,0,3.215.058c.308.009.692.012,1.083.012.879,0,1.788-.017,1.907-.027.2-.017.292-.112.312-.251a.583.583,0,0,0,0-.084c-.006-.157.16-.552-.23-.491l.109-.123.071.039a23.723,23.723,0,0,0,2.518-2.059,40.673,40.673,0,0,0,4.363,2.16,6.863,6.863,0,0,0,2.938.61,6.034,6.034,0,0,0,2.043-.482h0a.381.381,0,0,0,.174-.025c.341-.147.175-.286.258-.36a.192.192,0,0,1,.036-.024l.007,0a1.266,1.266,0,0,0,.405-.231,1.38,1.38,0,0,0,.161-.175,10.655,10.655,0,0,0,.625-1.183c.038-.078.076-.158.114-.239l.013-.027c.075-.159.15-.323.225-.489.008-.018.017-.036.025-.055.034-.075.068-.151.1-.226l.008-.019-.216,2.827h.092c0,.026.009.055.014.085a1.138,1.138,0,0,1,.014.263c-.019.155-.719.528-.359.472a3.763,3.763,0,0,1,.737-.028C6709.815,454.181,6710.637,453.987,6710.582,453.856Zm-18.293-.9.063,0-.088.045Zm1.421-.49c-.115.065-.4.245-.623.383a.456.456,0,0,0-.187-.15c.381-.2.932-.477,1.5-.755a5.358,5.358,0,0,1-.729.445.082.082,0,0,0,.007.026A.456.456,0,0,0,6693.709,452.462Z" transform="translate(-6652.171 -439.879)" fill="#4076a3" opacity="0.2" style="mix-blend-mode: multiply;isolation: isolate"/>
    <g id="Group_865" data-name="Group 865" transform="translate(36.4 -0.736)">
      <path id="Path_1929" data-name="Path 1929" d="M6942.89,524.075l-.073.052-.721.508-.182.127a2.79,2.79,0,0,1-.21-1.433.705.705,0,0,1,.21-.365l.026-.021a.416.416,0,0,1,.082-.049h0c.171-.073.326.041.456.223A3.535,3.535,0,0,1,6942.89,524.075Z" transform="translate(-6927.451 -518.048)" fill="#fdc8aa"/>
      <path id="Path_1930" data-name="Path 1930" d="M6943.4,521.416l-.722.508a4.4,4.4,0,0,1-.391-1.306.7.7,0,0,1,.21-.365l.026-.021.082-.049h0l.319-.191.137.414Z" transform="translate(-6928.038 -515.337)" fill="#efa57f"/>
      <path id="Path_1931" data-name="Path 1931" d="M7076.977,674.206a4.176,4.176,0,0,0-.816.031c-.4.061.377-.352.4-.522a1.231,1.231,0,0,0-.017-.291c-.017-.12-.04-.222-.04-.222l1.188-.127a.684.684,0,0,0-.036.486.375.375,0,0,0,.3.208c.541.1.928.228.989.374S7078.1,674.5,7076.977,674.206Z" transform="translate(-7053.957 -659.45)" fill="#fdc8aa"/>
      <path id="Path_1932" data-name="Path 1932" d="M7084.964,673.56l-1.112-.137c-.018-.12-.04-.222-.04-.222l1.188-.127A.686.686,0,0,0,7084.964,673.56Z" transform="translate(-7061.267 -659.45)" fill="#efa57f"/>
      <path id="Path_1933" data-name="Path 1933" d="M6791.209,664.53c-.023-.008-1.048.643-1.048.643s.8.681.834.681.55-.153.55-.153l.538-.6Z" transform="translate(-6784.823 -651.406)" fill="#fdc8aa"/>
      <g id="Group_863" data-name="Group 863" transform="translate(2.843 13.399)">
        <path id="Path_1934" data-name="Path 1934" d="M6752,670.345a.572.572,0,0,1,0,.093c-.023.154-.125.26-.345.278-.133.011-1.138.03-2.109.03a11.949,11.949,0,0,1-1.913-.074.156.156,0,0,1-.045-.162.529.529,0,0,1,.465-.343,2.586,2.586,0,0,0,.491-.159,12.63,12.63,0,0,0,1.279-.619c.087-.049.155-.091.2-.12.189-.14.363.133.537.365a1.556,1.556,0,0,0,.16.188c.233.219.75.066.75.066C6752.243,669.574,6751.989,670.142,6752,670.345Z" transform="translate(-6747.574 -669.231)" fill="#ecf3fe"/>
        <path id="Path_1935" data-name="Path 1935" d="M6751.991,689.842c-.023.154-.125.26-.345.278-.133.011-1.138.03-2.109.03a11.936,11.936,0,0,1-1.913-.074.156.156,0,0,1-.045-.162,1.1,1.1,0,0,0,.484.064c.265,0,.864.009,1.524.009A11.509,11.509,0,0,0,6751.991,689.842Z" transform="translate(-6747.574 -688.634)" fill="#9fb8d6"/>
        <path id="Path_1936" data-name="Path 1936" d="M6765.991,669.634a3.933,3.933,0,0,1-.94.44,1.239,1.239,0,0,1-1.073-.066,12.587,12.587,0,0,0,1.282-.619c.085-.049.154-.091.194-.12C6765.643,669.129,6765.816,669.4,6765.991,669.634Z" transform="translate(-6763.016 -669.231)" fill="#d7e3f4"/>
      </g>
      <path id="Path_1937" data-name="Path 1937" d="M6820.263,601.976c-4.024,1.153-9.44-3.261-9.44-3.261-.511,1.041-3.468,3.132-3.468,3.132a1.993,1.993,0,0,1-.91-.784.072.072,0,0,1-.008-.029,5.518,5.518,0,0,0,1.554-1.151c.833-.863,1.769-1.821,2.179-2.209a2.3,2.3,0,0,1,2-.472l5.61,1.953Z" transform="translate(-6800.145 -587.97)" fill="#15315e"/>
      <path id="Path_1938" data-name="Path 1938" d="M6810.1,623.592l-3.656,1.607a.072.072,0,0,1-.008-.029,5.514,5.514,0,0,0,1.554-1.15l2.046-1.237Z" transform="translate(-6800.145 -612.105)" fill="#122c51"/>
      <path id="Path_1939" data-name="Path 1939" d="M6749.608,672.613a1.331,1.331,0,0,1-.02.509,1.17,1.17,0,0,1-.05.164,11.941,11.941,0,0,1-1.913-.074.156.156,0,0,1-.045-.162.529.529,0,0,1,.465-.343,2.574,2.574,0,0,0,.491-.159,12.629,12.629,0,0,0,1.279-.619c-.128.18-.3.465-.235.6A.34.34,0,0,1,6749.608,672.613Z" transform="translate(-6744.731 -658.371)" fill="#184b68" opacity="0.45"/>
      <path id="Path_1940" data-name="Path 1940" d="M6946.119,530.487l-1.14.092a2.734,2.734,0,0,1-.067-.481,4.443,4.443,0,0,1,.005-.557c.006-.107.015-.2.021-.285s.011-.15.011-.2a.133.133,0,0,1,.062-.106,1.651,1.651,0,0,1,.568-.215l.038-.009c.135-.03.235-.046.235-.046l.011.018a1.327,1.327,0,0,1,.09.185,1.213,1.213,0,0,1,.089.386.945.945,0,0,1-.007.2,2.289,2.289,0,0,0,.006.569A4.2,4.2,0,0,0,6946.119,530.487Z" transform="translate(-6930.5 -523.518)" fill="#fdc8aa"/>
      <path id="Path_1941" data-name="Path 1941" d="M6745.938,657.742l-.91.811s-.108.757.6.765,1.148,0,1.148,0l.4-.786Z" transform="translate(-6742.329 -645.016)" fill="#fdc8aa"/>
      <g id="Group_864" data-name="Group 864" transform="translate(0 13.321)">
        <path id="Path_1942" data-name="Path 1942" d="M6703.711,669.067a.574.574,0,0,1-.006.1c-.023.162-.131.273-.362.293a40.721,40.721,0,0,1-4.23-.047.166.166,0,0,1-.047-.171.556.556,0,0,1,.49-.361,2.735,2.735,0,0,0,.517-.168,11,11,0,0,0,1.55-.777c.2-.147.382.14.566.384a1.579,1.579,0,0,0,.168.2c.246.229.789.068.789.068C6703.971,668.256,6703.7,668.852,6703.711,669.067Z" transform="translate(-6699.061 -667.894)" fill="#ecf3fe"/>
        <path id="Path_1943" data-name="Path 1943" d="M6703.706,689.571c-.023.162-.131.273-.362.292a40.721,40.721,0,0,1-4.23-.047.166.166,0,0,1-.047-.171,1.158,1.158,0,0,0,.508.067A26.584,26.584,0,0,0,6703.706,689.571Z" transform="translate(-6699.061 -688.301)" fill="#9fb8d6"/>
        <path id="Path_1944" data-name="Path 1944" d="M6718.426,668.318c-1.241.764-1.867.56-2.116.393a11,11,0,0,0,1.551-.777C6718.061,667.787,6718.243,668.074,6718.426,668.318Z" transform="translate(-6715.299 -667.894)" fill="#d7e3f4"/>
      </g>
      <path id="Path_1945" data-name="Path 1945" d="M6773.613,602.625c-.031.581-.369.6-2.433.949a7.589,7.589,0,0,1-3.25-.675c-2.268-.838-4.727-2.45-5.089-2.49-.566-.061-4.851,2.2-4.851,2.2a1.876,1.876,0,0,1-1.344-.756,2.351,2.351,0,0,1-.17-.223s3.748-2.029,4.758-2.84a2.721,2.721,0,0,1,2.034-.627s1.771.646,3.3,1.215a11.347,11.347,0,0,1,2.163,1.154,1.208,1.208,0,0,0,1.086-.138c.261-.2,1.021-.663,1.021-.663a20.508,20.508,0,0,1,2.612,2.526A.721.721,0,0,1,6773.613,602.625Z" transform="translate(-6753.112 -588.909)" fill="#1f3a6f"/>
      <path id="Path_1946" data-name="Path 1946" d="M6957.619,668.682c-.031.581-.367.6-2.433.949a7.588,7.588,0,0,1-3.25-.675c3.648.772,5.082-.2,5.52-.645A.712.712,0,0,1,6957.619,668.682Z" transform="translate(-6937.119 -654.966)" fill="#15315e"/>
      <path id="Path_1947" data-name="Path 1947" d="M6948.279,529.33a.089.089,0,0,1-.015.056c-.169.246-1.4,2.454-2.132,2.311-.271-.053-.628-.459-.98-.971a15.432,15.432,0,0,1-1.25-2.26.088.088,0,0,1,.073-.12l1.3-.124a.087.087,0,0,1,.087.049l.861,1.364a.087.087,0,0,0,.156,0l1.245-2.67.219-.469a.088.088,0,0,1,.166.034Z" transform="translate(-6929.548 -521.42)" fill="#f4b545"/>
      <path id="Path_1948" data-name="Path 1948" d="M6968.466,529.33a.1.1,0,0,1-.016.056c-.169.246-1.4,2.454-2.132,2.311-.271-.053-.629-.459-.981-.971a1.508,1.508,0,0,0,2.2-.557c.355-.492.319-2.3.277-3.2l.218-.469a.088.088,0,0,1,.165.034Z" transform="translate(-6949.733 -521.42)" fill="#e59d29"/>
      <path id="Path_1949" data-name="Path 1949" d="M6997.929,526.786a1.673,1.673,0,0,1-.07.335,15.825,15.825,0,0,1-.646,1.659c-.174.4-.361.8-.536,1.166a11.592,11.592,0,0,1-.692,1.308,1.25,1.25,0,0,1-.625.449l-.007,0a.174.174,0,0,0-.04.026c-.092.082.091.235-.286.4a.42.42,0,0,1-.192.028,4.825,4.825,0,0,1-1.817-.982,4.147,4.147,0,0,1-1.347-1.78.326.326,0,0,1-.011-.192,1.013,1.013,0,0,1,.152-.33,4.177,4.177,0,0,1,.31-.4c-.024-.17.11-.215.194-.226a4.5,4.5,0,0,0,.376-.479c.306-.49.173-3.978.112-4.549a.235.235,0,0,1,.153-.235,1.019,1.019,0,0,1,.294-.09,3.5,3.5,0,0,1,.6-.042c.236,0,.469.015.646.029s.318.032.318.032l.131.008c.1.007.2.019.3.034.05.008.1.017.148.027l.047.01c.079.017.154.036.228.058a2.757,2.757,0,0,1,.955.5h0l0,0s0,0,0,0l0,0a2.815,2.815,0,0,1,.418.42,3.609,3.609,0,0,1,.539.938c.034.087.065.174.094.26A4.994,4.994,0,0,1,6997.929,526.786Z" transform="translate(-6974.505 -518.028)" fill="#f4b545"/>
      <path id="Path_1950" data-name="Path 1950" d="M7070.249,578.072a12.668,12.668,0,0,0-.448-4.032l1.063-.07.565,1.277A23.918,23.918,0,0,1,7070.249,578.072Z" transform="translate(-7048.076 -566.154)" fill="#e59d29"/>
      <path id="Path_1951" data-name="Path 1951" d="M7072.483,539.2a18.9,18.9,0,0,1-.469,3.855h-1.469l.239-3.126.057-.754-1.041-2.11h0l.313-1.912.075-.459h0l0,0,0,0c.034.03.2.18.423.423a7.044,7.044,0,0,1,1.8,3.247A3.769,3.769,0,0,1,7072.483,539.2Z" transform="translate(-7048.076 -529.175)" fill="#f4b545"/>
      <path id="Path_1952" data-name="Path 1952" d="M7027.4,660a1.392,1.392,0,0,1-.448.256l-.007,0a.921.921,0,0,1-.35.08,1.412,1.412,0,0,1-1.162-.637c-.6-.746.078.113,1.067.325A1.771,1.771,0,0,0,7027.4,660Z" transform="translate(-7006.1 -646.579)" fill="#e59d29"/>
      <path id="Path_1953" data-name="Path 1953" d="M6994.394,619.2a4.232,4.232,0,0,1,.309-.4,1.622,1.622,0,0,0,.93,1.224C6996.5,620.52,6995.345,620.545,6994.394,619.2Z" transform="translate(-6977.088 -608.348)" fill="#e59d29"/>
      <path id="Path_1954" data-name="Path 1954" d="M7059.677,529.461a7.455,7.455,0,0,0-1.167-2.049,8.307,8.307,0,0,0-1.137-1.168,7.63,7.63,0,0,0-.88-.647c-.127-.08-.2-.119-.2-.119l-.024-.249c.078.017.153.036.227.058a2.763,2.763,0,0,1,.956.5h0l0,0s0,0,0,0a.007.007,0,0,1,0,0,2.74,2.74,0,0,1,.419.42A7.054,7.054,0,0,1,7059.677,529.461Z" transform="translate(-7035.335 -520.269)" fill="#e59d29"/>
      <path id="Path_1955" data-name="Path 1955" d="M7015.908,522.918a3.32,3.32,0,0,1-1,.368,1.043,1.043,0,0,1-.983-.3,1.011,1.011,0,0,1,.294-.09,3.5,3.5,0,0,1,.6-.042c.237,0,.47.015.648.029s.317.032.317.032Z" transform="translate(-6995.472 -518.028)" fill="#e59d29"/>
      <path id="Path_1956" data-name="Path 1956" d="M7030.52,499.437v2.219a.927.927,0,0,1-1.017.489.862.862,0,0,1-.711-.674.561.561,0,0,1-.008-.068l-.062-.452-.019-.142-.027-.2Z" transform="translate(-7009.361 -495.988)" fill="#fdc8aa"/>
      <path id="Path_1957" data-name="Path 1957" d="M7030.52,499.437v.876c-.313.554-.891,1.279-1.728,1.158a.561.561,0,0,1-.008-.068l-.107-.8Z" transform="translate(-7009.361 -495.988)" fill="#fbb188"/>
      <path id="Path_1958" data-name="Path 1958" d="M7004.5,458.427a1.693,1.693,0,0,1-1.089.017,2,2,0,0,1-1.04-2.968,1.684,1.684,0,0,1,.832-.653,1.92,1.92,0,0,1,1.3,3.6Z" transform="translate(-6984.294 -453.895)" fill="#fdc8aa"/>
      <path id="Path_1959" data-name="Path 1959" d="M7003.407,470.518a2,2,0,0,1-1.04-2.968l.208.409A2.28,2.28,0,0,0,7003.407,470.518Z" transform="translate(-6984.294 -465.969)" fill="#ffd6bb"/>
      <path id="Path_1960" data-name="Path 1960" d="M6985.335,443.035s-.9-.945-.476-1.539.834-.138,1.566-.462,1.648-.883,2.491.055,1.352,2.5.642,2.795c0,0-.967.276-1.049.083s.476-.724.1-1.09-.579.269-.552.331-.269.1-.311-.09-.031-1-.422-.863S6986.094,443.67,6985.335,443.035Z" transform="translate(-6968.007 -440.571)" fill="#1f3a6f"/>
      <path id="Path_1961" data-name="Path 1961" d="M6766.569,599.375c-1.006-.26-2.14-.551-2.858-.734a2.577,2.577,0,0,0-2.474.614l-4.59,2.6a2.351,2.351,0,0,1-.17-.223s3.748-2.029,4.758-2.84a2.721,2.721,0,0,1,2.034-.627S6765.041,598.806,6766.569,599.375Z" transform="translate(-6753.112 -588.909)" fill="#254a84"/>
      <path id="Path_1962" data-name="Path 1962" d="M6943.043,510.533l-.675.683a.107.107,0,0,1-.18-.059l-.371-1.613a.117.117,0,0,1,.03-.107l.675-.683a.107.107,0,0,1,.179.059l.371,1.613A.117.117,0,0,1,6943.043,510.533Z" transform="translate(-6927.59 -504.73)" fill="#326497"/>
      <path id="Path_1963" data-name="Path 1963" d="M6945.4,510.816l-.031.031-.144.138-.074.071-.1.1-.192.185-.141.134a.109.109,0,0,1-.026.019.107.107,0,0,1-.152-.072l-.043-.189-.091-.4-.07-.307-.1-.458-.039-.173a.106.106,0,0,1,.03-.1l.682-.655a.038.038,0,0,1,.012-.01.107.107,0,0,1,.166.063l.278,1.211.071.31A.107.107,0,0,1,6945.4,510.816Z" transform="translate(-6929.822 -505.095)" fill="#52d1bd"/>
      <path id="Path_1964" data-name="Path 1964" d="M6946.968,536.914s-.063.221-.063.232a2.36,2.36,0,0,1-.376.166h-.009c-.043,0-.129-.006-.167-.454s.186-.675.29-.614c.062.037.076.124.088.226a1.5,1.5,0,0,0,.034.21A.355.355,0,0,0,6946.968,536.914Z" transform="translate(-6931.858 -530.629)" fill="#fdc8aa"/>
      <path id="Path_1965" data-name="Path 1965" d="M6946.528,537.311h-.009c-.043,0-.129-.006-.167-.454s.186-.675.29-.614c.062.037.076.124.088.226C6946.617,536.545,6946.425,536.757,6946.528,537.311Z" transform="translate(-6931.858 -530.629)" fill="#ffd6bb"/>
    </g>
  </g>
</svg>
