<svg xmlns="http://www.w3.org/2000/svg" width="358.337" height="413.903" viewBox="0 0 358.337 413.903">
  <rect id="Rectangle_30" data-name="Rectangle 30" width="350.378" height="408.465" rx="10" transform="translate(7.459 4.938)" fill="none" stroke="#18a2b6" stroke-width="1"/>
  <path id="Path_16" data-name="Path 16" d="M183.911,305.121l336.805-2a7.754,7.754,0,0,1,7.942,7.55V700.833a7.754,7.754,0,0,1-7.942,7.55H183.911a7.754,7.754,0,0,1-7.942-7.55V310.671C175.969,306.5,179.525,305.121,183.911,305.121Z" transform="translate(-175.469 -302.621)" fill="none" stroke="#158bbb" stroke-width="1" fill-rule="evenodd" opacity="0.9"/>
  <path id="Ellipse_1_copy_2" data-name="Ellipse 1 copy 2" d="M564.478,774c8.548,0,15.478,6.591,15.478,14.723s-6.93,14.723-15.478,14.723S549,796.854,549,788.723,555.93,774,564.478,774Z" transform="translate(-268.064 -417.767)" fill="none" stroke="#158bbb" stroke-width="1.96" fill-rule="evenodd"/>
</svg>
