<svg id="Group_219" data-name="Group 219" xmlns="http://www.w3.org/2000/svg" width="64" height="63.273" viewBox="0 0 64 63.273">
  <g id="Group_1092" data-name="Group 1092" transform="translate(5.399)">
    <g id="Group_1091" data-name="Group 1091">
      <path id="Path_2190" data-name="Path 2190" d="M210.175,151.674l-1.75-3.916-.6-1.335.11-.048a10.028,10.028,0,0,0,5.076-13.22l1.336-.6,3.915-1.75a15.78,15.78,0,0,1-7.979,20.818Z" transform="translate(-188.062 -121.435)" fill="#a797fb"/>
      <path id="Path_2191" data-name="Path 2191" d="M158.127,91.167l-2.347-5.252.11-.05a15.779,15.779,0,0,1,20.846,7.967l.012.027-3.915,1.75-1.336.6-.012-.028a10.027,10.027,0,0,0-13.247-5.063Z" transform="translate(-146.545 -84.488)" fill="#e08675"/>
      <path id="Path_2192" data-name="Path 2192" d="M111.53,112.366l-.012-.028a15.78,15.78,0,0,1,7.857-20.8l2.347,5.252a10.028,10.028,0,0,0-4.953,13.2l.013.027Z" transform="translate(-110.14 -90.115)" fill="#ecbf4c"/>
      <path id="Path_2193" data-name="Path 2193" d="M117.008,185.2l5.252-2.347a10.027,10.027,0,0,0,13.124,5.084l.6,1.335,1.75,3.916A15.78,15.78,0,0,1,117.008,185.2Z" transform="translate(-115.618 -162.954)" fill="#5f5ea5"/>
    </g>
    <path id="Path_2194" data-name="Path 2194" d="M147.414,127.723l.03-.013.08-.035a11.491,11.491,0,0,0,5.814-15.153l-.012-.027a11.492,11.492,0,0,0-15.18-5.8l-.08.036-.03.014a11.491,11.491,0,0,0-5.692,15.13l.012.028A11.491,11.491,0,0,0,147.414,127.723ZM133.693,121.3l-.013-.027a10.028,10.028,0,0,1,4.953-13.2l.11-.05a10.027,10.027,0,0,1,13.247,5.063l.012.028a10.028,10.028,0,0,1-5.076,13.22l-.11.048A10.027,10.027,0,0,1,133.693,121.3Z" transform="translate(-127.051 -101.401)" fill="#5f5ea5" opacity="0.31"/>
  </g>
  <g id="Group_1103" data-name="Group 1103" transform="translate(6.073 10.258)">
    <g id="Group_1102" data-name="Group 1102">
      <g id="Group_1094" data-name="Group 1094" transform="translate(0 3.329)">
        <path id="Path_2195" data-name="Path 2195" d="M245.106,321.6H227.7l.8-5.069.709-4.464h14.376l.709,4.464Z" transform="translate(-211.512 -279.603)" fill="#dfdbfc"/>
        <path id="Path_2196" data-name="Path 2196" d="M247.473,316.527H231.679l.709-4.464h14.376Z" transform="translate(-214.683 -279.603)" fill="#a797fb"/>
        <g id="Group_1093" data-name="Group 1093">
          <rect id="Rectangle_419" data-name="Rectangle 419" width="49.786" height="35.41" rx="15.676" transform="translate(0)" fill="#dfdbfc"/>
          <rect id="Rectangle_420" data-name="Rectangle 420" width="44.49" height="26.482" transform="translate(2.724 2.648)" fill="#363271"/>
          <path id="Path_2197" data-name="Path 2197" d="M197.464,290.747v4.092a3.172,3.172,0,0,1-3.172,3.172H150.85a3.172,3.172,0,0,1-3.172-3.172v-4.092Z" transform="translate(-147.678 -262.601)" fill="#c3b7fc"/>
        </g>
      </g>
      <g id="Group_1101" data-name="Group 1101" transform="translate(9.988)">
        <g id="Group_1096" data-name="Group 1096">
          <g id="Group_1095" data-name="Group 1095">
            <path id="Path_2198" data-name="Path 2198" d="M227.3,156.873V183.96H197.04V156.873Z" transform="translate(-197.04 -152.485)" fill="#fff"/>
            <path id="Path_2199" data-name="Path 2199" d="M227.3,137.181v2.392H197.04v-2.392a2,2,0,0,1,2-2h26.272A2,2,0,0,1,227.3,137.181Z" transform="translate(-197.04 -135.184)" fill="#514e92"/>
            <path id="Path_2200" data-name="Path 2200" d="M310,141.18a1.135,1.135,0,1,1-1.135-1.135A1.135,1.135,0,0,1,310,141.18Z" transform="translate(-285.333 -139.061)" fill="#ecbf4c"/>
            <path id="Path_2201" data-name="Path 2201" d="M326.453,141.18a1.135,1.135,0,1,1-1.135-1.135A1.135,1.135,0,0,1,326.453,141.18Z" transform="translate(-298.458 -139.061)" fill="#dd6e5c"/>
          </g>
        </g>
        <text id="B" transform="translate(0.63 17.891)" fill="#dfdbfc" font-size="6" font-family="SegoeUI, Segoe UI"><tspan x="0" y="0">B</tspan></text>
        <text id="R" transform="translate(6.156 13.479)" fill="#dfdbfc" font-size="5" font-family="SegoeUI, Segoe UI"><tspan x="0" y="0">R</tspan></text>
        <text id="N" transform="translate(20.301 21.931)" fill="#dfdbfc" font-size="6" font-family="SegoeUI, Segoe UI"><tspan x="0" y="0">N</tspan></text>
        <text id="D" transform="translate(24.287 15.622)" fill="#dfdbfc" font-size="6" font-family="SegoeUI, Segoe UI"><tspan x="0" y="0">D</tspan></text>
        <g id="Group_1099" data-name="Group 1099" transform="translate(8.983 7.842)">
          <text id="A" transform="translate(1.728 13)" fill="#a797fb" font-size="11" font-family="SegoeUI, Segoe UI"><tspan x="0" y="0">A</tspan></text>
          <g id="Group_1098" data-name="Group 1098" transform="translate(0 4.577)">
            <g id="Group_1097" data-name="Group 1097" transform="translate(0.475 0.407)">
              <path id="Path_2202" data-name="Path 2202" d="M256.009,210.259H243.787V198.58h12.222Zm-11.883-.34H255.67v-11H244.127Z" transform="translate(-243.787 -198.58)" fill="#5f5ea5"/>
            </g>
            <rect id="Rectangle_421" data-name="Rectangle 421" width="1.222" height="1.222" fill="#5f5ea5"/>
            <rect id="Rectangle_422" data-name="Rectangle 422" width="1.222" height="1.222" transform="translate(5.975)" fill="#5f5ea5"/>
            <rect id="Rectangle_423" data-name="Rectangle 423" width="1.222" height="1.222" transform="translate(5.975 11.34)" fill="#5f5ea5"/>
            <rect id="Rectangle_424" data-name="Rectangle 424" width="1.222" height="1.222" transform="translate(0 11.272)" fill="#5f5ea5"/>
            <rect id="Rectangle_425" data-name="Rectangle 425" width="1.222" height="1.222" transform="translate(0 5.704)" fill="#5f5ea5"/>
            <rect id="Rectangle_426" data-name="Rectangle 426" width="1.222" height="1.222" transform="translate(11.951 5.704)" fill="#5f5ea5"/>
            <rect id="Rectangle_427" data-name="Rectangle 427" width="1.222" height="1.222" transform="translate(11.906)" fill="#5f5ea5"/>
            <rect id="Rectangle_428" data-name="Rectangle 428" width="1.222" height="1.222" transform="translate(11.906 11.272)" fill="#5f5ea5"/>
          </g>
        </g>
        <g id="Group_1100" data-name="Group 1100" transform="translate(1.513 6.356)">
          <rect id="Rectangle_429" data-name="Rectangle 429" width="9.76" height="1.135" transform="translate(0 20.202)" fill="#dfdbfc"/>
          <rect id="Rectangle_430" data-name="Rectangle 430" width="9.76" height="1.135" transform="translate(0 22.245)" fill="#dfdbfc"/>
          <rect id="Rectangle_431" data-name="Rectangle 431" width="9.76" height="1.135" transform="translate(17.932)" fill="#dfdbfc"/>
          <rect id="Rectangle_432" data-name="Rectangle 432" width="13.014" height="1.059" transform="translate(14.679 2.119)" fill="#dfdbfc"/>
        </g>
      </g>
    </g>
    <rect id="Rectangle_433" data-name="Rectangle 433" width="20.353" height="1.892" transform="translate(14.603 44.414)" fill="#c3b7fc"/>
  </g>
  <g id="Group_1107" data-name="Group 1107" transform="translate(30.561 31.303)">
    <g id="Group_1104" data-name="Group 1104" transform="translate(0 0)">
      <circle id="Ellipse_177" data-name="Ellipse 177" cx="11.3" cy="11.3" r="11.3" transform="translate(0 21.79) rotate(-74.625)" fill="#dd6e5c"/>
      <circle id="Ellipse_178" data-name="Ellipse 178" cx="8.663" cy="8.663" r="8.663" transform="translate(3.807 20.848) rotate(-79.602)" fill="#fff"/>
      <circle id="Ellipse_179" data-name="Ellipse 179" cx="5.757" cy="5.757" r="5.757" transform="translate(6.445 10.598) rotate(-21.145)" fill="#dd6e5c"/>
      <circle id="Ellipse_180" data-name="Ellipse 180" cx="2.91" cy="2.91" r="2.91" transform="matrix(1, -0.013, 0.013, 1, 10.944, 11.019)" fill="#fff"/>
    </g>
    <g id="Group_1106" data-name="Group 1106" transform="translate(11.944 2.036)">
      <path id="Path_2203" data-name="Path 2203" d="M394.707,273.857l.4.208-10.91,6-.956.526-.475-.865.956-.525,10.892-5.989-.041.408A.242.242,0,0,0,394.707,273.857Z" transform="translate(-380.913 -268.363)" fill="#5f5ea5"/>
      <g id="Group_1105" data-name="Group 1105" transform="translate(13.662)">
        <path id="Path_2204" data-name="Path 2204" d="M444.416,264.732l-1.138.626a.245.245,0,0,1-.228,0l-1.4-.72-.4-.208a.242.242,0,0,1-.131-.24l.041-.408.158-1.577a.241.241,0,0,1,.124-.188l1.138-.626a.241.241,0,0,0-.124.188l-.158,1.577-.041.408a.242.242,0,0,0,.131.24l.4.208,1.4.719A.243.243,0,0,0,444.416,264.732Z" transform="translate(-441.117 -258.939)" fill="#5f5ea5"/>
        <path id="Path_2205" data-name="Path 2205" d="M449.991,261.771l-1.089.6a.243.243,0,0,1-.228,0l-1.4-.72-.4-.208a.242.242,0,0,1-.131-.24l.041-.408.158-1.577a.241.241,0,0,1,.124-.188l1.09-.6a.241.241,0,0,0-.122.187l-.158,1.577-.041.407a.243.243,0,0,0,.13.24l.4.208,1.4.72A.243.243,0,0,0,449.991,261.771Z" transform="translate(-445.604 -256.577)" fill="#ecbf4c"/>
        <path id="Path_2206" data-name="Path 2206" d="M455.346,258.921l-1.044.574,0,0a.243.243,0,0,1-.224,0l-1.4-.72-.4-.208a.242.242,0,0,1-.13-.24l.041-.408.158-1.577a.241.241,0,0,1,.122-.187h0l1.047-.575a.24.24,0,0,0-.124.188l-.158,1.577-.041.408a.242.242,0,0,0,.131.24l.4.208,1.4.72A.244.244,0,0,0,455.346,258.921Z" transform="translate(-449.91 -254.302)" fill="#5f5ea5"/>
        <path id="Path_2207" data-name="Path 2207" d="M460.523,256.074l-1.047.576,0,0a.244.244,0,0,1-.225,0l-1.4-.72-.4-.208a.241.241,0,0,1-.131-.24l.041-.408.158-1.577a.241.241,0,0,1,.124-.188l1.047-.576a.242.242,0,0,0-.124.188l-.2,1.985a.242.242,0,0,0,.13.24l1.8.927A.243.243,0,0,0,460.523,256.074Z" transform="translate(-454.038 -252.033)" fill="#ecbf4c"/>
        <path id="Path_2208" data-name="Path 2208" d="M465.653,253.353l-1,.551a.243.243,0,0,1-.228,0l-1.8-.928a.242.242,0,0,1-.131-.24l.2-1.985a.243.243,0,0,1,.124-.188l1-.551a.241.241,0,0,0-.125.188l-.2,1.985a.242.242,0,0,0,.131.24l1.8.928A.243.243,0,0,0,465.653,253.353Z" transform="translate(-458.166 -249.863)" fill="#5f5ea5"/>
        <path id="Path_2209" data-name="Path 2209" d="M469.822,252.627l-.221.121a.243.243,0,0,1-.228,0l-1.8-.928a.242.242,0,0,1-.131-.24l.2-1.985a.241.241,0,0,1,.125-.188l.224-.123a.243.243,0,0,1,.359.213l-.006,1.639a.242.242,0,0,0,.114.207l1.378.862A.242.242,0,0,1,469.822,252.627Z" transform="translate(-462.114 -249.258)" fill="#ecbf4c"/>
      </g>
      <path id="Path_2210" data-name="Path 2210" d="M377.593,299.26l-3.847-.332a.184.184,0,0,1-.136-.247l1.782-3.426c.044-.085.164-.064.221.039l2.066,3.758C377.735,299.156,377.689,299.269,377.593,299.26Z" transform="translate(-373.595 -285.906)" fill="#ecbf4c"/>
    </g>
  </g>
  <g id="Group_1114" data-name="Group 1114" transform="translate(0 37.685)">
    <g id="Group_1113" data-name="Group 1113">
      <path id="Path_2233" data-name="Path 2233" d="M107.677,288.1v14.388a1.6,1.6,0,0,1-1.6,1.6H85.054a1.6,1.6,0,0,1-1.6-1.6V288.1Z" transform="translate(-83.456 -284.585)" fill="#fff"/>
      <path id="Path_2234" data-name="Path 2234" d="M107.677,272.337v1.914H83.456v-1.914a1.6,1.6,0,0,1,1.6-1.6h21.025A1.6,1.6,0,0,1,107.677,272.337Z" transform="translate(-83.456 -270.739)" fill="#514e92"/>
      <path id="Path_2235" data-name="Path 2235" d="M173.857,275.538a.908.908,0,1,1-.908-.908A.908.908,0,0,1,173.857,275.538Z" transform="translate(-154.117 -273.843)" fill="#ecbf4c"/>
      <path id="Path_2236" data-name="Path 2236" d="M187.025,275.538a.908.908,0,1,1-.908-.908A.908.908,0,0,1,187.025,275.538Z" transform="translate(-164.62 -273.843)" fill="#dd6e5c"/>
    </g>
    <rect id="Rectangle_434" data-name="Rectangle 434" width="9.567" height="7.63" transform="translate(1.393 5.752)" fill="#8690f1"/>
    <rect id="Rectangle_435" data-name="Rectangle 435" width="10.597" height="1.514" transform="translate(12.232 5.934)" fill="#dfdbfc"/>
    <rect id="Rectangle_436" data-name="Rectangle 436" width="10.597" height="1.514" transform="translate(12.232 8.72)" fill="#dfdbfc"/>
    <rect id="Rectangle_437" data-name="Rectangle 437" width="10.597" height="1.514" transform="translate(12.232 11.808)" fill="#dfdbfc"/>
  </g>
  <g id="Group_1126" data-name="Group 1126" transform="translate(7.379 32.029)">
    <g id="Group_1117" data-name="Group 1117" transform="translate(0 14.758)">
      <path id="Path_2243" data-name="Path 2243" d="M158.1,383.364a.676.676,0,0,1,.182.284.447.447,0,0,1-.274.475,1.019,1.019,0,0,1-.584.04,3.049,3.049,0,0,1-1.418-.63,1.528,1.528,0,0,1-.353-.378,2.049,2.049,0,0,1-.225-.923.255.255,0,0,1,.031-.182.242.242,0,0,1,.112-.067c.416-.151.978-.327,1.3.032C157.275,382.468,157.687,382.915,158.1,383.364Z" transform="translate(-148.239 -368.434)" fill="#ecbf4c"/>
      <path id="Path_2244" data-name="Path 2244" d="M121.729,379.994a.676.676,0,0,1-.032.336.446.446,0,0,1-.508.2,1.017,1.017,0,0,1-.484-.328,3.049,3.049,0,0,1-.727-1.371,1.526,1.526,0,0,1-.045-.516,2.052,2.052,0,0,1,.393-.865.255.255,0,0,1,.137-.124.243.243,0,0,1,.129.017c.42.138.971.346,1,.829C121.636,378.782,121.685,379.388,121.729,379.994Z" transform="translate(-119.926 -364.862)" fill="#ecbf4c"/>
      <path id="Path_2245" data-name="Path 2245" d="M122.035,325.7q.315-.72.613-1.446l.147-.363c.048-.119.094-.237.137-.35a6.858,6.858,0,0,0,.213-.652,3.324,3.324,0,0,0,.1-.581,4.2,4.2,0,0,0,0-.606c-.015-.224-.042-.473-.069-.742l-.081-.795-.325-4.329,5.773-.11q.057,1.711.172,3.424c.075,1.143.165,2.291.259,3.443s.189,2.308.278,3.465.173,2.316.249,3.475l-1.872.189q-.236-1.714-.491-3.425c-.17-1.141-.347-2.283-.522-3.428s-.349-2.3-.507-3.454c-.007-.054-.014-.107-.022-.161a.932.932,0,0,0-.228-.055c-.046,0-.092,0-.138,0l.019.8.019.8c.006.262.015.546.011.853a6.511,6.511,0,0,1-.081.988,5.807,5.807,0,0,1-.255.973c-.106.3-.227.58-.349.842-.061.132-.123.257-.184.381l-.182.365q-.366.726-.749,1.442-.767,1.432-1.6,2.823l-1.668-.916Q121.4,327.138,122.035,325.7Z" transform="translate(-120.543 -315.724)" fill="#363271"/>
    </g>
    <g id="Group_1123" data-name="Group 1123" transform="translate(1.771 4.707)">
      <g id="Group_1119" data-name="Group 1119" transform="translate(5.094 4.164)">
        <path id="Path_2246" data-name="Path 2246" d="M166.23,315.465a.3.3,0,0,0,.045.1.107.107,0,0,0,.1.045c.044-.007.073-.048.1-.085l.121-.187a1.835,1.835,0,0,1,.152.525c.01.074.023.162.09.2a.194.194,0,0,0,.132,0,.827.827,0,0,0,.483-.332.481.481,0,0,0,.077-.162.523.523,0,0,0-.005-.223,2.185,2.185,0,0,0-.265-.612,4.1,4.1,0,0,0-.345-.546.119.119,0,0,0-.036-.034.114.114,0,0,0-.05-.009,1.049,1.049,0,0,0-.7.247.322.322,0,0,0-.132.21c-.009.139.115.25.136.385A3.542,3.542,0,0,0,166.23,315.465Z" transform="translate(-163.536 -308.575)" fill="#f0c9a1"/>
        <g id="Group_1118" data-name="Group 1118">
          <path id="Path_2247" data-name="Path 2247" d="M155.128,286.627l-.008.008a1.995,1.995,0,0,1-1.264.525,31.035,31.035,0,0,0,2.466,5.951l1.205-.653A29.658,29.658,0,0,1,155.128,286.627Z" transform="translate(-153.856 -286.627)" fill="#dd6e5c"/>
        </g>
      </g>
      <g id="Group_1120" data-name="Group 1120" transform="translate(0 1.036)">
        <path id="Path_2248" data-name="Path 2248" d="M135.232,281.178a.365.365,0,0,1-.278.126q-.3.04-.6.072-.732.08-1.467.116a25.475,25.475,0,0,1-3.4-.059c-.411-.035-.645.034-.778-.333a41.285,41.285,0,0,1,.251-4.2,12.374,12.374,0,0,1,.425-2.984,4.154,4.154,0,0,1,1.745-2.383,2.848,2.848,0,0,1,.294-.151,2.369,2.369,0,0,1,1.253-.2,2.229,2.229,0,0,1,1.123.509,3.239,3.239,0,0,1,.922,1.29,8.115,8.115,0,0,1,.408,2.812q.07,2.589.138,5.178A.365.365,0,0,1,135.232,281.178Z" transform="translate(-128.678 -271.167)" fill="#fff"/>
        <path id="Path_2249" data-name="Path 2249" d="M132.884,282.344a25.48,25.48,0,0,1-3.4-.059c-.411-.035-.645.034-.778-.333a41.286,41.286,0,0,1,.251-4.2,12.374,12.374,0,0,1,.425-2.984,4.154,4.154,0,0,1,1.745-2.383,2.86,2.86,0,0,1,.294-.151,2.8,2.8,0,0,1,.6.868,10.085,10.085,0,0,1,.856,4.259Q132.975,279.852,132.884,282.344Z" transform="translate(-128.678 -272.019)" fill="#dd6e5c"/>
        <path id="Path_2250" data-name="Path 2250" d="M155.416,283.256a.365.365,0,0,1-.278.126q-.3.04-.6.072.1-3.255-.077-6.512a12.871,12.871,0,0,0-.429-3.025q-.023-.074-.047-.145a3.238,3.238,0,0,1,.922,1.29,8.115,8.115,0,0,1,.408,2.812q.07,2.589.138,5.178A.366.366,0,0,1,155.416,283.256Z" transform="translate(-148.862 -273.245)" fill="#dd6e5c"/>
      </g>
      <g id="Group_1122" data-name="Group 1122" transform="translate(1.488)">
        <path id="Path_2251" data-name="Path 2251" d="M167.985,266.982a.194.194,0,0,1,.237.051.566.566,0,0,1,.108.237l.117-.81a.675.675,0,0,1,.13-.367c.03-.033.081-.061.118-.037a.109.109,0,0,1,.038.069,1.626,1.626,0,0,1,.047.421.535.535,0,0,0,.009.147c.053.2.323.232.477.369a.535.535,0,0,1,.152.437,1.59,1.59,0,0,1-.129.46l-.2.507a.31.31,0,0,1-.084.138.283.283,0,0,1-.144.048,1.564,1.564,0,0,1-.483-.016c-.182-.035-.383-.13-.42-.311s.071-.4.059-.6C168.011,267.623,167.893,267.041,167.985,266.982Z" transform="translate(-161.491 -266.049)" fill="#f0c9a1"/>
        <g id="Group_1121" data-name="Group 1121" transform="translate(0 1.929)">
          <path id="Path_2252" data-name="Path 2252" d="M143.872,275.88a20.118,20.118,0,0,1-1.642,4.3c-.227.455-.74,1.483-1.756,1.62a1.761,1.761,0,0,1-.21.015,2.269,2.269,0,0,1-1.653-.93,19.309,19.309,0,0,1-2.5-3.638.735.735,0,0,1,1.3-.681,17.817,17.817,0,0,0,2.3,3.352c.323.371.469.426.527.425.17,0,.394-.278.665-.82a18.845,18.845,0,0,0,1.517-3.939,3.667,3.667,0,0,1,1.387.272Z" transform="translate(-136.031 -275.583)" fill="#dd6e5c"/>
        </g>
      </g>
    </g>
    <g id="Group_1125" data-name="Group 1125" transform="translate(2.71 0)">
      <path id="Path_2253" data-name="Path 2253" d="M133.342,254.306a1.834,1.834,0,0,0,.051.777,2.785,2.785,0,0,0,.94,1.463,2.754,2.754,0,0,0,1.787.5.553.553,0,0,0,.483-.176.592.592,0,0,0-.021-.511,8.722,8.722,0,0,0-1.376-2.436c-.287-.358-.709-.752-1.2-.572A1.131,1.131,0,0,0,133.342,254.306Z" transform="translate(-133.322 -251.178)" fill="#363271"/>
      <path id="Path_2254" data-name="Path 2254" d="M144.717,263.142l0,1.923a.685.685,0,1,0,1.371,0l0-1.923Z" transform="translate(-142.411 -259.022)" fill="#f0c9a1"/>
      <path id="Path_2255" data-name="Path 2255" d="M144.719,265.056v1.415c.294-.053.674-.122.73-.139a3.442,3.442,0,0,0,.64-.262,2.761,2.761,0,0,0,.364-.233c.431-.328-.012-.5-.365-.645h0a3.171,3.171,0,0,0-1.172-.228.284.284,0,0,0-.115.016A.186.186,0,0,0,144.719,265.056Z" transform="translate(-142.413 -260.475)" fill="#e9b588"/>
      <path id="Path_2256" data-name="Path 2256" d="M143.379,250.651c.5,1.126.311,2.306-.626,2.723a2.271,2.271,0,0,1-1.817-4.079C141.873,248.878,142.877,249.524,143.379,250.651Z" transform="translate(-138.585 -247.876)" fill="#f0c9a1"/>
      <path id="Path_2257" data-name="Path 2257" d="M139.638,262.442a.544.544,0,1,1-.825-.2A.608.608,0,0,1,139.638,262.442Z" transform="translate(-137.559 -258.23)" fill="#f0c9a1"/>
      <path id="Path_2258" data-name="Path 2258" d="M137.411,245.559a3.655,3.655,0,0,0,1.171-.618,1.564,1.564,0,0,0,.586-1.15,1.009,1.009,0,0,0-.736-.987,1.381,1.381,0,0,0-.944.229,3.9,3.9,0,0,0-.6.426.806.806,0,0,1-.184.133.865.865,0,0,1-.244.053,2.389,2.389,0,0,0-1.629,1.007,1.371,1.371,0,0,0-.255.639c-.062.711.572.677,1.1.652A6.038,6.038,0,0,0,137.411,245.559Z" transform="translate(-134.319 -242.786)" fill="#363271"/>
      <path id="Path_2259" data-name="Path 2259" d="M136.953,254.425c.025.149.018.3.033.451a1.6,1.6,0,0,0,.36.864.618.618,0,0,1-.27.2l-.281-.2a3.465,3.465,0,0,1-.748-.639,1.171,1.171,0,0,1-.277-.917.61.61,0,0,1,.158-.323.384.384,0,0,1,.332-.114A.913.913,0,0,1,136.953,254.425Z" transform="translate(-135.262 -251.526)" fill="#363271"/>
      <g id="Group_1124" data-name="Group 1124" transform="translate(1.495 2.473)">
        <path id="Path_2260" data-name="Path 2260" d="M148.325,255.06a.582.582,0,0,0-.336.631l-.291.13a.579.579,0,1,0,.074.122l-.007-.014.26-.116.006.015a.581.581,0,1,0,.295-.768Zm-.9,1.536a.456.456,0,1,1,.231-.6A.456.456,0,0,1,147.426,256.6Zm1.321-.588a.456.456,0,1,1,.231-.6A.456.456,0,0,1,148.747,256.008Z" transform="translate(-145.456 -255.01)" fill="#fff"/>
        <rect id="Rectangle_438" data-name="Rectangle 438" width="1.282" height="0.133" transform="translate(0 1.455) rotate(-11.786)" fill="#fff"/>
      </g>
    </g>
  </g>
  <g id="Group_1139" data-name="Group 1139" transform="translate(24.14 27.835)">
    <g id="Group_1127" data-name="Group 1127" transform="translate(11.103 10.846)">
      <path id="Path_2261" data-name="Path 2261" d="M311.559,275.664a9.958,9.958,0,0,1-3.86,3.372,10.183,10.183,0,0,1-3.416,1.019,12.506,12.506,0,0,0,.332,1.438c.021.04.043.078.065.117a11.777,11.777,0,0,0,8.205-5.066Z" transform="translate(-304.283 -275.664)" fill="#dfdbfc"/>
    </g>
    <g id="Group_1131" data-name="Group 1131" transform="translate(0 0)">
      <g id="Group_1128" data-name="Group 1128" transform="translate(6.361 4.753)">
        <rect id="Rectangle_439" data-name="Rectangle 439" width="2.193" height="9.89" transform="translate(6.097 13.893) rotate(162.283)" fill="#5f5ea5"/>
        <path id="Path_2262" data-name="Path 2262" d="M295.056,298.908l1.938-.619a.309.309,0,0,1,.388.2l2.207,6.907a1.327,1.327,0,0,1-.86,1.667h0a1.326,1.326,0,0,1-1.667-.86l-2.207-6.907A.309.309,0,0,1,295.056,298.908Z" transform="translate(-292.009 -287.607)" fill="#514e92"/>
        <path id="Path_2263" data-name="Path 2263" d="M280.845,248.833l.21-3.07.656-.21,1.951,2.38-.217,1.912-1.315.42Z" transform="translate(-280.845 -245.553)" fill="#ecbf4c"/>
        <path id="Path_2264" data-name="Path 2264" d="M283.971,264.236l1.757-.561a.48.48,0,0,1,.6.311h0a.48.48,0,0,1-.311.6l-1.757.561a.48.48,0,0,1-.6-.311h0A.48.48,0,0,1,283.971,264.236Z" transform="translate(-283.072 -259.99)" fill="#8690f1"/>
        <path id="Path_2265" data-name="Path 2265" d="M285.476,256.408a.355.355,0,1,1,.443.22A.349.349,0,0,1,285.476,256.408Z" transform="translate(-284.526 -253.85)" fill="#fff"/>
        <path id="Path_2266" data-name="Path 2266" d="M283.689,248.283l-.741-2.318.225-.072.741,2.318a.117.117,0,0,1-.078.145.119.119,0,0,1-.09-.007A.114.114,0,0,1,283.689,248.283Z" transform="translate(-282.522 -245.824)" fill="#fff"/>
        <path id="Path_2267" data-name="Path 2267" d="M293.94,298.168l2.333-.745a.3.3,0,0,1,.372.192h0a.3.3,0,0,1-.192.372l-2.332.745a.3.3,0,0,1-.372-.192h0A.3.3,0,0,1,293.94,298.168Z" transform="translate(-291.126 -286.917)" fill="#ecbf4c"/>
        <path id="Path_2268" data-name="Path 2268" d="M301.409,305.929h0a.455.455,0,0,1,.571.294l2.151,6.735a.455.455,0,0,1-.294.571h0a.456.456,0,0,1-.571-.294l-2.151-6.735A.455.455,0,0,1,301.409,305.929Z" transform="translate(-296.996 -293.696)" fill="#ecbf4c"/>
      </g>
      <g id="Group_1130" data-name="Group 1130">
        <g id="Group_1129" data-name="Group 1129" transform="translate(0.321 0.371)">
          <path id="Path_2269" data-name="Path 2269" d="M251.178,231.228l-.183-.1a6.065,6.065,0,0,1,3.889-2.744c.607-.181,1.235-.322,1.843-.458a17.7,17.7,0,0,0,2.788-.787,4.818,4.818,0,0,0,3.135-3.248l.2.04a5.02,5.02,0,0,1-3.26,3.4,17.875,17.875,0,0,1-2.82.8c-.6.135-1.229.275-1.829.454A5.871,5.871,0,0,0,251.178,231.228Z" transform="translate(-250.995 -223.895)" fill="#ecbf4c"/>
        </g>
        <path id="Path_2270" data-name="Path 2270" d="M281.308,241.592a.412.412,0,1,1-.471-.344A.413.413,0,0,1,281.308,241.592Z" transform="translate(-274.2 -237.362)" fill="#ecbf4c"/>
        <path id="Path_2271" data-name="Path 2271" d="M250.228,258.211a.412.412,0,1,1-.471-.344A.413.413,0,0,1,250.228,258.211Z" transform="translate(-249.408 -250.618)" fill="#ecbf4c"/>
        <path id="Path_2272" data-name="Path 2272" d="M307.786,222.409a.412.412,0,1,1-.471-.344A.412.412,0,0,1,307.786,222.409Z" transform="translate(-295.32 -222.06)" fill="#ecbf4c"/>
      </g>
    </g>
    <g id="Group_1138" data-name="Group 1138" transform="translate(9.922 7.221)">
      <path id="Path_2273" data-name="Path 2273" d="M326.675,257.756a2.6,2.6,0,0,1,2.23,1.737,10.342,10.342,0,0,1,.24,1.437,1.905,1.905,0,0,0,.635,1.25c.261.189.587.248.857.421a1.45,1.45,0,0,1,.305,2.006,3.106,3.106,0,0,0-.284.348,5.877,5.877,0,0,0-.243.776,1.3,1.3,0,0,1-.489.566,2.289,2.289,0,0,1-2.934-.591,4.557,4.557,0,0,1-.877-3.246c.058-.836.229-1.8-.3-2.418a2.273,2.273,0,0,0-1.364-.622c-.944-.188-.3-.768.157-1.073A3.266,3.266,0,0,1,326.675,257.756Z" transform="translate(-318.805 -257.747)" fill="#363271"/>
      <g id="Group_1136" data-name="Group 1136" transform="translate(0 5.384)">
        <g id="Group_1132" data-name="Group 1132" transform="translate(2.596 7.08)">
          <path id="Path_2274" data-name="Path 2274" d="M311.463,386.992a.678.678,0,0,0-.182.284.447.447,0,0,0,.274.475,1.018,1.018,0,0,0,.584.04,3.049,3.049,0,0,0,1.418-.63,1.525,1.525,0,0,0,.354-.378,2.051,2.051,0,0,0,.225-.923.256.256,0,0,0-.031-.182.244.244,0,0,0-.112-.067c-.416-.151-.978-.327-1.3.032C312.285,386.1,311.872,386.543,311.463,386.992Z" transform="translate(-311.272 -372.062)" fill="#e08675"/>
          <path id="Path_2275" data-name="Path 2275" d="M351.992,383.622a.68.68,0,0,0,.032.336.447.447,0,0,0,.509.2,1.019,1.019,0,0,0,.484-.329,3.051,3.051,0,0,0,.727-1.371,1.531,1.531,0,0,0,.045-.516,2.051,2.051,0,0,0-.393-.865.254.254,0,0,0-.137-.124.241.241,0,0,0-.129.016c-.42.138-.972.346-1,.829C352.085,382.41,352.037,383.016,351.992,383.622Z" transform="translate(-343.748 -368.491)" fill="#e08675"/>
          <path id="Path_2276" data-name="Path 2276" d="M324.123,329.326q-.315-.72-.613-1.446l-.147-.363c-.048-.119-.094-.237-.137-.35a6.856,6.856,0,0,1-.213-.652,3.338,3.338,0,0,1-.1-.581,4.2,4.2,0,0,1,0-.606c.015-.224.042-.473.069-.742l.081-.795.324-4.329-5.773-.11q-.057,1.711-.172,3.424c-.075,1.144-.165,2.291-.259,3.443s-.189,2.308-.278,3.465-.173,2.316-.249,3.475l1.873.189q.236-1.714.491-3.425c.17-1.141.346-2.283.522-3.428s.349-2.3.508-3.454c.007-.053.014-.107.021-.161a.938.938,0,0,1,.228-.055c.046,0,.092,0,.138,0l-.019.8-.019.8c-.006.262-.015.546-.011.853a6.5,6.5,0,0,0,.081.988,5.809,5.809,0,0,0,.255.973c.106.3.227.58.349.842.061.132.123.257.184.381l.182.365q.366.726.749,1.442.767,1.432,1.6,2.823l1.668-.916Q324.755,330.766,324.123,329.326Z" transform="translate(-315.567 -319.352)" fill="#ecbf4c"/>
        </g>
        <g id="Group_1135" data-name="Group 1135">
          <path id="Path_2277" data-name="Path 2277" d="M325.455,293.034a.31.31,0,0,1-.214.315,12.688,12.688,0,0,1-4.745.606,12.98,12.98,0,0,1-1.508-.181h0a.306.306,0,0,1-.235-.388l.026-.09c.211-.746.286-1.506.436-2.267q.316-1.6.511-3.214c.09-.751-.053-2.051.569-2.611a2.9,2.9,0,0,1,2.855-.7,1.782,1.782,0,0,1,.285.146,4.017,4.017,0,0,1,1.354,2.66A48.945,48.945,0,0,1,325.455,293.034Z" transform="translate(-314.631 -284.358)" fill="#5f5ea5"/>
          <g id="Group_1134" data-name="Group 1134" transform="translate(0 1.323)">
            <path id="Path_2278" data-name="Path 2278" d="M299.062,317.346a.642.642,0,0,1-.51-.2.568.568,0,0,1-.086-.207.441.441,0,0,1,.027-.344.5.5,0,0,1,.347-.17,4.413,4.413,0,0,1,.506-.057.584.584,0,0,1-.231-.2c-.026-.04-.047-.094-.018-.132a.131.131,0,0,1,.113-.033l1.04.031a.237.237,0,0,1,.128.028.216.216,0,0,1,.063.075,1.194,1.194,0,0,1,.16.591c0,.232-.084.268-.288.363A2.719,2.719,0,0,1,299.062,317.346Z" transform="translate(-298.444 -310.923)" fill="#f0c9a1"/>
            <g id="Group_1133" data-name="Group 1133" transform="translate(1.358)">
              <path id="Path_2279" data-name="Path 2279" d="M312.863,291.693a.791.791,0,0,1-.116.411,11.827,11.827,0,0,1-7.162,5.263,3.241,3.241,0,0,1-.234-.551,5.483,5.483,0,0,1-.2-.961,10.8,10.8,0,0,0,3.155-1.411,10.068,10.068,0,0,0,3.075-3.164.8.8,0,0,1,1.477.413Z" transform="translate(-305.156 -290.896)" fill="#dfdbfc"/>
            </g>
          </g>
        </g>
      </g>
      <g id="Group_1137" data-name="Group 1137" transform="translate(4.375 0.117)">
        <path id="Path_2280" data-name="Path 2280" d="M338.144,262.364a1.4,1.4,0,0,1,.21.675,3.334,3.334,0,0,1-.284,1.793,2.383,2.383,0,0,1-1.317,1.216.354.354,0,0,1-.371-.028.372.372,0,0,1-.076-.213,10.153,10.153,0,0,1,.03-2.866,1.767,1.767,0,0,1,.241-.741C336.959,261.639,337.8,261.878,338.144,262.364Z" transform="translate(-332.95 -261.157)" fill="#363271"/>
        <path id="Path_2281" data-name="Path 2281" d="M333.122,276.6v1.923a.685.685,0,1,1-1.371,0V276.6Z" transform="translate(-329.387 -272.906)" fill="#f0c9a1"/>
        <path id="Path_2282" data-name="Path 2282" d="M330.983,278.514v1.415c-.294-.053-.674-.122-.73-.138a3.434,3.434,0,0,1-.641-.261,2.781,2.781,0,0,1-.364-.233c-.431-.328.012-.5.364-.645h0a3.173,3.173,0,0,1,1.172-.229.284.284,0,0,1,.115.016A.184.184,0,0,1,330.983,278.514Z" transform="translate(-327.248 -274.354)" fill="#e9b588"/>
        <path id="Path_2283" data-name="Path 2283" d="M323.884,264.2c0,1.233.655,2.233,1.68,2.233a2.271,2.271,0,0,0,0-4.466C324.539,261.963,323.884,262.963,323.884,264.2Z" transform="translate(-323.111 -261.227)" fill="#f0c9a1"/>
        <path id="Path_2284" data-name="Path 2284" d="M338.946,271.925a.544.544,0,1,0,.67-.522A.608.608,0,0,0,338.946,271.925Z" transform="translate(-335.108 -268.747)" fill="#f0c9a1"/>
        <path id="Path_2285" data-name="Path 2285" d="M337.944,265.863a.8.8,0,0,0,.017.319.22.22,0,0,0,.248.154.3.3,0,0,0,.144-.134,2.676,2.676,0,0,0,.434-1.575.521.521,0,0,0-.135-.381.51.51,0,0,0-.167-.087.649.649,0,0,0-.346-.048.532.532,0,0,0-.366.4C337.644,264.995,337.971,265.373,337.944,265.863Z" transform="translate(-334.166 -262.934)" fill="#363271"/>
        <path id="Path_2286" data-name="Path 2286" d="M320.9,258.921a1.773,1.773,0,0,0-.837,1.342.639.639,0,0,0,.182.518.622.622,0,0,0,.287.123,2.513,2.513,0,0,0,1.652-.48c-.018.227.263.348.49.375a3.427,3.427,0,0,0,1.691-.227,1.109,1.109,0,0,0,.675-.58,1.081,1.081,0,0,0-.519-1.135A3.2,3.2,0,0,0,320.9,258.921Z" transform="translate(-320.066 -258.326)" fill="#363271"/>
      </g>
    </g>
  </g>
</svg>
