<svg xmlns="http://www.w3.org/2000/svg" width="64" height="70.192" viewBox="0 0 64 70.192">
  <g id="Group_216" data-name="Group 216" transform="translate(0 3.975)">
    <g id="Group_852" data-name="Group 852" transform="translate(0 0)">
      <g id="Group_783" data-name="Group 783" transform="translate(3.329 12.15)">
        <g id="Group_782" data-name="Group 782" transform="translate(0 0)">
          <g id="Group_781" data-name="Group 781" transform="translate(0 0)">
            <path id="Path_3344" data-name="Path 3344" d="M21.063,1.161A18.8,18.8,0,0,1,40.309,20.407a20.385,20.385,0,0,1-19.9,19.9A18.8,18.8,0,0,1,1.161,21.063,20.386,20.386,0,0,1,21.063,1.161Z" transform="translate(0 26.381) rotate(-45)" fill="#553e93"/>
            <g id="Group_780" data-name="Group 780" transform="translate(29.122 6.757)">
              <path id="Path_1815" data-name="Path 1815" d="M2466.875,832.455c.084.054.172.109.265.166.008-.059,4.361,1.319,4.807,1.523,1.291.591,2.084.8.667,1.251.616-.195,2.006,3.588,2.982,3.431.95-.152,1.23.917,1.482,1.651.134.389.549.617.393,1.085-.049.149-.728.454-.676.553.285.542,1.583.6,1.591,1.4a.605.605,0,0,1-.572.288c-.6.243-.032.73.083,1.106.278.909,1.148,1.716,1.778.682s-.816-2.057.063-3.117c.516-.622,1.893.493,1.566-.694-.094-.34-1.526-1.843-.732-2.065.039-.011.065-.088.082-.216a20.756,20.756,0,0,0-13.781-7.044Z" transform="translate(-2466.875 -832.455)" fill="#786ab5"/>
              <path id="Path_1816" data-name="Path 1816" d="M2724.34,1074.333h0c-.1-.2-1.123.93-1.335,1.046-.775.427-.945-.416-1.594.475-.115.157-1.291,1.719-1.3,1.544.022.58-.219,1.154.061,1.71.25.5-.338.951-.3,1.477.047.691-.586,1.161-.426,1.849a7.079,7.079,0,0,1,.5,1.667c0,1.012-.182,1.472.631,2.2.523.466,1.2,2.075,2.121,1.168.169-.167,1.845-1.51,1.747-1.615.6.633.071.218.917.178.229-.011-.171,5.821-.521,5.687a.265.265,0,0,0,.194-.013q.288-.7.53-1.421A20.63,20.63,0,0,0,2724.34,1074.333Z" transform="translate(-2707.767 -1063.151)" fill="#786ab5"/>
            </g>
          </g>
        </g>
        <path id="Path_1817" data-name="Path 1817" d="M2132.076,903.112c.007-.6-1.109-1.152-1.713-1.128-1.3.053-1.639-.366-2.843-.677-1.011-.261-.855-1.982-2.389-2.056-.817-.04-2.357-2.261-3.164-1.6-.533.439-1.56-.74-1.918-.745-.827-.01-.158.481-.7-.135-.355-.405-1.332.447-1.538.689-.4.468-2.139-.234-2.41-.906-.1-.238.46-1.194.046-1.874-.159-.261-1.312-.07-1.49-.244-.24-.234.617-1.095.521-1.274-.4-.746-1.723,1.125-2.3-.381-.468-1.224.142-1.683.262-2.863.057-.555,1-.827,1.459-.626.734.323.636.022,1.193-.039.439-.048.907.45,1.331.524.5.087.158,1.49.63,1.827.274.2.268-1.888.285-1.938.3-.845,1.608-.768,1.817-1.477.515-1.747,1.7-1.616,3.131-2.233.683-.294,2.371-.635,2.8-1.3.8-1.248-1.3-3.111-1.843-3.99-.006-.011-.484.538-.594.543-.406.017-.782-2.27-1.559-.957-.148.25-.717.325-.4.694.62.721-.581.893-.955.791s-2.243-1.183-1.588-1.785c1.336-1.228,1.639-.592,3.026-.6,1.59-.007,1.647,1.487,2.961-.111.364-.442-2.011-1.706-1.543-2.266,1.659-1.982,2.572,2.42,3.194,3.184.909,1.116,1.494.528,1.422-.7-.034-.581,1.2-1.121,1.286-1.748a6.327,6.327,0,0,0-.917-1.361,2.728,2.728,0,0,1-.748-.841c-.278-.346-.713.172-.96-.137a13.209,13.209,0,0,0-2.422-.061c-1.1-.042-2.322-.005-3.426.011-.453-.018-2.851,1.154-2.914.2-.031-.476.539-1.31-.479-.925-.326.123-.532-.058-.466-.072a6.914,6.914,0,0,0-2.58,1.139c-.312.28.435.409.486.649.1.463-1.068,1.325-1.329,1.625-.928,1.069-.886,2.492-2.136,3.532-1.444,1.2-1.524,2.958-1.538,4.612-.007.8-.7,1.142-.26,2.05.371.775,1.061,1.147,1.176,2.088.075.618-.409,1.192-.175,1.794a3.371,3.371,0,0,0,1.506,1.75,7.579,7.579,0,0,1,3.284,2.69c1.137,1.706,3.164.961,2.5,2.683-.28.726-.993,1.07-1.284,1.845-.35.929.322,1.6.754,2.354s.6,1.671,1.359,2.188c.546.371,1.541.678,1.681,1.431.224,1.2-.788,2.7-.68,3.792a2.493,2.493,0,0,0,.728,1.978c1.157.867.883-.342,1.6-.913.674-.536,1.469-.378,2.239-.591.706-.2-.135-.455.151-.616.606-.341.966.171,1.543-.348.526-.473,1.238-.608,1.483-1.346.4-1.208,2.222-.766,2.982-1.705a5.148,5.148,0,0,0,.88-1.9c.258-.863,1.531-1.258,1.541-2.192C2132.083,902.488,2132.069,903.735,2132.076,903.112Z" transform="translate(-2093.677 -867.776)" fill="#786ab5"/>
      </g>
      <g id="Group_830" data-name="Group 830" transform="translate(20.824 -3.975)">
        <g id="Group_784" data-name="Group 784" transform="translate(6.109 10.051)">
          <path id="Path_1818" data-name="Path 1818" d="M2295.481,683.885c-.241.426-2.664,4.142-2.157,7.777l2.637-.944,1.2-4.9Z" transform="translate(-2293.255 -683.885)" fill="#fdad9b"/>
        </g>
        <g id="Group_785" data-name="Group 785" transform="translate(8.002 6.307)">
          <path id="Path_1819" data-name="Path 1819" d="M2345.137,604.956a5.066,5.066,0,0,0-5.564-2.082c-3.943.8-6.1,6.386-5.026,17.458a25.882,25.882,0,0,1,14.411-.478S2347.617,609.131,2345.137,604.956Z" transform="translate(-2334.273 -602.735)" fill="#ff8548"/>
        </g>
        <g id="Group_786" data-name="Group 786" transform="translate(7.27 6.173)">
          <path id="Path_1820" data-name="Path 1820" d="M2333.012,601.016l-2.772,2.741s-7.106,1.9-9.08,1.879a3.175,3.175,0,0,1-2.751-1.451,10.5,10.5,0,0,1,5.037-3.795,9.924,9.924,0,0,1,.994-.292,10.246,10.246,0,0,1,1.761-.253A17.5,17.5,0,0,1,2333.012,601.016Z" transform="translate(-2318.409 -599.823)" fill="#ff8548"/>
        </g>
        <g id="Group_787" data-name="Group 787" transform="translate(19.049 7.31)">
          <path id="Path_1821" data-name="Path 1821" d="M2576.528,624.524c.443.477-.24,1-1.006,1.755s-1.556,1.2-1.766.986.24-1,1.006-1.755S2576.324,624.306,2576.528,624.524Z" transform="translate(-2573.704 -624.469)" fill="#66192d"/>
        </g>
        <g id="Group_788" data-name="Group 788" transform="translate(19.469 7.99)">
          <path id="Path_1822" data-name="Path 1822" d="M2582.8,641.33a1.788,1.788,0,0,1,.653-1.246,4.223,4.223,0,0,1,1.3-.848.407.407,0,0,1,.539.225l.222.567-1.035.66Z" transform="translate(-2582.801 -639.203)" fill="#fdad9b"/>
        </g>
        <g id="Group_789" data-name="Group 789" transform="translate(11.401 18.347)">
          <path id="Path_1823" data-name="Path 1823" d="M2411.124,865.587s8.552-4.59,11.617.417c2.269,3.706-1.142,7.158-13.793,6.807,0,0-1.25-.58-.946-3.588C2408.123,868.031,2411.124,865.587,2411.124,865.587Z" transform="translate(-2407.955 -863.665)" fill="#ffba41"/>
        </g>
        <g id="Group_790" data-name="Group 790" transform="translate(0 17.586)">
          <path id="Path_1824" data-name="Path 1824" d="M2175.431,849.87s-11.389-4.621-13.643-1.732c-2.59,3.32-.106,8.956,11.9,6.941l1.463-1.573Z" transform="translate(-2160.86 -847.188)" fill="#ffba41"/>
        </g>
        <g id="Group_792" data-name="Group 792" transform="translate(7.808 20.765)">
          <g id="Group_791" data-name="Group 791" transform="translate(0 3.966)">
            <path id="Path_1825" data-name="Path 1825" d="M2333.646,1002.047a10.5,10.5,0,0,0-3.085.563c-.986.479-.46,1.648,1.543,1.617s1.85-.326,1.85-.326A5.142,5.142,0,0,1,2333.646,1002.047Z" transform="translate(-2330.078 -1002.047)" fill="#66192d"/>
          </g>
          <path id="Path_1826" data-name="Path 1826" d="M2407.983,922.831c-1.4-.993-.96-3.586-.956-3.612l0-.014.013,0,8.646-3.116.016.045-8.633,3.111c-.033.2-.389,2.613.938,3.551Z" transform="translate(-2403.41 -916.084)" fill="#020202"/>
        </g>
        <g id="Group_794" data-name="Group 794" transform="translate(11.386 8.372)">
          <g id="Group_793" data-name="Group 793">
            <path id="Path_1827" data-name="Path 1827" d="M2410.3,659.6a2.8,2.8,0,0,1-1.729-.52,2.452,2.452,0,0,1-.91-2.388l.837-.482c.041-.227,1.656.617,1.653.617s.771.221,3.417-1.118a4.542,4.542,0,0,0,2.838-4.045,4.325,4.325,0,0,0-.7-2.435c-.019-.044.89-.947.864-1.038l.682-.343c-.022-.077.655-.342.646-.364l.526.444a8.619,8.619,0,0,1,.74,3.842,7.234,7.234,0,0,1-4.35,6.4A10.743,10.743,0,0,1,2410.3,659.6Z" transform="translate(-2407.621 -647.48)" fill="#fdad9b"/>
          </g>
        </g>
        <g id="Group_801" data-name="Group 801" transform="translate(3.765 15.333)">
          <g id="Group_795" data-name="Group 795" transform="translate(0.463 0.023)">
            <path id="Path_1828" data-name="Path 1828" d="M2261.779,804.1h-7.38a.358.358,0,0,1-.34-.242l-1.534-4.536a.354.354,0,0,1,.34-.464h7.1a.75.75,0,0,1,.712.505l1.445,4.272A.354.354,0,0,1,2261.779,804.1Z" transform="translate(-2252.506 -798.857)" fill="#66192d"/>
          </g>
          <g id="Group_796" data-name="Group 796" transform="translate(0 0.023)">
            <path id="Path_1829" data-name="Path 1829" d="M2251.74,804.1h-7.38a.359.359,0,0,1-.341-.242l-1.534-4.536a.354.354,0,0,1,.34-.464h7.1a.75.75,0,0,1,.712.505l1.445,4.272A.354.354,0,0,1,2251.74,804.1Z" transform="translate(-2242.467 -798.857)" fill="#66192d"/>
          </g>
          <g id="Group_797" data-name="Group 797" transform="translate(4.102 2.253)">
            <path id="Path_1830" data-name="Path 1830" d="M2331.364,847.431c0-.172.2-.242.376-.242a.5.5,0,0,1,.459.43c0,.26-.207.294-.382.294A.576.576,0,0,1,2331.364,847.431Z" transform="translate(-2331.364 -847.189)" fill="#deebe9"/>
          </g>
          <g id="Group_798" data-name="Group 798" transform="translate(1.889 4.624)">
            <path id="Path_1831" data-name="Path 1831" d="M2293.51,898.569h-10.1v.641h10.31a.216.216,0,0,0,.216-.216h0A.425.425,0,0,0,2293.51,898.569Z" transform="translate(-2283.408 -898.569)" fill="#66192d"/>
          </g>
          <g id="Group_799" data-name="Group 799" transform="translate(7.63)">
            <path id="Path_1832" data-name="Path 1832" d="M2408.938,800.675a12.686,12.686,0,0,0-.6-1.776.993.993,0,0,0-.519-.494l.012-.046a1.022,1.022,0,0,1,.548.517,12.4,12.4,0,0,1,.6,1.787Z" transform="translate(-2407.819 -798.359)" fill="#66192d"/>
          </g>
          <g id="Group_800" data-name="Group 800" transform="translate(8.918 2.802)">
            <path id="Path_1833" data-name="Path 1833" d="M2436.661,860.941c-.274,0-.342-.12-.344-.125v0l-.575-1.7.045-.015.574,1.7c.008.011.074.1.3.1Z" transform="translate(-2435.74 -859.096)" fill="#66192d"/>
          </g>
        </g>
        <g id="Group_802" data-name="Group 802" transform="translate(20.447 15.339)">
          <path id="Path_1834" data-name="Path 1834" d="M2604.254,799.7a.231.231,0,0,1-.118-.03c-.181-.1-.176-.44.011-.764a1.017,1.017,0,0,1,.317-.349.326.326,0,0,1,.339-.043c.181.1.176.44-.011.764A.74.74,0,0,1,2604.254,799.7Zm.431-1.121a.329.329,0,0,0-.169.059.913.913,0,0,0-.285.315c-.155.269-.177.559-.047.634s.371-.089.526-.357.176-.559.046-.634A.14.14,0,0,0,2604.685,798.574Z" transform="translate(-2604.004 -798.478)" fill="#f18c7e"/>
        </g>
        <g id="Group_803" data-name="Group 803" transform="translate(11.399 2.779)">
          <path id="Path_1835" data-name="Path 1835" d="M2411.635,529.675a1.386,1.386,0,0,1-1.132-.388l-.863-1.005-.251-.293-1.478-1.721.776,2.013.466,1.208.147.382c.1.26-.032.38-.125.684-.037.123-.292.88.371.885a2.659,2.659,0,0,0,2.1-1.767Z" transform="translate(-2407.911 -526.267)" fill="#fdad9b"/>
        </g>
        <g id="Group_804" data-name="Group 804" transform="translate(12.883 0.993)">
          <path id="Path_1836" data-name="Path 1836" d="M2440.561,490.711s1.627-1.548.688-2.855-1.173,2.1-1.173,2.1l.262.787Z" transform="translate(-2440.076 -487.557)" fill="#66192d"/>
        </g>
        <g id="Group_805" data-name="Group 805" transform="translate(12.175 4.496)">
          <path id="Path_1837" data-name="Path 1837" d="M2425.673,563.747c0,.012.006.023.008.035a1.374,1.374,0,0,1-.481,1.209l-.006,0-.466-1.208a1.151,1.151,0,0,1,.7-.292A.3.3,0,0,1,2425.673,563.747Z" transform="translate(-2424.728 -563.485)" fill="#66192d"/>
        </g>
        <g id="Group_806" data-name="Group 806" transform="translate(9.558 1.106)">
          <path id="Path_1838" data-name="Path 1838" d="M2368.117,492.83a1.932,1.932,0,1,1,2.481,1.64A2.122,2.122,0,0,1,2368.117,492.83Z" transform="translate(-2367.999 -490.019)" fill="#fdad9b"/>
        </g>
        <g id="Group_807" data-name="Group 807" transform="translate(8.021)">
          <path id="Path_1839" data-name="Path 1839" d="M2339.648,468.686a.873.873,0,0,1-.952.058,1.293,1.293,0,0,0-1.714-.13c-.972.485-2.037.267-2.233-.279s.266-.964.877-.937-.129-.3.3-.878,1.5.017,2.037-.267,2.437-.531,2.78,1.083Z" transform="translate(-2334.704 -466.046)" fill="#66192d"/>
        </g>
        <g id="Group_808" data-name="Group 808" transform="translate(12.681 2.361)">
          <path id="Path_1840" data-name="Path 1840" d="M2436.379,517.817a.371.371,0,1,1-.083-.548A.393.393,0,0,1,2436.379,517.817Z" transform="translate(-2435.687 -517.214)" fill="#fdad9b"/>
        </g>
        <g id="Group_809" data-name="Group 809" transform="translate(8.77 1.532)">
          <path id="Path_1841" data-name="Path 1841" d="M2351.294,499.811a.426.426,0,0,1-.1-.012c-.219-.055-.28-.168-.265-.256s.141-.2.336-.178a.764.764,0,0,0,.45-.068l.038.06a.813.813,0,0,1-.5.079c-.145-.015-.247.051-.259.12s.069.139.212.175c.374.094,1.021-.482,1.028-.488l.047.053A2.033,2.033,0,0,1,2351.294,499.811Z" transform="translate(-2350.923 -499.242)" fill="#fff"/>
        </g>
        <g id="Group_810" data-name="Group 810" transform="translate(10.041 0.159)">
          <path id="Path_1842" data-name="Path 1842" d="M2379.255,470.088a1.568,1.568,0,0,1-.78-.2l.053-.047-.026.023.025-.025a1.473,1.473,0,0,0,1.11.116,4.3,4.3,0,0,0,.451-.214,1.259,1.259,0,0,1,.82-.226l-.013.069a1.209,1.209,0,0,0-.773.219,4.4,4.4,0,0,1-.458.217A1.125,1.125,0,0,1,2379.255,470.088Z" transform="translate(-2378.475 -469.498)" fill="#fff"/>
        </g>
        <g id="Group_811" data-name="Group 811" transform="translate(13.201 0.806)">
          <path id="Path_1843" data-name="Path 1843" d="M2447.322,483.917a.579.579,0,0,1-.349-.263c-.037-.075,0-.109.019-.121.143-.089.349.189.388.245l0,.005v.006c.023.086-.013.114-.037.123A.077.077,0,0,1,2447.322,483.917Zm-.268-.33a.045.045,0,0,0-.024.006c0,.006,0,.045.075.117a.415.415,0,0,0,.218.136.131.131,0,0,0,0-.033C2447.247,483.713,2447.124,483.587,2447.054,483.587Z" transform="translate(-2446.958 -483.515)" fill="#fff"/>
        </g>
        <g id="Group_812" data-name="Group 812" transform="translate(23.959 21.566)">
          <path id="Path_1844" data-name="Path 1844" d="M2680.926,935.441a.8.8,0,0,1-.4-.106.833.833,0,0,1-.4-.583,1.12,1.12,0,0,1,.14-.763.905.905,0,1,1,1.552.9,1.121,1.121,0,0,1-.59.5A.918.918,0,0,1,2680.926,935.441Zm.237-1.912a.969.969,0,0,0-.812.508,1.025,1.025,0,0,0-.129.7.718.718,0,0,0,.976.563,1.022,1.022,0,0,0,.539-.46.881.881,0,0,0-.222-1.216A.7.7,0,0,0,2681.163,933.529Z" transform="translate(-2680.111 -933.434)" fill="#66192d"/>
        </g>
        <g id="Group_814" data-name="Group 814" transform="translate(11.095 3.288)">
          <g id="Group_813" data-name="Group 813">
            <path id="Path_1845" data-name="Path 1845" d="M2401.352,537.452a.039.039,0,0,1-.013-.072.417.417,0,0,1,.508.047.039.039,0,0,1,.005.054.042.042,0,0,1-.054.006.658.658,0,0,0-.422-.04A.04.04,0,0,1,2401.352,537.452Z" transform="translate(-2401.318 -537.315)" fill="#060633"/>
          </g>
        </g>
        <g id="Group_815" data-name="Group 815" transform="translate(11.243 3.66)">
          <path id="Path_1846" data-name="Path 1846" d="M2404.759,545.523a.149.149,0,0,1-.093.183c-.065.011-.131-.054-.146-.145s.027-.173.093-.183S2404.744,545.432,2404.759,545.523Z" transform="translate(-2404.517 -545.377)" fill="#060633"/>
        </g>
        <g id="Group_817" data-name="Group 817" transform="translate(9.744 3.691)">
          <g id="Group_816" data-name="Group 816">
            <path id="Path_1847" data-name="Path 1847" d="M2372.074,546.247a.028.028,0,0,1-.027-.009.046.046,0,0,1-.008-.054.27.27,0,0,1,.376-.121.045.045,0,0,1,.023.049.028.028,0,0,1-.036.023.4.4,0,0,0-.312.1A.025.025,0,0,1,2372.074,546.247Z" transform="translate(-2372.034 -546.029)" fill="#060633"/>
          </g>
        </g>
        <g id="Group_818" data-name="Group 818" transform="translate(10.029 4.031)">
          <path id="Path_1848" data-name="Path 1848" d="M2378.445,553.5a.127.127,0,1,1-.19-.079A.149.149,0,0,1,2378.445,553.5Z" transform="translate(-2378.207 -553.408)" fill="#060633"/>
        </g>
        <g id="Group_821" data-name="Group 821" transform="translate(11.114 4.526)">
          <g id="Group_819" data-name="Group 819" transform="translate(0 0.091)">
            <path id="Path_1849" data-name="Path 1849" d="M2401.986,566.576a1.065,1.065,0,0,1-.233-.024.027.027,0,1,1,.013-.052.876.876,0,0,0,.961-.381.027.027,0,0,1,.047.027A.865.865,0,0,1,2401.986,566.576Z" transform="translate(-2401.732 -566.105)" fill="#020202"/>
          </g>
          <g id="Group_820" data-name="Group 820" transform="translate(0.898)">
            <path id="Path_1850" data-name="Path 1850" d="M2421.4,564.365a.026.026,0,0,1-.025-.018.3.3,0,0,0-.153-.153l-.008,0a.027.027,0,0,1,.03-.045l0,0a.359.359,0,0,1,.177.183.027.027,0,0,1-.017.034Z" transform="translate(-2421.2 -564.14)" fill="#020202"/>
          </g>
        </g>
        <g id="Group_822" data-name="Group 822" transform="translate(12.664 6.848)">
          <path id="Path_1851" data-name="Path 1851" d="M2435.315,616.477l0-.119a3.293,3.293,0,0,0,2.891-1.9l.11.045a3.392,3.392,0,0,1-3,1.969Z" transform="translate(-2435.312 -614.463)" fill="#66192d"/>
        </g>
        <g id="Group_823" data-name="Group 823" transform="translate(13.614 7.857)">
          <path id="Path_1852" data-name="Path 1852" d="M2455.966,638.359l-.063-.1a2.875,2.875,0,0,0,1.232-1.921l.118.013A3,3,0,0,1,2455.966,638.359Z" transform="translate(-2455.903 -636.337)" fill="#66192d"/>
        </g>
        <g id="Group_824" data-name="Group 824" transform="translate(8.724 10.426)">
          <rect id="Rectangle_358" data-name="Rectangle 358" width="1.382" height="0.119" transform="translate(0 1.312) rotate(-71.639)" fill="#66192d"/>
        </g>
        <g id="Group_825" data-name="Group 825" transform="translate(8.911 2.979)">
          <path id="Path_1853" data-name="Path 1853" d="M2355.115,533.049a.58.58,0,0,1-.079-.005,1.2,1.2,0,0,1-.792-.639,1.469,1.469,0,0,1-.034-1.646.515.515,0,0,1,.444-.146,1.2,1.2,0,0,1,.792.639,1.469,1.469,0,0,1,.034,1.646A.51.51,0,0,1,2355.115,533.049Zm-.539-2.361a.433.433,0,0,0-.31.128,1.39,1.39,0,0,0,.047,1.549,1.123,1.123,0,0,0,.734.6.438.438,0,0,0,.378-.123,1.39,1.39,0,0,0-.047-1.549h0a1.124,1.124,0,0,0-.734-.6A.509.509,0,0,0,2354.575,530.688Z" transform="translate(-2353.975 -530.608)" fill="#fff"/>
        </g>
        <g id="Group_826" data-name="Group 826" transform="translate(10.797 2.103)" opacity="0.3">
          <path id="Path_1854" data-name="Path 1854" d="M2396.385,512.284a1.374,1.374,0,0,1-.172,1.591c-.373.293-.9.056-1.179-.529a1.375,1.375,0,0,1,.172-1.591C2395.579,511.462,2396.107,511.7,2396.385,512.284Z" transform="translate(-2394.867 -511.629)" fill="#fff"/>
        </g>
        <g id="Group_827" data-name="Group 827" transform="translate(9.043 3.01)" opacity="0.3">
          <path id="Path_1855" data-name="Path 1855" d="M2358.207,531.942a1.47,1.47,0,0,1-.084,1.595c-.326.292-.816.052-1.095-.536a1.471,1.471,0,0,1,.084-1.595C2357.437,531.114,2357.927,531.354,2358.207,531.942Z" transform="translate(-2356.841 -531.282)" fill="#fff"/>
        </g>
        <g id="Group_828" data-name="Group 828" transform="translate(10.641 1.951)">
          <path id="Path_1856" data-name="Path 1856" d="M2392.557,510.885a.715.715,0,0,1-.164-.02,1.187,1.187,0,0,1-.744-.683,1.461,1.461,0,0,1,.2-1.712.655.655,0,0,1,.569-.122,1.187,1.187,0,0,1,.744.683h0a1.462,1.462,0,0,1-.2,1.712A.653.653,0,0,1,2392.557,510.885Zm-.3-2.476a.576.576,0,0,0-.357.125,1.38,1.38,0,0,0-.179,1.614,1.123,1.123,0,0,0,.69.64.578.578,0,0,0,.5-.108,1.38,1.38,0,0,0,.179-1.614h0a1.123,1.123,0,0,0-.69-.64A.627.627,0,0,0,2392.257,508.409Z" transform="translate(-2391.472 -508.329)" fill="#fff"/>
        </g>
        <g id="Group_829" data-name="Group 829" transform="translate(10.287 3.536)">
          <path id="Path_1857" data-name="Path 1857" d="M2383.877,543.056a.074.074,0,0,1-.059-.12.812.812,0,0,1,.615-.266.075.075,0,1,1,0,.149.665.665,0,0,0-.5.208A.075.075,0,0,1,2383.877,543.056Z" transform="translate(-2383.803 -542.67)" fill="#fff"/>
        </g>
      </g>
      <g id="Group_834" data-name="Group 834" transform="translate(0 9.261)">
        <g id="Group_831" data-name="Group 831" transform="translate(26.873 4.282)">
          <path id="Path_1858" data-name="Path 1858" d="M2257.637,777.794a.078.078,0,0,1-.061-.029c-.094-.12-.192-.239-.291-.355a.077.077,0,0,1,.117-.1c.1.117.2.238.3.36a.077.077,0,0,1-.013.108A.076.076,0,0,1,2257.637,777.794Z" transform="translate(-2257.266 -777.283)" fill="#ff8548"/>
        </g>
        <g id="Group_832" data-name="Group 832">
          <path id="Path_1859" data-name="Path 1859" d="M1691.568,723.688a.077.077,0,0,1,0-.154c.3,0,.609-.011.916-.024a.077.077,0,1,1,.006.154c-.309.013-.619.021-.921.024Zm-.919-.007h0c-.309-.008-.619-.021-.921-.039a.077.077,0,0,1,.01-.154c.3.018.608.032.915.039a.077.077,0,0,1,0,.154Zm2.754-.07a.077.077,0,0,1-.005-.154c.3-.022.608-.049.913-.08a.077.077,0,1,1,.016.153c-.306.031-.615.058-.917.08Zm-4.588-.043h-.008c-.308-.031-.616-.068-.915-.111a.077.077,0,0,1,.022-.153c.3.042.6.079.909.11a.077.077,0,0,1-.008.154Zm6.416-.143a.077.077,0,0,1-.01-.153c.3-.039.6-.083.908-.13a.077.077,0,0,1,.024.152c-.3.048-.611.092-.911.131Zm-8.235-.117h-.014c-.3-.057-.608-.121-.9-.191a.077.077,0,1,1,.036-.15c.292.069.594.133.9.189a.077.077,0,0,1-.014.153Zm10.05-.167a.077.077,0,0,1-.014-.153c.3-.054.6-.113.9-.176a.077.077,0,1,1,.031.151c-.3.063-.6.122-.9.176Zm-11.838-.256a.072.072,0,0,1-.021,0c-.3-.086-.593-.179-.88-.279a.077.077,0,1,1,.05-.146c.284.1.578.191.872.276a.077.077,0,0,1-.021.151Zm13.637-.117a.077.077,0,0,1-.017-.152c.3-.068.6-.142.891-.217a.077.077,0,1,1,.038.149c-.3.076-.6.15-.894.218Zm1.78-.456a.077.077,0,0,1-.021-.151c.294-.082.59-.169.881-.257a.077.077,0,0,1,.045.148c-.292.089-.589.176-.884.258Zm-17.153-.027a.079.079,0,0,1-.029-.006c-.285-.116-.569-.242-.844-.373a.077.077,0,0,1,.066-.139c.272.13.554.254.836.369a.077.077,0,0,1-.029.148Zm18.911-.508a.077.077,0,0,1-.024-.15c.294-.1.586-.2.868-.3a.077.077,0,0,1,.052.145c-.283.1-.576.2-.871.3A.075.075,0,0,1,1702.385,721.776Zm-20.569-.281a.075.075,0,0,1-.037-.01c-.27-.148-.537-.306-.8-.469a.077.077,0,1,1,.082-.13c.256.161.521.317.787.464a.077.077,0,0,1-.037.145Zm-1.553-.979a.077.077,0,0,1-.045-.015c-.248-.179-.495-.368-.732-.562a.077.077,0,1,1,.1-.119c.235.192.479.379.725.556a.077.077,0,0,1-.045.14Zm-1.422-1.161a.077.077,0,0,1-.052-.02l-.172-.162c-.167-.159-.331-.322-.486-.485a.077.077,0,0,1,.111-.107c.154.161.316.322.481.48l.171.16a.077.077,0,0,1-.052.134Zm-1.27-1.326a.077.077,0,0,1-.059-.027c-.2-.238-.392-.482-.57-.727a.077.077,0,1,1,.124-.091c.176.242.365.484.563.719a.077.077,0,0,1-.059.127Zm-1.078-1.485a.077.077,0,0,1-.066-.037c-.163-.264-.315-.535-.453-.806a.077.077,0,0,1,.137-.07c.136.267.286.535.446.8a.077.077,0,0,1-.066.118Zm-.83-1.636a.077.077,0,0,1-.072-.048c-.115-.287-.219-.581-.307-.873a.077.077,0,0,1,.148-.045c.087.288.188.577.3.86a.077.077,0,0,1-.071.106Zm-.528-1.757a.077.077,0,0,1-.075-.062c-.061-.3-.108-.61-.139-.915a.077.077,0,0,1,.153-.016c.031.3.077.6.137.9a.077.077,0,0,1-.06.091Zm-.189-1.824a.077.077,0,0,1-.077-.076c0-.027,0-.054,0-.082,0-.279.012-.563.036-.843a.077.077,0,0,1,.154.013c-.024.275-.036.554-.036.83q0,.04,0,.08a.077.077,0,0,1-.076.078Zm.157-1.827h-.014a.077.077,0,0,1-.062-.09c.054-.3.123-.6.205-.9a.077.077,0,1,1,.149.041c-.081.293-.149.592-.2.889A.077.077,0,0,1,1675.1,709.5Zm6.511,0a5.175,5.175,0,0,1-.635-.04.077.077,0,0,1,.019-.153,4.952,4.952,0,0,0,.9.03.077.077,0,0,1,.009.154C1681.812,709.491,1681.713,709.494,1681.614,709.494Zm1.2-.152a.077.077,0,0,1-.02-.152,4.011,4.011,0,0,0,.839-.324.077.077,0,1,1,.072.136,4.17,4.17,0,0,1-.871.337Zm-2.719-.079a.076.076,0,0,1-.023,0,5.619,5.619,0,0,1-.864-.346.077.077,0,0,1,.069-.138,5.459,5.459,0,0,0,.84.336.077.077,0,0,1-.022.151Zm4.324-.778a.077.077,0,0,1-.052-.134,2.986,2.986,0,0,0,.559-.695.077.077,0,1,1,.133.077,3.136,3.136,0,0,1-.587.731A.077.077,0,0,1,1684.416,708.485Zm-5.961-.038a.077.077,0,0,1-.045-.015,6.265,6.265,0,0,1-.712-.6.077.077,0,0,1,.108-.11,6.1,6.1,0,0,0,.694.582.077.077,0,0,1-.045.14Zm-2.866-.718a.075.075,0,0,1-.027,0,.077.077,0,0,1-.045-.1c.107-.287.228-.574.36-.852a.077.077,0,0,1,.139.066c-.13.274-.25.557-.355.84A.077.077,0,0,1,1675.589,707.729Zm1.552-.556a.077.077,0,0,1-.061-.03,7.437,7.437,0,0,1-.521-.767.077.077,0,0,1,.133-.079,7.271,7.271,0,0,0,.51.751.077.077,0,0,1-.061.124Zm8.177-.254-.016,0a.077.077,0,0,1-.059-.092,3.164,3.164,0,0,0,.071-.673c0-.072,0-.145-.007-.218a.077.077,0,0,1,.154-.01c0,.076.007.152.007.228a3.312,3.312,0,0,1-.075.706A.077.077,0,0,1,1685.318,706.92Zm-8.942-.848a.075.075,0,0,1-.039-.011.077.077,0,0,1-.027-.105c.156-.266.325-.527.5-.777a.077.077,0,1,1,.125.089c-.175.245-.342.5-.5.765A.077.077,0,0,1,1676.377,706.072Zm-.173-.472a.077.077,0,0,1-.07-.045c-.124-.274-.237-.564-.337-.862a.077.077,0,0,1,.146-.049c.1.293.21.578.332.848a.077.077,0,0,1-.07.109Zm9.019-.5a.077.077,0,0,1-.074-.056c-.009-.031-.018-.062-.028-.094a6.511,6.511,0,0,0-.287-.755.077.077,0,1,1,.14-.064,6.587,6.587,0,0,1,.294.774c.01.032.02.065.029.1a.077.077,0,0,1-.074.1Zm-7.78-.527a.076.076,0,0,1-.05-.019.077.077,0,0,1-.008-.109c.2-.237.418-.463.637-.672a.077.077,0,1,1,.107.111c-.216.206-.426.429-.626.661A.077.077,0,0,1,1677.442,704.578Zm-1.827-.714a.077.077,0,0,1-.075-.059c-.071-.291-.132-.6-.183-.905a.077.077,0,1,1,.152-.025c.05.305.111.606.18.894a.077.077,0,0,1-.057.093Zm8.832-.415a.077.077,0,0,1-.063-.032,3.5,3.5,0,0,0-.606-.66.077.077,0,1,1,.1-.118,3.65,3.65,0,0,1,.633.688.077.077,0,0,1-.062.122Zm-5.677-.136a.077.077,0,0,1-.047-.138,7.4,7.4,0,0,1,.77-.518.077.077,0,0,1,.078.133,7.2,7.2,0,0,0-.754.507A.077.077,0,0,1,1678.771,703.313Zm1.587-.914a.077.077,0,0,1-.028-.149,4.753,4.753,0,0,1,.9-.256.077.077,0,1,1,.027.152,4.6,4.6,0,0,0-.867.248A.076.076,0,0,1,1680.358,702.4Zm2.686-.095a.078.078,0,0,1-.029-.006,2.919,2.919,0,0,0-.868-.2.077.077,0,1,1,.012-.154,3.073,3.073,0,0,1,.914.212.077.077,0,0,1-.029.149Zm-7.727-.25a.077.077,0,0,1-.077-.07c-.028-.3-.049-.608-.06-.921a.077.077,0,1,1,.154-.005c.011.309.031.616.059.911a.077.077,0,0,1-.069.084Zm-.069-1.834h0a.077.077,0,0,1-.076-.078c0-.3.017-.61.036-.921a.077.077,0,0,1,.154.01c-.019.309-.031.617-.036.914A.077.077,0,0,1,1675.248,700.22Zm.114-1.833h-.008a.077.077,0,0,1-.068-.085c.033-.307.074-.615.122-.914a.077.077,0,1,1,.152.024c-.047.3-.088.6-.12.906A.077.077,0,0,1,1675.362,698.387Zm.29-1.812-.016,0a.077.077,0,0,1-.059-.092c.065-.3.139-.6.22-.9a.077.077,0,1,1,.149.041c-.08.29-.154.588-.218.887A.077.077,0,0,1,1675.652,696.574Zm.489-1.768a.077.077,0,0,1-.073-.1c.1-.291.208-.582.324-.864a.077.077,0,1,1,.142.059c-.115.279-.223.567-.321.855A.077.077,0,0,1,1676.141,694.806Zm.7-1.7a.077.077,0,0,1-.069-.111c.134-.276.279-.551.43-.817a.077.077,0,0,1,.134.076c-.149.263-.292.534-.425.808A.077.077,0,0,1,1676.839,693.109Zm.906-1.6a.076.076,0,0,1-.042-.013.077.077,0,0,1-.022-.107c.168-.256.347-.51.532-.754a.077.077,0,1,1,.123.093c-.182.242-.359.493-.526.746A.077.077,0,0,1,1677.745,691.514Zm1.105-1.464a.077.077,0,0,1-.058-.127c.2-.232.41-.46.625-.679a.077.077,0,0,1,.11.108c-.213.217-.421.443-.618.672A.077.077,0,0,1,1678.85,690.05Zm1.285-1.31a.077.077,0,0,1-.052-.134c.227-.2.464-.4.7-.594a.077.077,0,0,1,.1.121c-.238.189-.473.386-.7.588A.077.077,0,0,1,1680.135,688.74Zm21.054-.489a.077.077,0,0,1-.054-.022c-.215-.209-.444-.414-.68-.607a.077.077,0,1,1,.1-.119c.239.2.471.4.69.616a.077.077,0,0,1,0,.109A.076.076,0,0,1,1701.189,688.25Zm-19.616-.648a.077.077,0,0,1-.044-.14c.25-.174.51-.344.772-.5a.077.077,0,1,1,.08.131c-.259.159-.517.327-.764.5A.076.076,0,0,1,1681.573,687.6Zm18.2-.516a.076.076,0,0,1-.044-.014c-.246-.171-.505-.336-.769-.49a.077.077,0,0,1,.078-.133c.267.156.529.324.779.5a.077.077,0,0,1-.044.141Zm-16.634-.442a.077.077,0,0,1-.036-.145c.269-.144.546-.282.825-.411a.077.077,0,1,1,.065.14c-.277.128-.552.265-.818.408A.079.079,0,0,1,1683.138,686.645Zm15.052-.487a.076.076,0,0,1-.034-.008c-.269-.133-.549-.259-.832-.375a.077.077,0,0,1,.058-.143c.286.117.569.245.842.379a.077.077,0,0,1-.034.146Zm-13.387-.286a.077.077,0,0,1-.029-.149c.283-.113.575-.22.866-.318a.077.077,0,1,1,.049.146c-.288.1-.577.2-.858.315A.078.078,0,0,1,1684.8,685.872Zm11.691-.412a.079.079,0,0,1-.025,0c-.285-.1-.579-.185-.874-.265a.077.077,0,0,1,.04-.149c.3.081.595.17.883.267a.077.077,0,0,1-.025.15Zm-9.951-.174a.077.077,0,0,1-.021-.151c.294-.082.595-.157.895-.224a.077.077,0,0,1,.033.151c-.3.066-.6.141-.887.222Zm8.18-.3-.016,0c-.3-.061-.6-.115-.9-.16a.077.077,0,1,1,.023-.152c.3.045.61.1.908.162a.077.077,0,0,1-.016.152Zm-6.389-.1a.077.077,0,0,1-.013-.153c.3-.051.609-.095.912-.13a.077.077,0,1,1,.018.153c-.3.035-.606.079-.9.129Zm4.573-.176h-.007c-.3-.028-.608-.048-.912-.06a.077.077,0,0,1,.006-.154c.307.012.617.033.92.061a.077.077,0,0,1-.007.154Zm-2.751-.037a.077.077,0,0,1-.005-.154c.306-.02.615-.032.921-.036h0a.077.077,0,0,1,0,.154c-.3,0-.61.016-.913.036Z" transform="translate(-1674.869 -684.483)" fill="#ff8548"/>
        </g>
        <g id="Group_833" data-name="Group 833" transform="translate(29.205 36.329)">
          <path id="Path_1860" data-name="Path 1860" d="M2307.887,1472.154a.077.077,0,0,1-.029-.149c.274-.108.424-.173.426-.174a.077.077,0,1,1,.061.141s-.154.067-.43.176A.081.081,0,0,1,2307.887,1472.154Z" transform="translate(-2307.81 -1471.825)" fill="#ff8548"/>
        </g>
      </g>
      <g id="Group_838" data-name="Group 838" transform="translate(29.369 7.013)">
        <g id="Group_835" data-name="Group 835" transform="translate(0 6.404)">
          <path id="Path_1861" data-name="Path 1861" d="M2400.139,757.432l-.017,0a.077.077,0,0,1-.058-.092c.034-.151.075-.3.124-.452a.077.077,0,0,1,.147.047c-.047.145-.087.293-.12.439A.078.078,0,0,1,2400.139,757.432Z" transform="translate(-2400.062 -756.832)" fill="#66192d"/>
        </g>
        <g id="Group_836" data-name="Group 836" transform="translate(0.473)">
          <path id="Path_1862" data-name="Path 1862" d="M2430.616,646.794a.077.077,0,0,1-.027-.149,6.665,6.665,0,0,0,.82-.379.077.077,0,0,1,.074.135,6.815,6.815,0,0,1-.839.388A.08.08,0,0,1,2430.616,646.794Zm1.6-.87a.077.077,0,0,1-.045-.14,7.409,7.409,0,0,0,.7-.571.077.077,0,0,1,.1.113,7.573,7.573,0,0,1-.716.583A.076.076,0,0,1,2432.219,645.925Zm1.34-1.237a.076.076,0,0,1-.05-.018.077.077,0,0,1-.009-.109,6.9,6.9,0,0,0,.535-.727.077.077,0,0,1,.13.083,7.167,7.167,0,0,1-.548.743A.077.077,0,0,1,2433.56,644.688Zm.981-1.536a.077.077,0,0,1-.07-.11,6.7,6.7,0,0,0,.324-.842.077.077,0,0,1,.147.046,6.953,6.953,0,0,1-.332.862A.077.077,0,0,1,2434.541,643.153Zm.541-1.739h-.013a.077.077,0,0,1-.063-.089,7.594,7.594,0,0,0,.1-.9.077.077,0,1,1,.154.008,7.649,7.649,0,0,1-.1.917A.077.077,0,0,1,2435.082,641.413Zm.1-1.82a.077.077,0,0,1-.077-.073c-.017-.294-.05-.6-.1-.9a.077.077,0,0,1,.152-.024c.049.309.082.617.1.916a.077.077,0,0,1-.072.081Zm-.28-1.8a.077.077,0,0,1-.075-.059c-.07-.286-.155-.58-.25-.873a.077.077,0,0,1,.147-.048c.1.3.182.594.253.884a.077.077,0,0,1-.056.093Zm-.553-1.741a.077.077,0,0,1-.073-.053,8.787,8.787,0,0,1-.241-.89.077.077,0,0,1,.151-.032,8.613,8.613,0,0,0,.236.874.077.077,0,0,1-.073.1Zm-.381-1.784a.077.077,0,0,1-.076-.069,7.92,7.92,0,0,1-.04-.793c0-.043,0-.086,0-.129a.077.077,0,0,1,.077-.076h0a.077.077,0,0,1,.076.078c0,.042,0,.084,0,.126,0,.258.013.519.039.777a.077.077,0,0,1-.069.084Zm.031-1.823h-.01a.077.077,0,0,1-.066-.087,7.813,7.813,0,0,1,.178-.905.077.077,0,1,1,.149.039,7.666,7.666,0,0,0-.174.887A.077.077,0,0,1,2433.994,632.441Zm6.388-.118a.077.077,0,0,1,0-.154,7.125,7.125,0,0,0,.9-.072.077.077,0,0,1,.022.152,7.245,7.245,0,0,1-.92.073Zm-.913-.037h-.008a8.791,8.791,0,0,1-.911-.137.077.077,0,0,1,.031-.151,8.666,8.666,0,0,0,.9.135.077.077,0,0,1-.007.154Zm2.714-.234a.077.077,0,0,1-.022-.151,4.5,4.5,0,0,0,.828-.344.077.077,0,0,1,.074.135,4.648,4.648,0,0,1-.857.356A.076.076,0,0,1,2442.185,632.052Zm-4.5-.13a.078.078,0,0,1-.023,0c-.292-.091-.583-.2-.865-.317a.077.077,0,0,1,.06-.142c.278.118.564.222.851.312a.077.077,0,0,1-.023.151Zm-1.681-.711a.077.077,0,0,1-.037-.009c-.269-.146-.533-.306-.787-.478a.077.077,0,0,1,.086-.128c.25.168.51.326.775.47a.077.077,0,0,1-.037.145Zm7.761-.048a.077.077,0,0,1-.054-.132,2.164,2.164,0,0,0,.489-.726.077.077,0,1,1,.143.057,2.308,2.308,0,0,1-.523.778A.078.078,0,0,1,2443.761,631.163Zm-9.31-.487a.077.077,0,0,1-.072-.105,7.937,7.937,0,0,1,.385-.838.077.077,0,0,1,.136.072,7.746,7.746,0,0,0-.377.822A.077.077,0,0,1,2434.451,630.676Zm.036-.484a.076.076,0,0,1-.049-.018c-.235-.193-.465-.4-.683-.617a.077.077,0,0,1,.109-.109c.214.213.441.417.672.608a.077.077,0,0,1-.049.137Zm9.917-.675a.077.077,0,0,1-.077-.072,2.618,2.618,0,0,0-.22-.856.077.077,0,1,1,.141-.061,2.775,2.775,0,0,1,.232.906.077.077,0,0,1-.072.082Zm-9.1-.451a.076.076,0,0,1-.044-.014.077.077,0,0,1-.02-.107,7.96,7.96,0,0,1,.568-.727.077.077,0,0,1,.116.1,7.787,7.787,0,0,0-.557.713A.076.076,0,0,1,2435.307,629.065Zm-2.116-.158a.077.077,0,0,1-.059-.027c-.2-.232-.384-.477-.561-.729a.077.077,0,0,1,.126-.089c.174.248.36.49.552.719a.077.077,0,0,1-.059.127Zm10.53-1.061a.077.077,0,0,1-.062-.032,4.713,4.713,0,0,0-.59-.677.077.077,0,0,1,.106-.112,4.861,4.861,0,0,1,.609.7.077.077,0,0,1-.062.122Zm-7.208-.149a.077.077,0,0,1-.052-.135,7.4,7.4,0,0,1,.726-.571.077.077,0,0,1,.087.127,7.211,7.211,0,0,0-.71.559A.077.077,0,0,1,2436.513,627.7Zm-4.371-.283a.078.078,0,0,1-.067-.038c-.152-.261-.3-.534-.432-.811a.077.077,0,1,1,.139-.067c.133.274.276.544.427.8a.077.077,0,0,1-.028.105A.076.076,0,0,1,2432.142,627.414Zm5.875-.748a.077.077,0,0,1-.035-.146,6.068,6.068,0,0,1,.855-.352.077.077,0,0,1,.048.147,5.9,5.9,0,0,0-.833.343A.078.078,0,0,1,2438.016,626.666Zm4.377-.057a.077.077,0,0,1-.039-.011,3.783,3.783,0,0,0-.818-.359.077.077,0,0,1,.045-.147,3.929,3.929,0,0,1,.852.374.077.077,0,0,1-.039.143Zm-2.644-.5a.077.077,0,0,1-.01-.153,4.6,4.6,0,0,1,.927-.034.077.077,0,1,1-.01.154,4.429,4.429,0,0,0-.9.033Zm-8.4-.341a.077.077,0,0,1-.072-.049c-.111-.28-.215-.571-.309-.865a.077.077,0,1,1,.147-.047c.093.291.2.578.306.855a.077.077,0,0,1-.043.1A.078.078,0,0,1,2431.345,625.772Zm-.6-1.726a.077.077,0,0,1-.072-.05c-.108-.286-.229-.565-.359-.832a.077.077,0,0,1,.139-.068c.132.271.255.555.364.845a.077.077,0,0,1-.072.1Zm-20.347-.3a.075.075,0,0,1-.035-.009.077.077,0,0,1-.033-.1,6.724,6.724,0,0,1,.479-.789.077.077,0,1,1,.126.089,6.542,6.542,0,0,0-.469.771A.076.076,0,0,1,2410.4,623.747Zm19.546-1.34a.077.077,0,0,1-.066-.037,8.574,8.574,0,0,0-.515-.744.077.077,0,0,1,.122-.094,8.792,8.792,0,0,1,.525.757.077.077,0,0,1-.025.106A.078.078,0,0,1,2429.947,622.407Zm-18.5-.154a.077.077,0,0,1-.057-.129,9.152,9.152,0,0,1,.65-.653.077.077,0,1,1,.1.114,9,9,0,0,0-.639.642A.077.077,0,0,1,2411.444,622.253Zm1.348-1.231a.077.077,0,0,1-.047-.138c.239-.182.492-.359.753-.528a.077.077,0,0,1,.084.13c-.258.167-.508.342-.744.521A.076.076,0,0,1,2412.792,621.022Zm16.036-.055a.076.076,0,0,1-.055-.023,8.265,8.265,0,0,0-.664-.614.077.077,0,0,1,.1-.119,8.333,8.333,0,0,1,.677.626.077.077,0,0,1-.055.131Zm-14.5-.937a.077.077,0,0,1-.037-.145c.265-.145.541-.285.82-.416a.077.077,0,0,1,.065.14c-.276.129-.549.267-.811.411A.076.076,0,0,1,2414.326,620.03Zm13.1-.226a.077.077,0,0,1-.042-.013,8.786,8.786,0,0,0-.781-.458.077.077,0,1,1,.071-.137,8.877,8.877,0,0,1,.794.466.077.077,0,0,1-.042.141Zm-11.443-.548a.077.077,0,0,1-.028-.149c.282-.111.573-.216.865-.311a.077.077,0,0,1,.048.146c-.288.094-.576.2-.855.308A.079.079,0,0,1,2415.981,619.255Zm9.825-.294a.076.076,0,0,1-.029-.006c-.276-.111-.564-.211-.856-.3a.077.077,0,1,1,.044-.148c.3.089.59.19.87.3a.077.077,0,0,1-.029.149Zm-8.089-.274a.077.077,0,0,1-.019-.152c.3-.078.6-.148.895-.208a.077.077,0,0,1,.03.151c-.3.059-.594.129-.886.206Zm6.34-.25-.016,0c-.292-.061-.593-.111-.9-.15a.077.077,0,0,1,.02-.153c.307.039.612.09.907.152a.077.077,0,0,1-.015.153Zm-4.548-.11a.077.077,0,0,1-.011-.153c.3-.043.611-.076.914-.1a.077.077,0,0,1,.012.154c-.3.023-.6.057-.9.1Zm2.736-.123h0c-.3-.016-.6-.022-.908-.018a.077.077,0,1,1,0-.154c.308,0,.617,0,.919.019a.077.077,0,0,1,0,.154Z" transform="translate(-2410.323 -618.031)" fill="#66192d"/>
        </g>
        <g id="Group_837" data-name="Group 837" transform="translate(19.334 28.861)">
          <path id="Path_1863" data-name="Path 1863" d="M2819.15,1243.727a.077.077,0,1,1,0-.154,2.679,2.679,0,0,0,.447-.042.077.077,0,1,1,.026.152A2.831,2.831,0,0,1,2819.15,1243.727Z" transform="translate(-2819.073 -1243.53)" fill="#66192d"/>
        </g>
      </g>
      <g id="Group_842" data-name="Group 842" transform="translate(34.435 13.047)">
        <g id="Group_839" data-name="Group 839">
          <path id="Path_1864" data-name="Path 1864" d="M2510.41,791.935h-.006c-.152-.011-.307-.02-.46-.029a.077.077,0,0,1-.073-.081.078.078,0,0,1,.082-.073c.154.009.31.018.462.029a.077.077,0,0,1-.005.154Z" transform="translate(-2509.871 -791.752)" fill="#786ab5"/>
        </g>
        <g id="Group_840" data-name="Group 840" transform="translate(1.385 0.108)">
          <path id="Path_1865" data-name="Path 1865" d="M2553.61,838.208l-.194,0a.077.077,0,0,1,0-.154h0c.308.005.616,0,.919-.022a.077.077,0,1,1,.01.154C2554.1,838.2,2553.856,838.208,2553.61,838.208Zm-1.117-.054h-.008c-.306-.03-.616-.072-.923-.126a.077.077,0,1,1,.027-.152c.3.053.61.095.912.124a.077.077,0,0,1-.007.154Zm2.77-.068a.077.077,0,0,1-.011-.153c.3-.045.606-.1.9-.175a.077.077,0,1,1,.036.15c-.3.072-.609.131-.915.177Zm-4.6-.24-.018,0c-.3-.07-.606-.148-.9-.233a.077.077,0,0,1,.043-.148c.291.084.592.162.892.231a.077.077,0,0,1-.017.152Zm6.395-.188a.077.077,0,0,1-.024-.15c.29-.1.579-.2.86-.324a.077.077,0,0,1,.061.142c-.285.121-.579.232-.873.329A.078.078,0,0,1,2557.063,837.657Zm-8.173-.326a.079.079,0,0,1-.026,0c-.292-.1-.584-.215-.868-.334a.077.077,0,0,1,.06-.142c.281.118.57.229.86.331a.077.077,0,0,1-.026.15Zm9.875-.4a.077.077,0,0,1-.036-.145c.27-.142.537-.3.8-.462a.077.077,0,0,1,.083.13c-.262.167-.533.324-.806.468A.075.075,0,0,1,2558.765,836.933Zm-11.582-.318a.078.078,0,0,1-.034-.008c-.278-.137-.554-.283-.822-.436a.077.077,0,1,1,.076-.134c.265.151.539.3.814.431a.077.077,0,0,1-.034.146Zm13.143-.674a.077.077,0,0,1-.046-.139c.243-.183.482-.379.711-.582a.077.077,0,1,1,.1.115c-.232.206-.475.4-.721.59A.077.077,0,0,1,2560.326,835.941Zm-14.752-.241a.077.077,0,0,1-.042-.013c-.258-.169-.515-.348-.763-.533a.077.077,0,1,1,.092-.124c.246.183.5.36.756.527a.077.077,0,0,1-.042.142Zm16.136-.985a.077.077,0,0,1-.055-.131c.212-.22.418-.45.613-.686a.077.077,0,0,1,.119.1c-.2.239-.406.472-.621.695A.077.077,0,0,1,2561.711,834.714Zm-17.622-.12a.077.077,0,0,1-.05-.018c-.236-.2-.469-.408-.694-.621a.077.077,0,0,1,.106-.112c.222.211.453.418.687.615a.077.077,0,0,1-.05.136Zm-1.342-1.276a.077.077,0,0,1-.056-.024c-.21-.225-.417-.46-.616-.7a.077.077,0,1,1,.118-.1c.2.236.4.469.61.692a.077.077,0,0,1-.056.13Zm20.142-.031a.077.077,0,0,1-.063-.121c.176-.251.344-.511.5-.773a.077.077,0,0,1,.133.078c-.157.265-.327.529-.506.783A.077.077,0,0,1,2562.889,833.287Zm-21.327-1.393a.078.078,0,0,1-.062-.031c-.184-.249-.363-.506-.532-.764a.077.077,0,0,1,.129-.084c.168.256.345.511.527.757a.077.077,0,0,1-.016.108A.075.075,0,0,1,2541.562,831.894Zm22.268-.2a.077.077,0,0,1-.069-.111c.135-.277.259-.56.368-.843a.077.077,0,1,1,.144.056c-.111.287-.237.574-.373.855A.078.078,0,0,1,2563.83,831.693Zm-23.283-1.349a.077.077,0,0,1-.067-.039c-.156-.272-.3-.548-.441-.821a.077.077,0,0,1,.138-.069c.135.27.281.544.436.813a.077.077,0,0,1-.028.105A.076.076,0,0,1,2540.547,830.344Zm23.951-.377a.077.077,0,0,1-.074-.1c.086-.3.158-.6.215-.893a.077.077,0,1,1,.151.029c-.058.3-.131.607-.218.907A.077.077,0,0,1,2564.5,829.967Zm.346-1.817h-.007a.077.077,0,0,1-.07-.084c.024-.262.036-.526.036-.784,0-.044,0-.089,0-.133a.077.077,0,0,1,.076-.078h0a.077.077,0,0,1,.077.076c0,.045,0,.09,0,.136,0,.262-.012.531-.036.8A.077.077,0,0,1,2564.844,828.15Zm-.032-1.848a.077.077,0,0,1-.076-.067,7.638,7.638,0,0,0-.173-.9.077.077,0,1,1,.149-.038,7.789,7.789,0,0,1,.177.918.077.077,0,0,1-.067.086Zm-.46-1.79a.077.077,0,0,1-.072-.049,7.019,7.019,0,0,0-.393-.827.077.077,0,0,1,.135-.075,7.2,7.2,0,0,1,.4.845.077.077,0,0,1-.072.105Zm-5.915-.829a2.014,2.014,0,0,1-.667-.108.077.077,0,1,1,.051-.146,2,2,0,0,0,.88.084.077.077,0,1,1,.017.153A2.554,2.554,0,0,1,2558.436,823.682Zm1.166-.247a.077.077,0,0,1-.028-.149,5.713,5.713,0,0,0,.818-.406.077.077,0,0,1,.079.133,5.886,5.886,0,0,1-.84.417A.08.08,0,0,1,2559.6,823.436Zm-2.548-.391a.077.077,0,0,1-.061-.03,1.938,1.938,0,0,1-.369-.881.077.077,0,1,1,.152-.024,1.787,1.787,0,0,0,.339.811.077.077,0,0,1-.014.108A.076.076,0,0,1,2557.054,823.045Zm6.4-.147a.077.077,0,0,1-.062-.031,7.355,7.355,0,0,0-.591-.7.077.077,0,1,1,.111-.107,7.518,7.518,0,0,1,.6.714.077.077,0,0,1-.016.108A.076.076,0,0,1,2563.452,822.9Zm-2.252-.39a.077.077,0,0,1-.046-.138,4.2,4.2,0,0,0,.658-.625.077.077,0,0,1,.117.1,4.385,4.385,0,0,1-.683.647A.077.077,0,0,1,2561.2,822.508Zm.974-.945a.077.077,0,0,1-.049-.018l-.084-.068c-.219-.176-.438-.339-.65-.486a.077.077,0,1,1,.088-.127c.215.149.437.314.659.492l.086.069a.077.077,0,0,1-.049.137Zm-5.417-.281a.077.077,0,0,1-.074-.1,2.007,2.007,0,0,1,.469-.831.077.077,0,1,1,.112.106,1.852,1.852,0,0,0-.432.767A.077.077,0,0,1,2556.757,821.282Zm5.643-.168a.076.076,0,0,1-.038-.01.077.077,0,0,1-.029-.105,5.981,5.981,0,0,0,.39-.826.077.077,0,0,1,.144.055,6.173,6.173,0,0,1-.4.848A.077.077,0,0,1,2562.4,821.114Zm-1.752-.6a.077.077,0,0,1-.037-.009,5.866,5.866,0,0,0-.832-.377.077.077,0,1,1,.052-.145,6.042,6.042,0,0,1,.854.387.077.077,0,0,1-.037.145Zm-2.659-.512a.077.077,0,0,1-.022-.151,2.44,2.44,0,0,1,.947-.082.077.077,0,0,1-.015.153,2.29,2.29,0,0,0-.887.076A.074.074,0,0,1,2557.989,820.005Zm5.083-.612-.019,0a.077.077,0,0,1-.056-.093,8.992,8.992,0,0,0,.174-.9.077.077,0,1,1,.153.022,9.163,9.163,0,0,1-.177.917A.077.077,0,0,1,2563.071,819.393Zm.264-1.831h0a.077.077,0,0,1-.073-.081c.012-.217.018-.442.018-.667q0-.126,0-.253a.077.077,0,0,1,.076-.079.076.076,0,0,1,.078.076c0,.086,0,.172,0,.256,0,.228-.006.455-.018.675A.077.077,0,0,1,2563.335,817.562Zm-.033-1.851a.077.077,0,0,1-.077-.071c-.025-.3-.061-.608-.1-.916a.077.077,0,1,1,.152-.022c.045.311.08.622.106.925a.077.077,0,0,1-.071.083Zm-.261-1.834a.077.077,0,0,1-.076-.062c-.059-.3-.126-.6-.2-.9a.077.077,0,0,1,.15-.037c.075.3.144.609.2.908a.077.077,0,0,1-.061.091Zm-.447-1.8a.077.077,0,0,1-.074-.055c-.087-.292-.182-.587-.283-.879a.077.077,0,1,1,.146-.05c.1.294.2.592.285.885a.077.077,0,0,1-.074.1Zm-.605-1.751a.077.077,0,0,1-.072-.049c-.111-.283-.231-.57-.355-.853a.077.077,0,0,1,.141-.062c.125.284.245.573.357.858a.077.077,0,0,1-.043.1A.08.08,0,0,1,2561.988,810.328Zm-.746-1.7a.077.077,0,0,1-.07-.043c-.134-.275-.275-.551-.42-.822a.077.077,0,0,1,.136-.073c.146.273.289.551.423.828a.077.077,0,0,1-.035.1A.076.076,0,0,1,2561.242,808.632Zm-.874-1.634a.078.078,0,0,1-.067-.038c-.154-.264-.316-.529-.48-.789a.077.077,0,0,1,.13-.083c.166.261.328.528.483.794a.077.077,0,0,1-.066.116Zm-.992-1.565a.077.077,0,0,1-.064-.034c-.173-.253-.354-.505-.536-.752a.077.077,0,1,1,.124-.092c.184.248.365.5.54.756a.077.077,0,0,1-.02.107A.076.076,0,0,1,2559.376,805.433Zm-1.1-1.488a.077.077,0,0,1-.06-.029c-.191-.239-.389-.478-.589-.711a.077.077,0,0,1,.117-.1c.2.234.4.475.593.716a.077.077,0,0,1-.012.108A.078.078,0,0,1,2558.272,803.945Zm-1.207-1.405a.077.077,0,0,1-.057-.025c-.208-.225-.423-.45-.639-.667a.077.077,0,1,1,.109-.109c.217.218.433.444.643.671a.077.077,0,0,1-.056.129Zm-1.305-1.314a.077.077,0,0,1-.053-.021c-.224-.209-.454-.418-.685-.619a.077.077,0,1,1,.1-.116c.232.2.465.412.689.623a.077.077,0,0,1-.053.133Zm-1.4-1.217a.077.077,0,0,1-.048-.017c-.238-.193-.483-.384-.728-.568a.077.077,0,0,1,.093-.123c.246.185.493.378.732.572a.077.077,0,0,1-.049.137Zm-1.48-1.113a.077.077,0,0,1-.044-.014c-.251-.175-.509-.348-.767-.514a.077.077,0,0,1,.083-.13c.259.167.519.341.771.517a.077.077,0,0,1-.044.14Zm-1.557-1a.077.077,0,0,1-.04-.011c-.263-.156-.533-.31-.8-.457a.077.077,0,0,1,.074-.135c.271.148.542.3.807.46a.077.077,0,0,1-.04.143ZM2549.7,797a.076.076,0,0,1-.034-.008c-.273-.137-.553-.271-.833-.4a.077.077,0,1,1,.064-.14c.281.129.563.264.838.4a.077.077,0,0,1-.035.146Zm-1.684-.771a.075.075,0,0,1-.03-.006c-.282-.117-.571-.232-.858-.339a.077.077,0,1,1,.054-.144c.289.108.58.223.864.341a.077.077,0,0,1-.03.148Zm-1.733-.651a.075.075,0,0,1-.025,0c-.29-.1-.585-.191-.88-.279a.077.077,0,1,1,.044-.148c.3.089.594.183.885.281a.077.077,0,0,1-.024.15Zm-1.774-.531-.02,0c-.3-.078-.6-.152-.9-.22a.077.077,0,0,1,.034-.15c.3.069.6.143.9.221a.077.077,0,0,1-.02.152Zm-1.805-.412h-.015c-.3-.058-.6-.113-.909-.162a.077.077,0,1,1,.025-.152c.305.049.613.1.914.163a.077.077,0,0,1-.014.153Zm-1.828-.3h-.01c-.3-.039-.611-.075-.918-.105a.077.077,0,1,1,.015-.153c.308.031.618.066.922.106a.077.077,0,0,1-.01.153Z" transform="translate(-2539.88 -794.084)" fill="#786ab5"/>
        </g>
        <g id="Group_841" data-name="Group 841" transform="translate(0.979 34.102)">
          <path id="Path_1866" data-name="Path 1866" d="M2531.328,1531.417a.077.077,0,0,1-.071-.048c-.113-.275-.163-.431-.166-.438a.077.077,0,0,1,.146-.047s.052.158.162.427a.077.077,0,0,1-.042.1A.078.078,0,0,1,2531.328,1531.417Z" transform="translate(-2531.087 -1530.83)" fill="#786ab5"/>
        </g>
      </g>
      <g id="Group_843" data-name="Group 843" transform="translate(5.18 2.52)">
        <path id="Path_1867" data-name="Path 1867" d="M1804.126,549.543c-.153,0-.309-.005-.461-.016a.058.058,0,1,1,.008-.115,6.476,6.476,0,0,0,.916,0,.058.058,0,1,1,.008.115C1804.44,549.537,1804.282,549.543,1804.126,549.543Zm1.382-.146a.058.058,0,0,1-.012-.114c.071-.015.143-.032.214-.049a.058.058,0,1,1,.027.112c-.072.018-.146.035-.218.05Zm-2.753,0h-.012a6.389,6.389,0,0,1-.893-.266.058.058,0,0,1,.041-.108,6.3,6.3,0,0,0,.877.261.058.058,0,0,1-.012.114Zm-1.722-.653a.058.058,0,0,1-.028-.007,6.446,6.446,0,0,1-.779-.512.058.058,0,1,1,.07-.092,6.347,6.347,0,0,0,.765.5.058.058,0,0,1-.028.108Zm-1.463-1.121a.057.057,0,0,1-.041-.017,6.671,6.671,0,0,1-.6-.711.058.058,0,0,1,.093-.069,6.532,6.532,0,0,0,.592.7.058.058,0,0,1-.041.1Zm-1.092-1.485a.058.058,0,0,1-.051-.03,7.125,7.125,0,0,1-.389-.846.058.058,0,1,1,.108-.041,7.036,7.036,0,0,0,.383.832.058.058,0,0,1-.051.085Zm-.662-1.721a.058.058,0,0,1-.056-.044,8,8,0,0,1-.169-.915.058.058,0,0,1,.115-.014,7.848,7.848,0,0,0,.166.9.058.058,0,0,1-.042.07Zm-.231-1.831a.058.058,0,0,1-.058-.057q0-.067,0-.133c0-.262.012-.529.035-.8a.058.058,0,1,1,.115.01c-.023.264-.034.528-.034.786q0,.066,0,.132a.058.058,0,0,1-.057.059Zm.156-1.84h-.01a.058.058,0,0,1-.047-.067c.025-.139.054-.281.085-.422a3.8,3.8,0,0,0,.076-.483.058.058,0,0,1,.115.01,3.925,3.925,0,0,1-.078.5c-.031.139-.059.28-.084.418A.058.058,0,0,1,1797.74,540.744Zm.087-1.821a.058.058,0,0,1-.056-.042,1.928,1.928,0,0,0-.431-.769.058.058,0,0,1,.086-.077,2.044,2.044,0,0,1,.455.815.058.058,0,0,1-.039.072Zm-1.163-1.362a.057.057,0,0,1-.029-.008,5.827,5.827,0,0,0-.826-.393.058.058,0,0,1,.042-.108,5.923,5.923,0,0,1,.843.4.058.058,0,0,1-.029.108Zm-1.71-.7-.017,0c-.306-.095-.621-.183-.888-.258a.058.058,0,1,1,.031-.111c.268.075.584.164.891.259a.058.058,0,0,1-.017.113Zm-1.783-.506-.016,0c-.348-.1-.631-.181-.89-.262a.058.058,0,1,1,.035-.11c.258.081.54.164.887.261a.058.058,0,0,1-.016.114Zm-1.765-.561a.058.058,0,0,1-.02,0c-.311-.116-.592-.234-.858-.36a.058.058,0,0,1,.049-.1c.263.124.541.241.849.356a.058.058,0,0,1-.02.112Zm-1.666-.8a.057.057,0,0,1-.031-.009,6.154,6.154,0,0,1-.752-.548.058.058,0,1,1,.075-.088,6.071,6.071,0,0,0,.738.538.058.058,0,0,1-.031.107Zm-1.388-1.2a.058.058,0,0,1-.045-.021,4.83,4.83,0,0,1-.512-.776.058.058,0,1,1,.1-.054,4.73,4.73,0,0,0,.5.757.058.058,0,0,1-.045.094Zm23.841-1.579a.058.058,0,0,1-.056-.042c-.087-.3-.18-.592-.278-.879a.058.058,0,1,1,.109-.037c.1.289.192.586.279.884a.058.058,0,0,1-.039.072Zm-24.7-.035a.058.058,0,0,1-.055-.04,6.1,6.1,0,0,1-.209-.9.058.058,0,0,1,.114-.018,5.972,5.972,0,0,0,.205.887.058.058,0,0,1-.038.073Zm24.107-1.715a.058.058,0,0,1-.054-.037c-.111-.287-.23-.574-.352-.852a.058.058,0,1,1,.106-.047c.123.28.243.568.354.857a.058.058,0,0,1-.033.075A.057.057,0,0,1,1811.6,530.466Zm-24.4-.1a.058.058,0,0,1-.058-.056c0-.087,0-.176,0-.264,0-.215.008-.439.023-.666a.058.058,0,0,1,.115.008c-.015.224-.023.446-.023.658,0,.087,0,.174,0,.26a.058.058,0,0,1-.056.06Zm9.354-.505a4.236,4.236,0,0,1-.513-.031.058.058,0,1,1,.014-.115,4.091,4.091,0,0,0,.91.01.058.058,0,1,1,.012.115A4.163,4.163,0,0,1,1796.557,529.864Zm1.318-.219a.058.058,0,0,1-.019-.112,4.026,4.026,0,0,0,.821-.391.058.058,0,1,1,.061.1,4.144,4.144,0,0,1-.845.4A.058.058,0,0,1,1797.875,529.645Zm-2.722-.025a.059.059,0,0,1-.02,0,4.134,4.134,0,0,1-.84-.412.058.058,0,1,1,.062-.1,4.03,4.03,0,0,0,.817.4.058.058,0,0,1-.019.112Zm15.7-.846a.058.058,0,0,1-.052-.032c-.138-.276-.283-.549-.432-.814a.058.058,0,1,1,.1-.057c.15.266.3.542.435.819a.058.058,0,0,1-.052.084Zm-11.43-.107a.058.058,0,0,1-.043-.1,2.283,2.283,0,0,0,.465-.766.058.058,0,1,1,.109.039,2.4,2.4,0,0,1-.488.8A.058.058,0,0,1,1799.424,528.667Zm-5.81-.04a.058.058,0,0,1-.042-.018,3.507,3.507,0,0,1-.548-.76.058.058,0,1,1,.1-.054,3.385,3.385,0,0,0,.53.735.058.058,0,0,1-.042.1Zm-6.292-.1h-.008a.058.058,0,0,1-.049-.066c.043-.294.1-.6.163-.914a.058.058,0,1,1,.113.024c-.065.31-.119.615-.162.907A.058.058,0,0,1,1787.322,528.526Zm22.624-1.362a.058.058,0,0,1-.049-.027c-.165-.26-.338-.517-.515-.764a.058.058,0,1,1,.094-.067c.178.249.352.508.518.769a.058.058,0,0,1-.049.089Zm-17.183-.152a.058.058,0,0,1-.057-.046,3.384,3.384,0,0,1-.069-.682c0-.083,0-.169.009-.254a.058.058,0,0,1,.115.008c-.006.082-.009.165-.009.246a3.268,3.268,0,0,0,.067.658.058.058,0,0,1-.045.068Zm7.27-.04a.058.058,0,0,1-.058-.055,3.176,3.176,0,0,0-.174-.887.058.058,0,1,1,.109-.037,3.3,3.3,0,0,1,.181.92.058.058,0,0,1-.055.06Zm-12.333-.255-.015,0a.058.058,0,0,1-.041-.071c.084-.307.178-.6.279-.886a.058.058,0,1,1,.109.039c-.1.278-.193.574-.276.878A.058.058,0,0,1,1787.7,526.717Zm21.171-1.056a.057.057,0,0,1-.045-.022c-.193-.24-.395-.475-.6-.7a.058.058,0,1,1,.085-.078c.206.226.409.464.6.705a.058.058,0,0,1-.045.094Zm-9.4-.43a.058.058,0,0,1-.05-.029,6.051,6.051,0,0,0-.524-.751.058.058,0,0,1,.09-.073,6.159,6.159,0,0,1,.534.765.058.058,0,0,1-.021.079A.057.057,0,0,1,1799.466,525.232Zm-6.585-.044-.017,0a.058.058,0,0,1-.038-.073,4.98,4.98,0,0,1,.369-.858.058.058,0,0,1,.1.055,4.871,4.871,0,0,0-.36.838A.058.058,0,0,1,1792.881,525.188Zm-4.554-.207a.057.057,0,0,1-.024-.005.058.058,0,0,1-.028-.077,8.179,8.179,0,0,1,.44-.82.058.058,0,0,1,.1.061,8.087,8.087,0,0,0-.434.808A.058.058,0,0,1,1788.328,524.98Zm19.3-.686a.058.058,0,0,1-.04-.016c-.221-.214-.45-.423-.681-.62a.058.058,0,0,1,.075-.088c.233.2.464.409.687.625a.058.058,0,0,1-.04.1Zm-9.318-.5a.058.058,0,0,1-.04-.016,8.258,8.258,0,0,0-.7-.6.058.058,0,1,1,.07-.092,8.373,8.373,0,0,1,.708.605.058.058,0,0,1-.04.1Zm-4.564-.232a.058.058,0,0,1-.046-.092c.128-.172.27-.345.42-.515.059-.066.12-.132.181-.2a.058.058,0,1,1,.083.08c-.061.063-.121.128-.178.192-.149.168-.288.338-.414.507A.057.057,0,0,1,1793.746,523.562Zm-4.446-.148a.058.058,0,0,1-.045-.095,5.67,5.67,0,0,1,.65-.669.058.058,0,1,1,.076.087,5.552,5.552,0,0,0-.636.655A.058.058,0,0,1,1789.3,523.414Zm16.92-.317a.058.058,0,0,1-.034-.011c-.247-.183-.5-.359-.758-.522a.058.058,0,1,1,.062-.1c.258.164.516.341.765.526a.058.058,0,0,1-.034.1Zm-9.377-.424a.058.058,0,0,1-.03-.008,8.371,8.371,0,0,0-.81-.432.058.058,0,0,1,.049-.1,8.537,8.537,0,0,1,.822.438.058.058,0,0,1-.03.107Zm-1.812-.432a.058.058,0,0,1-.035-.1,6.62,6.62,0,0,1,.776-.516.058.058,0,0,1,.057.1,6.508,6.508,0,0,0-.763.507A.058.058,0,0,1,1795.031,522.241Zm-4.339-.027a.058.058,0,0,1-.029-.108,4.765,4.765,0,0,1,.849-.389.058.058,0,0,1,.038.109,4.635,4.635,0,0,0-.829.379A.058.058,0,0,1,1790.693,522.214Zm13.968-.108a.058.058,0,0,1-.027-.007c-.271-.146-.549-.282-.826-.4a.058.058,0,1,1,.047-.106c.28.124.561.261.834.408a.058.058,0,0,1-.027.109Zm-9.494-.207-.018,0a6.955,6.955,0,0,0-.888-.228.058.058,0,1,1,.021-.114,7.073,7.073,0,0,1,.9.232.058.058,0,0,1-.018.113Zm-2.737-.283a.058.058,0,0,1-.008-.115,5.425,5.425,0,0,1,.932-.049.058.058,0,0,1,.056.06.059.059,0,0,1-.06.056,5.316,5.316,0,0,0-.912.048Zm10.541-.256a.058.058,0,0,1-.019,0c-.291-.1-.587-.191-.88-.267a.058.058,0,1,1,.029-.112c.3.076.6.167.89.269a.058.058,0,0,1-.019.112Zm-6.337-.03a.058.058,0,0,1-.022-.111,7.473,7.473,0,0,1,.885-.292.058.058,0,1,1,.029.112,7.363,7.363,0,0,0-.871.288A.057.057,0,0,1,1796.634,521.329Zm4.548-.428h-.009c-.3-.05-.611-.086-.913-.106a.058.058,0,1,1,.008-.115c.3.021.616.057.923.107a.058.058,0,0,1-.009.115Zm-2.763-.044a.058.058,0,0,1-.008-.115,8.678,8.678,0,0,1,.927-.08.057.057,0,0,1,.06.056.058.058,0,0,1-.056.06,8.554,8.554,0,0,0-.915.079Z" transform="translate(-1787.142 -520.661)" fill="#ff443c"/>
      </g>
      <g id="Group_845" data-name="Group 845" transform="translate(4.5 7.788)">
        <rect id="Rectangle_359" data-name="Rectangle 359" width="3.044" height="1.99" rx="0.995" fill="#ff443c"/>
        <path id="Path_1868" data-name="Path 1868" d="M1775.829,655.865l-1.5-.911-1.5.909a.252.252,0,0,0,.232.153h2.541A.252.252,0,0,0,1775.829,655.865Z" transform="translate(-1772.806 -654.026)" fill="#ff443c"/>
        <path id="Path_1869" data-name="Path 1869" d="M1772.839,634.99l1.5,1.023,1.5-1.021a.252.252,0,0,0-.231-.153h-2.541A.252.252,0,0,0,1772.839,634.99Z" transform="translate(-1772.818 -634.839)" fill="#ff443c"/>
        <g id="Group_844" data-name="Group 844" transform="translate(0.007 0.131)">
          <path id="Path_1870" data-name="Path 1870" d="M1774.063,638.743l-1.516-1.033.027-.04,1.489,1.014,1.487-1.012.027.04Z" transform="translate(-1772.547 -637.671)" fill="#66192d"/>
        </g>
      </g>
      <g id="Group_847" data-name="Group 847" transform="translate(49.761 12.602)">
        <rect id="Rectangle_360" data-name="Rectangle 360" width="3.044" height="1.99" rx="0.995" fill="#786ab5"/>
        <path id="Path_1871" data-name="Path 1871" d="M2829.167,769.3l-1.5-.911-1.5.909a.252.252,0,0,0,.231.153h2.541A.252.252,0,0,0,2829.167,769.3Z" transform="translate(-2826.144 -767.461)" fill="#786ab5"/>
        <path id="Path_1872" data-name="Path 1872" d="M2826.177,748.424l1.5,1.023,1.5-1.021a.252.252,0,0,0-.231-.153h-2.541A.251.251,0,0,0,2826.177,748.424Z" transform="translate(-2826.156 -748.274)" fill="#786ab5"/>
        <g id="Group_846" data-name="Group 846" transform="translate(0.007 0.131)">
          <path id="Path_1873" data-name="Path 1873" d="M2827.4,752.178l-1.516-1.032.027-.04,1.489,1.014,1.487-1.012.027.04Z" transform="translate(-2825.884 -751.106)" fill="#66192d"/>
        </g>
      </g>
      <g id="Group_849" data-name="Group 849" transform="translate(59.374 45.228)">
        <rect id="Rectangle_361" data-name="Rectangle 361" width="3.044" height="1.99" rx="0.995" transform="translate(0 0)" fill="#ff8548"/>
        <path id="Path_1874" data-name="Path 1874" d="M3053.787,1499.979l-1.5-.911-1.5.908a.252.252,0,0,0,.231.153h2.541A.251.251,0,0,0,3053.787,1499.979Z" transform="translate(-3050.764 -1498.14)" fill="#ff8548"/>
        <path id="Path_1875" data-name="Path 1875" d="M3050.8,1479.1l1.5,1.023,1.5-1.021a.251.251,0,0,0-.231-.153h-2.541A.252.252,0,0,0,3050.8,1479.1Z" transform="translate(-3050.776 -1478.953)" fill="#ff8548"/>
        <g id="Group_848" data-name="Group 848" transform="translate(0.007 0.131)">
          <path id="Path_1876" data-name="Path 1876" d="M3052.021,1482.858l-1.516-1.032.027-.04,1.49,1.014,1.487-1.012.027.04Z" transform="translate(-3050.505 -1481.786)" fill="#66192d"/>
        </g>
      </g>
      <g id="Group_851" data-name="Group 851" transform="translate(8.731 28.281)">
        <rect id="Rectangle_362" data-name="Rectangle 362" width="3.044" height="1.99" rx="0.995" fill="#ffba41"/>
        <path id="Path_1877" data-name="Path 1877" d="M1867.54,1120.429l-1.5-.911-1.5.909a.252.252,0,0,0,.232.153h2.541A.252.252,0,0,0,1867.54,1120.429Z" transform="translate(-1864.517 -1118.59)" fill="#ffba41"/>
        <path id="Path_1878" data-name="Path 1878" d="M1864.551,1099.553l1.5,1.023,1.5-1.021a.252.252,0,0,0-.231-.153h-2.541A.252.252,0,0,0,1864.551,1099.553Z" transform="translate(-1864.53 -1099.403)" fill="#ffba41"/>
        <g id="Group_850" data-name="Group 850" transform="translate(0.007 0.131)">
          <path id="Path_1879" data-name="Path 1879" d="M1865.774,1103.307l-1.516-1.033.027-.04,1.489,1.014,1.487-1.012.027.04Z" transform="translate(-1864.258 -1102.235)" fill="#66192d"/>
        </g>
      </g>
    </g>
  </g>
</svg>
