<svg xmlns="http://www.w3.org/2000/svg" xmlns:xlink="http://www.w3.org/1999/xlink" width="477.399" height="398.382" viewBox="0 0 477.399 398.382">
  <defs>
    <filter id="Rectangle_185" x="112" y="111.234" width="102.404" height="49.149" filterUnits="userSpaceOnUse">
      <feOffset dy="3" input="SourceAlpha"/>
      <feGaussianBlur stdDeviation="3" result="blur"/>
      <feFlood flood-opacity="0.161"/>
      <feComposite operator="in" in2="blur"/>
      <feComposite in="SourceGraphic"/>
    </filter>
    <filter id="Rectangle_186" x="190.913" y="62.829" width="101.399" height="49.149" filterUnits="userSpaceOnUse">
      <feOffset dy="3" input="SourceAlpha"/>
      <feGaussianBlur stdDeviation="3" result="blur-2"/>
      <feFlood flood-opacity="0.161"/>
      <feComposite operator="in" in2="blur-2"/>
      <feComposite in="SourceGraphic"/>
    </filter>
    <filter id="Rectangle_191" x="192" y="349.233" width="101.399" height="49.149" filterUnits="userSpaceOnUse">
      <feOffset dy="3" input="SourceAlpha"/>
      <feGaussianBlur stdDeviation="3" result="blur-3"/>
      <feFlood flood-opacity="0.161"/>
      <feComposite operator="in" in2="blur-3"/>
      <feComposite in="SourceGraphic"/>
    </filter>
    <filter id="Rectangle_192" x="285" y="312.233" width="101.399" height="49.149" filterUnits="userSpaceOnUse">
      <feOffset dy="3" input="SourceAlpha"/>
      <feGaussianBlur stdDeviation="3" result="blur-4"/>
      <feFlood flood-opacity="0.161"/>
      <feComposite operator="in" in2="blur-4"/>
      <feComposite in="SourceGraphic"/>
    </filter>
    <filter id="Rectangle_193" x="351" y="255.233" width="101.222" height="49.311" filterUnits="userSpaceOnUse">
      <feOffset dy="3" input="SourceAlpha"/>
      <feGaussianBlur stdDeviation="3" result="blur-5"/>
      <feFlood flood-opacity="0.161"/>
      <feComposite operator="in" in2="blur-5"/>
      <feComposite in="SourceGraphic"/>
    </filter>
    <filter id="Rectangle_284" x="376" y="176.233" width="101.399" height="49.149" filterUnits="userSpaceOnUse">
      <feOffset dy="3" input="SourceAlpha"/>
      <feGaussianBlur stdDeviation="3" result="blur-6"/>
      <feFlood flood-opacity="0.161"/>
      <feComposite operator="in" in2="blur-6"/>
      <feComposite in="SourceGraphic"/>
    </filter>
    <filter id="Rectangle_285" x="352" y="103.233" width="102.046" height="49.311" filterUnits="userSpaceOnUse">
      <feOffset dy="3" input="SourceAlpha"/>
      <feGaussianBlur stdDeviation="3" result="blur-7"/>
      <feFlood flood-opacity="0.161"/>
      <feComposite operator="in" in2="blur-7"/>
      <feComposite in="SourceGraphic"/>
    </filter>
    <filter id="Rectangle_288" x="281" y="42.233" width="101.222" height="48.487" filterUnits="userSpaceOnUse">
      <feOffset dy="3" input="SourceAlpha"/>
      <feGaussianBlur stdDeviation="3" result="blur-8"/>
      <feFlood flood-opacity="0.161"/>
      <feComposite operator="in" in2="blur-8"/>
      <feComposite in="SourceGraphic"/>
    </filter>
    <filter id="Rectangle_188" x="11" y="263.233" width="101.399" height="49.149" filterUnits="userSpaceOnUse">
      <feOffset dy="3" input="SourceAlpha"/>
      <feGaussianBlur stdDeviation="3" result="blur-9"/>
      <feFlood flood-opacity="0.161"/>
      <feComposite operator="in" in2="blur-9"/>
      <feComposite in="SourceGraphic"/>
    </filter>
    <filter id="Rectangle_283" x="0" y="176.233" width="101.399" height="49.149" filterUnits="userSpaceOnUse">
      <feOffset dy="3" input="SourceAlpha"/>
      <feGaussianBlur stdDeviation="3" result="blur-10"/>
      <feFlood flood-opacity="0.161"/>
      <feComposite operator="in" in2="blur-10"/>
      <feComposite in="SourceGraphic"/>
    </filter>
    <filter id="Rectangle_286" x="16" y="107.233" width="101.399" height="49.149" filterUnits="userSpaceOnUse">
      <feOffset dy="3" input="SourceAlpha"/>
      <feGaussianBlur stdDeviation="3" result="blur-11"/>
      <feFlood flood-opacity="0.161"/>
      <feComposite operator="in" in2="blur-11"/>
      <feComposite in="SourceGraphic"/>
    </filter>
    <filter id="Rectangle_287" x="99" y="41.233" width="101.399" height="49.149" filterUnits="userSpaceOnUse">
      <feOffset dy="3" input="SourceAlpha"/>
      <feGaussianBlur stdDeviation="3" result="blur-12"/>
      <feFlood flood-opacity="0.161"/>
      <feComposite operator="in" in2="blur-12"/>
      <feComposite in="SourceGraphic"/>
    </filter>
    <filter id="Rectangle_190" x="99" y="312.233" width="102.404" height="49.149" filterUnits="userSpaceOnUse">
      <feOffset dy="3" input="SourceAlpha"/>
      <feGaussianBlur stdDeviation="3" result="blur-13"/>
      <feFlood flood-opacity="0.161"/>
      <feComposite operator="in" in2="blur-13"/>
      <feComposite in="SourceGraphic"/>
    </filter>
    <filter id="Rectangle_189" x="260.245" y="101.012" width="101.399" height="49.149" filterUnits="userSpaceOnUse">
      <feOffset dy="3" input="SourceAlpha"/>
      <feGaussianBlur stdDeviation="3" result="blur-14"/>
      <feFlood flood-opacity="0.161"/>
      <feComposite operator="in" in2="blur-14"/>
      <feComposite in="SourceGraphic"/>
    </filter>
    <filter id="Rectangle_187" x="206.99" y="161.3" width="71.255" height="38.096" filterUnits="userSpaceOnUse">
      <feOffset dy="3" input="SourceAlpha"/>
      <feGaussianBlur stdDeviation="3" result="blur-15"/>
      <feFlood flood-opacity="0.161"/>
      <feComposite operator="in" in2="blur-15"/>
      <feComposite in="SourceGraphic"/>
    </filter>
    <clipPath id="clip-path">
      <rect id="Rectangle_8" data-name="Rectangle 8" width="83.399" height="31.149" rx="15.575" fill="#f30b0b"/>
    </clipPath>
    <clipPath id="clip-path-2">
      <rect id="Rectangle_8-2" data-name="Rectangle 8" width="83.222" height="31.311" rx="15.656" transform="translate(0)" fill="#f30b0b"/>
    </clipPath>
    <clipPath id="clip-path-3">
      <rect id="Rectangle_8-3" data-name="Rectangle 8" width="83.222" height="31.311" rx="15.656" fill="#f30b0b"/>
    </clipPath>
    <clipPath id="clip-path-4">
      <rect id="Rectangle_8-4" data-name="Rectangle 8" width="56.269" height="21.101" rx="10.55" fill="#f30b0b"/>
    </clipPath>
    <clipPath id="clip-path-5">
      <rect id="Rectangle_194" data-name="Rectangle 194" width="392.879" height="318.524" fill="#fff" stroke="#707070" stroke-width="1"/>
    </clipPath>
    <linearGradient id="linear-gradient" x1="0.821" y1="1.066" x2="-0.636" y2="-1.013" gradientUnits="objectBoundingBox">
      <stop offset="0" stop-color="#25054d"/>
      <stop offset="1" stop-color="#45108a"/>
    </linearGradient>
    <linearGradient id="linear-gradient-2" x1="0.011" y1="0.771" x2="2.508" y2="-0.889" xlink:href="#linear-gradient"/>
    <linearGradient id="linear-gradient-3" x1="0" y1="0.793" x2="2.612" y2="-1.685" xlink:href="#linear-gradient"/>
    <linearGradient id="linear-gradient-4" x1="-0.083" y1="0.708" x2="2.973" y2="-0.266" xlink:href="#linear-gradient"/>
    <linearGradient id="linear-gradient-5" x1="0.91" y1="0.682" x2="-0.811" y2="-0.379" xlink:href="#linear-gradient"/>
    <linearGradient id="linear-gradient-6" x1="0.819" y1="0.971" x2="-0.824" y2="-1.773" xlink:href="#linear-gradient"/>
    <linearGradient id="linear-gradient-7" x1="0.963" y1="0.922" x2="-1.607" y2="-1.128" xlink:href="#linear-gradient"/>
    <linearGradient id="linear-gradient-9" x1="0.869" y1="0.504" x2="-0.868" y2="0.123" xlink:href="#linear-gradient"/>
    <linearGradient id="linear-gradient-10" x1="0" y1="0.5" x2="1" y2="0.5" xlink:href="#linear-gradient"/>
    <linearGradient id="linear-gradient-11" x1="0.915" y1="1.084" x2="-0.949" y2="-1.91" xlink:href="#linear-gradient"/>
    <linearGradient id="linear-gradient-12" x1="0" y1="0.5" x2="1.861" y2="0.5" xlink:href="#linear-gradient"/>
    <linearGradient id="linear-gradient-13" x1="-0.355" y1="-0.222" x2="2.054" y2="1.818" xlink:href="#linear-gradient"/>
    <linearGradient id="linear-gradient-14" x1="0.04" y1="0.556" x2="1.606" y2="0.08" xlink:href="#linear-gradient"/>
    <linearGradient id="linear-gradient-15" x1="-1.379" y1="-3.76" x2="1.277" y2="2.261" xlink:href="#linear-gradient"/>
    <linearGradient id="linear-gradient-16" x1="-1.097" y1="-3.212" x2="1.559" y2="2.942" xlink:href="#linear-gradient"/>
    <linearGradient id="linear-gradient-17" x1="-1.052" y1="-3.018" x2="1.604" y2="3.003" xlink:href="#linear-gradient"/>
    <linearGradient id="linear-gradient-18" x1="0.945" y1="1.191" x2="-0.252" y2="-0.95" gradientUnits="objectBoundingBox">
      <stop offset="0.005" stop-color="#ffe4a7"/>
      <stop offset="0.1" stop-color="#fac098"/>
      <stop offset="0.202" stop-color="#f49587"/>
      <stop offset="0.464" stop-color="#a142b4"/>
      <stop offset="0.596" stop-color="#7c1dc9"/>
      <stop offset="0.635" stop-color="#7825cb"/>
      <stop offset="0.697" stop-color="#6f3ed1"/>
      <stop offset="0.776" stop-color="#6065db"/>
      <stop offset="0.869" stop-color="#4b9ce8"/>
      <stop offset="0.971" stop-color="#31e0f9"/>
      <stop offset="1" stop-color="#2af6ff"/>
    </linearGradient>
    <linearGradient id="linear-gradient-19" x1="-0.07" y1="1.663" x2="1.369" y2="-1.944" xlink:href="#linear-gradient-18"/>
    <linearGradient id="linear-gradient-20" x1="-0.065" y1="0.746" x2="2.896" y2="-0.402" xlink:href="#linear-gradient-18"/>
    <linearGradient id="linear-gradient-21" x1="0" y1="0.5" x2="1" y2="0.5" xlink:href="#linear-gradient-18"/>
    <linearGradient id="linear-gradient-22" x1="0.213" y1="0.161" x2="2.341" y2="2.149" xlink:href="#linear-gradient-18"/>
    <linearGradient id="linear-gradient-23" x1="-1.201" y1="-2.059" x2="1.806" y2="2.586" xlink:href="#linear-gradient-18"/>
    <linearGradient id="linear-gradient-24" x1="0.821" y1="1.066" x2="-0.636" y2="-1.013" xlink:href="#linear-gradient-18"/>
    <linearGradient id="linear-gradient-25" x1="-0.102" y1="-2.501" x2="0.92" y2="2.075" xlink:href="#linear-gradient-18"/>
    <linearGradient id="linear-gradient-27" x1="-0.536" y1="-2.199" x2="1.174" y2="2.121" xlink:href="#linear-gradient-18"/>
    <linearGradient id="linear-gradient-28" x1="0" y1="0.5" x2="1.861" y2="0.5" xlink:href="#linear-gradient-18"/>
    <linearGradient id="linear-gradient-29" x1="-1.131" y1="-1.144" x2="1.12" y2="1.128" xlink:href="#linear-gradient-18"/>
    <linearGradient id="linear-gradient-30" x1="0.043" y1="0.566" x2="1.598" y2="0.002" xlink:href="#linear-gradient-18"/>
    <linearGradient id="linear-gradient-32" x1="0.011" y1="0.771" x2="2.508" y2="-0.889" xlink:href="#linear-gradient"/>
    <linearGradient id="linear-gradient-36" x1="0.819" y1="0.971" x2="-0.824" y2="-1.773" xlink:href="#linear-gradient"/>
    <linearGradient id="linear-gradient-43" x1="-0.355" y1="-0.222" x2="2.054" y2="1.818" xlink:href="#linear-gradient"/>
    <linearGradient id="linear-gradient-45" x1="0.265" x2="1.282" y2="2.27" gradientUnits="objectBoundingBox">
      <stop offset="0" stop-color="#a0ef45"/>
      <stop offset="1" stop-color="#45108a"/>
    </linearGradient>
    <linearGradient id="linear-gradient-46" x1="0.311" y1="-0.356" x2="1.563" y2="2.95" gradientUnits="objectBoundingBox">
      <stop offset="0" stop-color="#e43d6b"/>
      <stop offset="1" stop-color="#45108a"/>
    </linearGradient>
    <linearGradient id="linear-gradient-47" x1="0.148" y1="-0.429" x2="1.604" y2="3.004" gradientUnits="objectBoundingBox">
      <stop offset="0" stop-color="#4b98ff"/>
      <stop offset="1" stop-color="#45108a"/>
    </linearGradient>
    <radialGradient id="radial-gradient" cx="0.5" cy="0.5" r="0.655" gradientTransform="translate(0.179) scale(0.642 1)" gradientUnits="objectBoundingBox">
      <stop offset="0" stop-color="#fff"/>
      <stop offset="1"/>
    </radialGradient>
    <radialGradient id="radial-gradient-2" cx="0.5" cy="0.5" r="0.671" gradientTransform="translate(0.19) scale(0.619 1)" xlink:href="#radial-gradient"/>
    <radialGradient id="radial-gradient-3" cx="0.5" cy="0.5" r="0.685" gradientTransform="translate(0.199) scale(0.603 1)" xlink:href="#radial-gradient"/>
    <radialGradient id="radial-gradient-4" cx="0.5" cy="0.5" r="1.855" gradientTransform="translate(0.403) scale(0.194 1)" xlink:href="#radial-gradient"/>
    <radialGradient id="radial-gradient-5" cx="0.5" cy="0.5" r="1.393" gradientTransform="translate(0.369) scale(0.262 1)" xlink:href="#radial-gradient"/>
    <radialGradient id="radial-gradient-6" cx="0.5" cy="0.5" r="1.39" gradientTransform="translate(0.369) scale(0.263 1)" xlink:href="#radial-gradient"/>
    <radialGradient id="radial-gradient-7" cx="0.5" cy="0.5" r="0.685" gradientTransform="translate(0.199) scale(0.603 1)" xlink:href="#radial-gradient"/>
    <radialGradient id="radial-gradient-8" cx="0.5" cy="0.5" r="1.855" gradientTransform="translate(0.403) scale(0.194 1)" xlink:href="#radial-gradient"/>
    <radialGradient id="radial-gradient-9" cx="0.5" cy="0.5" r="0.685" gradientTransform="translate(0.199) scale(0.602 1)" xlink:href="#radial-gradient"/>
    <radialGradient id="radial-gradient-10" cx="0.5" cy="0.5" r="0.673" gradientTransform="translate(0.191) scale(0.617 1)" xlink:href="#radial-gradient"/>
    <radialGradient id="radial-gradient-11" cx="0.5" cy="0.5" r="1.401" gradientTransform="translate(0.37) scale(0.261 1)" xlink:href="#radial-gradient"/>
    <radialGradient id="radial-gradient-12" cx="0.5" cy="0.5" r="1.845" gradientTransform="translate(0.402) scale(0.195 1)" xlink:href="#radial-gradient"/>
    <linearGradient id="linear-gradient-48" x1="-1.423" y1="-3.767" x2="1.233" y2="2.254" xlink:href="#linear-gradient"/>
    <linearGradient id="linear-gradient-49" x1="1.038" y1="1.023" x2="-0.559" y2="-0.372" xlink:href="#linear-gradient"/>
    <linearGradient id="linear-gradient-50" x1="1.114" y1="0.925" x2="-0.866" y2="-0.504" xlink:href="#linear-gradient"/>
    <linearGradient id="linear-gradient-51" x1="-0.036" y1="0.816" x2="2.774" y2="-0.844" xlink:href="#linear-gradient"/>
    <linearGradient id="linear-gradient-52" x1="0.265" y1="-0.058" x2="1.163" y2="2.322" xlink:href="#linear-gradient"/>
    <linearGradient id="linear-gradient-53" x1="0.407" y1="0.61" x2="1.389" y2="0.319" xlink:href="#linear-gradient"/>
    <linearGradient id="linear-gradient-54" x1="1" y1="1.096" x2="-0.492" y2="-0.488" xlink:href="#linear-gradient-18"/>
    <linearGradient id="linear-gradient-55" x1="1.052" y1="0.996" x2="-0.73" y2="-0.68" xlink:href="#linear-gradient-18"/>
    <linearGradient id="linear-gradient-56" x1="-1.867" y1="2.168" x2="1.803" y2="-0.419" xlink:href="#linear-gradient-18"/>
    <linearGradient id="linear-gradient-57" x1="-0.032" y1="-1.102" x2="0.824" y2="1.601" xlink:href="#linear-gradient-18"/>
    <linearGradient id="linear-gradient-58" x1="0.408" y1="0.631" x2="1.383" y2="0.286" xlink:href="#linear-gradient-18"/>
    <linearGradient id="linear-gradient-64" x1="0.563" y1="-0.352" x2="1.232" y2="2.255" gradientUnits="objectBoundingBox">
      <stop offset="0" stop-color="#37f2e6"/>
      <stop offset="1" stop-color="#45108a"/>
    </linearGradient>
    <radialGradient id="radial-gradient-13" cx="0.5" cy="0.5" r="0.685" gradientTransform="translate(0.199) scale(0.602 1)" xlink:href="#radial-gradient"/>
    <radialGradient id="radial-gradient-14" cx="0.5" cy="0.5" r="1.401" gradientTransform="translate(0.37) scale(0.261 1)" xlink:href="#radial-gradient"/>
    <radialGradient id="radial-gradient-15" cx="0.5" cy="0.5" r="1.845" gradientTransform="translate(0.402) scale(0.195 1)" xlink:href="#radial-gradient"/>
    <radialGradient id="radial-gradient-16" cx="0.5" cy="0.5" r="0.5" gradientTransform="matrix(-0.511, -0.86, -0.86, 0.511, 1020.34, 580.368)" gradientUnits="objectBoundingBox">
      <stop offset="0.086" stop-color="#fff"/>
      <stop offset="0.105" stop-color="#a8b3dc"/>
      <stop offset="0.126" stop-color="#4b61b8"/>
      <stop offset="0.154" stop-color="#40539e"/>
      <stop offset="0.201" stop-color="#313f79"/>
      <stop offset="0.253" stop-color="#232e58"/>
      <stop offset="0.311" stop-color="#181f3c"/>
      <stop offset="0.376" stop-color="#0f1426"/>
      <stop offset="0.451" stop-color="#080b14"/>
      <stop offset="0.543" stop-color="#030408"/>
      <stop offset="0.67" stop-color="#000101"/>
      <stop offset="1"/>
    </radialGradient>
    <radialGradient id="radial-gradient-17" cx="0.5" cy="0.5" r="0.5" gradientTransform="matrix(-0.511, -0.86, -0.859, 0.511, 1166.729, 663.649)" xlink:href="#radial-gradient-16"/>
    <radialGradient id="radial-gradient-18" cx="0.5" cy="0.5" r="0.5" gradientTransform="matrix(-0.511, -0.86, -0.86, 0.511, 1361.931, 774.653)" xlink:href="#radial-gradient-16"/>
    <radialGradient id="radial-gradient-19" cx="0.5" cy="0.5" r="0.5" gradientTransform="matrix(-0.511, -0.86, -0.86, 0.511, 1634.921, 929.939)" xlink:href="#radial-gradient-16"/>
    <radialGradient id="radial-gradient-20" cx="0.5" cy="0.5" r="0.5" gradientTransform="matrix(-0.511, -0.86, -0.859, 0.511, 2044.263, 1162.793)" xlink:href="#radial-gradient-16"/>
    <linearGradient id="linear-gradient-65" x1="100.415" y1="276.262" x2="98.548" y2="278.034" gradientUnits="objectBoundingBox">
      <stop offset="0" stop-color="#271273"/>
      <stop offset="0.135" stop-color="#1f0e5b"/>
      <stop offset="0.398" stop-color="#110834"/>
      <stop offset="0.638" stop-color="#070317"/>
      <stop offset="0.847" stop-color="#020006"/>
      <stop offset="1"/>
    </linearGradient>
    <linearGradient id="linear-gradient-66" x1="111.946" y1="327.139" x2="110.526" y2="328.597" gradientUnits="objectBoundingBox">
      <stop offset="0" stop-color="#82288f"/>
      <stop offset="0.308" stop-color="#511959"/>
      <stop offset="0.623" stop-color="#250b29"/>
      <stop offset="0.864" stop-color="#0a030b"/>
      <stop offset="1"/>
    </linearGradient>
    <linearGradient id="linear-gradient-67" x1="126.651" y1="370.36" x2="125.68" y2="371.376" gradientUnits="objectBoundingBox">
      <stop offset="0" stop-color="#dc3daa"/>
      <stop offset="0.247" stop-color="#a22d7d"/>
      <stop offset="0.769" stop-color="#2e0c23"/>
      <stop offset="1"/>
    </linearGradient>
    <filter id="Rectangle_236" x="186" y="153.233" width="89.424" height="49.149" filterUnits="userSpaceOnUse">
      <feOffset dy="3" input="SourceAlpha"/>
      <feGaussianBlur stdDeviation="3" result="blur-16"/>
      <feFlood flood-opacity="0.161"/>
      <feComposite operator="in" in2="blur-16"/>
      <feComposite in="SourceGraphic"/>
    </filter>
    <clipPath id="clip-path-6">
      <rect id="Rectangle_8-5" data-name="Rectangle 8" width="72.51" height="31.311" rx="15.656" fill="#f30b0b"/>
    </clipPath>
  </defs>
  <ellipse id="Ellipse_239" data-name="Ellipse 239" cx="6.5" cy="7.5" rx="6.5" ry="7.5" transform="translate(163 205.233)" fill="#fff" opacity="0.29"/>
  <g id="Group_3215" data-name="Group 3215" transform="translate(9)">
    <g id="Group_467" data-name="Group 467" transform="translate(156.289 97.125)">
      <line id="Line_1" data-name="Line 1" y1="45.442" transform="translate(77.37 0)" fill="#fff" stroke="#231f20" stroke-linecap="round" stroke-linejoin="round" stroke-width="3"/>
      <line id="Line_53" data-name="Line 53" y1="45.442" transform="translate(77.37 106.51)" fill="#fff" stroke="#231f20" stroke-linecap="round" stroke-linejoin="round" stroke-width="3"/>
      <line id="Line_2" data-name="Line 2" y1="45.442" transform="translate(0 53.866)" fill="#fff" stroke="#231f20" stroke-linecap="round" stroke-linejoin="round" stroke-width="3"/>
      <line id="Line_3" data-name="Line 3" y1="45.442" transform="translate(77.37 93.133)" fill="#fff" stroke="#231f20" stroke-linecap="round" stroke-linejoin="round" stroke-width="3"/>
      <line id="Line_4" data-name="Line 4" y1="45.442" transform="translate(150.803 40.595)" fill="#fff" stroke="#231f20" stroke-linecap="round" stroke-linejoin="round" stroke-width="3"/>
    </g>
    <g transform="matrix(1, 0, 0, 1, -9, 0)" filter="url(#Rectangle_185)">
      <rect id="Rectangle_185-2" data-name="Rectangle 185" width="84.404" height="31.149" rx="15.575" transform="translate(121 117.23)" fill="#fff"/>
    </g>
    <g transform="matrix(1, 0, 0, 1, -9, 0)" filter="url(#Rectangle_186)">
      <rect id="Rectangle_186-2" data-name="Rectangle 186" width="83.399" height="31.149" rx="15.575" transform="translate(199.91 68.83)" fill="#fff"/>
    </g>
    <g transform="matrix(1, 0, 0, 1, -9, 0)" filter="url(#Rectangle_191)">
      <rect id="Rectangle_191-2" data-name="Rectangle 191" width="83.399" height="31.149" rx="15.575" transform="translate(201 355.23)" fill="#4975e1"/>
    </g>
    <g transform="matrix(1, 0, 0, 1, -9, 0)" filter="url(#Rectangle_192)">
      <rect id="Rectangle_192-2" data-name="Rectangle 192" width="83.399" height="31.149" rx="15.575" transform="translate(294 318.23)" fill="#94d04f"/>
    </g>
    <g transform="matrix(1, 0, 0, 1, -9, 0)" filter="url(#Rectangle_193)">
      <rect id="Rectangle_193-2" data-name="Rectangle 193" width="83.222" height="31.311" rx="15.656" transform="translate(360 261.23)" fill="#f2b861"/>
    </g>
    <g transform="matrix(1, 0, 0, 1, -9, 0)" filter="url(#Rectangle_284)">
      <rect id="Rectangle_284-2" data-name="Rectangle 284" width="83.399" height="31.149" rx="15.575" transform="translate(385 182.23)" fill="#c73571"/>
    </g>
    <g transform="matrix(1, 0, 0, 1, -9, 0)" filter="url(#Rectangle_285)">
      <rect id="Rectangle_285-2" data-name="Rectangle 285" width="84.046" height="31.311" rx="15.656" transform="translate(361 109.23)" fill="#4975e1"/>
    </g>
    <g transform="matrix(1, 0, 0, 1, -9, 0)" filter="url(#Rectangle_288)">
      <rect id="Rectangle_288-2" data-name="Rectangle 288" width="83.222" height="30.487" rx="15.244" transform="translate(290 48.23)" fill="#3ac0d2"/>
    </g>
    <g transform="matrix(1, 0, 0, 1, -9, 0)" filter="url(#Rectangle_188)">
      <rect id="Rectangle_188-2" data-name="Rectangle 188" width="83.399" height="31.149" rx="15.575" transform="translate(20 269.23)" fill="#c73571"/>
    </g>
    <g transform="matrix(1, 0, 0, 1, -9, 0)" filter="url(#Rectangle_283)">
      <rect id="Rectangle_283-2" data-name="Rectangle 283" width="83.399" height="31.149" rx="15.575" transform="translate(9 182.23)" fill="#f2b861"/>
    </g>
    <g transform="matrix(1, 0, 0, 1, -9, 0)" filter="url(#Rectangle_286)">
      <rect id="Rectangle_286-2" data-name="Rectangle 286" width="83.399" height="31.149" rx="15.575" transform="translate(25 113.23)" fill="#3ac0d2"/>
    </g>
    <g transform="matrix(1, 0, 0, 1, -9, 0)" filter="url(#Rectangle_287)">
      <rect id="Rectangle_287-2" data-name="Rectangle 287" width="83.399" height="31.149" rx="15.575" transform="translate(108 47.23)" fill="#94d04f"/>
    </g>
    <g transform="matrix(1, 0, 0, 1, -9, 0)" filter="url(#Rectangle_190)">
      <rect id="Rectangle_190-2" data-name="Rectangle 190" width="84.404" height="31.149" rx="15.575" transform="translate(108 318.23)" fill="#3ac0d2"/>
    </g>
    <g transform="matrix(1, 0, 0, 1, -9, 0)" filter="url(#Rectangle_189)">
      <rect id="Rectangle_189-2" data-name="Rectangle 189" width="83.399" height="31.149" rx="15.575" transform="translate(269.25 107.01)" fill="#fff"/>
    </g>
    <g transform="matrix(1, 0, 0, 1, -9, 0)" filter="url(#Rectangle_187)">
      <rect id="Rectangle_187-2" data-name="Rectangle 187" width="53.255" height="20.096" rx="10.048" transform="translate(215.99 167.3)" fill="#fff"/>
    </g>
    <text id="Customer_Success" data-name="Customer
Success" transform="translate(302 120.233)" font-size="8" font-family="SegoeUI, Segoe UI"><tspan x="-17.064" y="0">Customer</tspan><tspan x="-13.57" y="9">Success</tspan></text>
    <text id="Sales" transform="translate(226.974 174.879)" font-size="3" font-family="SegoeUI, Segoe UI"><tspan x="-3.344" y="0">Sales</tspan></text>
    <text id="Business_communication" data-name="Business
communication" transform="translate(154 132.233)" font-size="8" font-family="SegoeUI, Segoe UI"><tspan x="-14.973" y="0">Business</tspan><tspan x="-27.393" y="9">communication</tspan></text>
    <text id="Marketing" transform="translate(233 87.233)" font-size="8" font-family="SegoeUI, Segoe UI"><tspan x="-18.041" y="0">Marketing</tspan></text>
    <text id="Education" transform="translate(234 373.233)" fill="#fff" font-size="8" font-family="SegoeUI, Segoe UI"><tspan x="-17.457" y="0">Education</tspan></text>
    <text id="Retail" transform="translate(327 336.233)" fill="#fff" font-size="8" font-family="SegoeUI, Segoe UI"><tspan x="-9.695" y="0">Retail</tspan></text>
    <text id="Restaurant" transform="translate(392 279.233)" fill="#fff" font-size="8" font-family="SegoeUI, Segoe UI"><tspan x="-18.764" y="0">Restaurant</tspan></text>
    <text id="Wholesale" transform="translate(418 200.233)" fill="#fff" font-size="8" font-family="SegoeUI, Segoe UI"><tspan x="-18.197" y="0">Wholesale</tspan></text>
    <text id="Government" transform="translate(394 128.233)" fill="#fff" font-size="8" font-family="SegoeUI, Segoe UI"><tspan x="-21.906" y="0">Government</tspan></text>
    <text id="Media_Entertainment" data-name="Media &amp;
Entertainment" transform="translate(322 60.233)" fill="#fff" font-size="8" font-family="SegoeUI, Segoe UI"><tspan x="-15.34" y="0">Media &amp;</tspan><tspan x="-24.904" y="10">Entertainment</tspan></text>
    <text id="Healthcare" transform="translate(52 287.233)" fill="#fff" font-size="8" font-family="SegoeUI, Segoe UI"><tspan x="-18.92" y="0">Healthcare</tspan></text>
    <text id="Hospitality" transform="translate(42 200.233)" fill="#fff" font-size="8" font-family="SegoeUI, Segoe UI"><tspan x="-18.82" y="0">Hospitality</tspan></text>
    <text id="Tourism" transform="translate(58 131.233)" fill="#fff" font-size="8" font-family="SegoeUI, Segoe UI"><tspan x="-13.814" y="0">Tourism</tspan></text>
    <text id="Manufacturing" transform="translate(141 66.233)" fill="#fff" font-size="8" font-family="SegoeUI, Segoe UI"><tspan x="-25.887" y="0">Manufacturing</tspan></text>
    <text id="Finance" transform="translate(142 337.233)" fill="#fff" font-size="8" font-family="SegoeUI, Segoe UI"><tspan x="-13.424" y="0">Finance</tspan></text>
    <ellipse id="Ellipse_125" data-name="Ellipse 125" cx="6.531" cy="7.034" rx="6.531" ry="7.034" transform="translate(147.707 190.411)" fill="#fff" opacity="0.29"/>
    <ellipse id="Ellipse_126" data-name="Ellipse 126" cx="6.531" cy="7.034" rx="6.531" ry="7.034" transform="translate(226.082 134.142)" fill="#fff" opacity="0.29"/>
    <ellipse id="Ellipse_128" data-name="Ellipse 128" cx="7.034" cy="6.531" rx="7.034" ry="6.531" transform="translate(299.432 177.348)" fill="#fff" opacity="0.29"/>
    <circle id="Ellipse_127" data-name="Ellipse 127" cx="6.531" cy="6.531" r="6.531" transform="translate(227.086 229.599)" fill="#fff" opacity="0.19"/>
    <g id="Component_2_2" data-name="Component 2 – 2" transform="translate(191 69.234)" opacity="0.43">
      <g id="Mask_Group_1" data-name="Mask Group 1" clip-path="url(#clip-path)">
        <g id="Rectangle_6" data-name="Rectangle 6" fill="none" stroke="#100101" stroke-width="7">
          <rect width="92.442" height="41.197" rx="20.599" stroke="none"/>
          <rect x="3.5" y="3.5" width="85.442" height="34.197" rx="17.099" fill="none"/>
        </g>
        <g id="Rectangle_7" data-name="Rectangle 7" transform="translate(-7.034 -5.024)" fill="none" stroke="#fff" stroke-width="7">
          <rect width="90.433" height="35.168" rx="17.584" stroke="none"/>
          <rect x="3.5" y="3.5" width="83.433" height="28.168" rx="14.084" fill="none"/>
        </g>
      </g>
    </g>
    <g id="Component_2_3" data-name="Component 2 – 3" transform="translate(112.739 116.285)" opacity="0.36">
      <g id="Mask_Group_1-2" data-name="Mask Group 1" transform="translate(0 0)" clip-path="url(#clip-path-2)">
        <g id="Rectangle_6-2" data-name="Rectangle 6" transform="translate(0)" fill="none" stroke="#100101" stroke-width="7">
          <rect width="92.286" height="41.199" rx="20.599" stroke="none"/>
          <rect x="3.5" y="3.5" width="85.286" height="34.199" rx="17.099" fill="none"/>
        </g>
        <g id="Rectangle_7-2" data-name="Rectangle 7" transform="translate(-6.592 -4.944)" fill="none" stroke="#fff" stroke-width="7">
          <rect width="89.814" height="35.431" rx="17.716" stroke="none"/>
          <rect x="3.5" y="3.5" width="82.814" height="28.431" rx="14.216" fill="none"/>
        </g>
      </g>
    </g>
    <g id="Component_2_4" data-name="Component 2 – 4" transform="translate(260 106.233)" opacity="0.36">
      <g id="Mask_Group_1-3" data-name="Mask Group 1" transform="translate(0 0)" clip-path="url(#clip-path-3)">
        <g id="Rectangle_6-3" data-name="Rectangle 6" fill="none" stroke="#100101" stroke-width="7">
          <rect width="92.286" height="41.199" rx="20.599" stroke="none"/>
          <rect x="3.5" y="3.5" width="85.286" height="34.199" rx="17.099" fill="none"/>
        </g>
        <g id="Rectangle_7-3" data-name="Rectangle 7" transform="translate(-6.592 -4.944)" fill="none" stroke="#fff" stroke-width="7">
          <rect width="89.814" height="35.431" rx="17.716" stroke="none"/>
          <rect x="3.5" y="3.5" width="82.814" height="28.431" rx="14.216" fill="none"/>
        </g>
      </g>
    </g>
    <g id="Component_2_5" data-name="Component 2 – 5" transform="translate(205.985 167.3)" opacity="0.57">
      <g id="Mask_Group_1-4" data-name="Mask Group 1" clip-path="url(#clip-path-4)">
        <g id="Rectangle_6-4" data-name="Rectangle 6" fill="none" stroke="#100101" stroke-width="7">
          <rect width="62.298" height="27.13" rx="13.565" stroke="none"/>
          <rect x="3.5" y="3.5" width="55.298" height="20.13" rx="10.065" fill="none"/>
        </g>
        <g id="Rectangle_7-4" data-name="Rectangle 7" transform="translate(-4.019 -3.014)" fill="none" stroke="#fff" stroke-width="7">
          <rect width="59.284" height="23.111" rx="11.555" stroke="none"/>
          <rect x="3.5" y="3.5" width="52.284" height="16.111" rx="8.055" fill="none"/>
        </g>
      </g>
    </g>
    <g id="Mask_Group_11" data-name="Mask Group 11" transform="translate(10.55)" clip-path="url(#clip-path-5)">
      <g id="Group_466" data-name="Group 466" transform="translate(-556.663 -4936.615)">
        <g id="Group_54" data-name="Group 54" transform="translate(641.323 5068.98)">
          <g id="Group_39" data-name="Group 39" transform="translate(0.037 10.314)">
            <g id="Group_38" data-name="Group 38" transform="translate(0 35.032)">
              <path id="Path_25" data-name="Path 25" d="M280.729,488.672a19.371,19.371,0,0,1-8.776-2.306c-2.34-1.351-3.653-3.068-3.954-4.827v2.515c-.394,2.278.921,4.641,3.954,6.392a18.761,18.761,0,0,0,7.653,2.234l2.664-1.538C283.762,490.281,282.844,488.755,280.729,488.672Z" transform="translate(-194.78 -426.877)" fill="url(#linear-gradient)"/>
              <path id="Path_26" data-name="Path 26" d="M256.832,510.621h0Z" transform="translate(-192.438 -433.015)" fill="#fff"/>
              <g id="Group_36" data-name="Group 36" transform="translate(64.089)">
                <path id="Path_27" data-name="Path 27" d="M307.609,427.752a7.438,7.438,0,0,1,3,3.485,5.494,5.494,0,0,0,.114-3.77c.834-2.544-.212-5.363-3.112-7.233-5.525-3.567-14.992-3.7-20.737-.383-2.424,1.4-3.783,3.182-4.081,5.014-.155.951-2.122,1.377-3.3.7l-23.05-13.308v7.519l23.05,13.308c1.175.678,3.142.252,3.3-.7.3-1.833,1.657-3.614,4.081-5.014C292.617,424.054,302.084,424.186,307.609,427.752Z" transform="translate(-256.445 -412.257)" fill="url(#linear-gradient-2)"/>
                <path id="Path_28" data-name="Path 28" d="M381.319,448.135c-5.148,2.753-13.379,2.735-18.552-.04-2.686-1.441-4.142-3.341-4.369-5.277-.143-1.223-2.752-1.769-4.249-.906l-23.136,13.358-23.044-13.3a1.235,1.235,0,0,1-.436-.407V448.3c-.261.383-.163.842.436,1.188l23.044,13.3,23.136-13.358c1.5-.864,4.106-.317,4.249.906.227,1.935,1.684,3.835,4.369,5.277,5.172,2.775,13.4,2.793,18.552.04,2.777-1.485,4.214-3.471,4.334-5.483l.067,0v-7.519l-.069.013C385.524,444.675,384.088,446.654,381.319,448.135Z" transform="translate(-267.197 -418.426)" fill="url(#linear-gradient-3)"/>
                <path id="Path_29" data-name="Path 29" d="M411.319,412.556l-23.091,13.331c-1.494.862-.575,2.388,1.54,2.471.041,0,.081.006.122.008l-1.662.959c-1.494.862-.575,2.388,1.54,2.47.376.015.75.04,1.123.073l20.441-11.8-.013-.008.063.005v-7.519Z" transform="translate(-284.1 -412.318)" fill="url(#linear-gradient-4)"/>
              </g>
              <g id="Group_37" data-name="Group 37" transform="translate(0 13.105)">
                <path id="Path_30" data-name="Path 30" d="M309.484,444.549a18.181,18.181,0,0,0,7.95-2.417c2.552-1.587,3.721-3.685,3.534-5.751l.092,0v-7.518l-.09.023c.174,2.056-.995,4.142-3.536,5.722a18.833,18.833,0,0,1-9.112,2.49c-2.118.075-3.048,1.578-1.542,2.447l1.7.981c-.052,0-.1.008-.157.01C306.2,440.616,309.484,444.549,309.484,444.549Zm11.487-11.606c0,.058,0,.118,0,.176,0-.059,0-.118,0-.176Z" transform="translate(-202.822 -428.867)" fill="url(#linear-gradient-5)"/>
                <path id="Path_31" data-name="Path 31" d="M298.969,472.665c-1.177.678-3.142.233-3.312-.726-.352-1.986-1.949-3.916-4.789-5.368-5.132-2.622-13.61-2.663-18.756-.087-4.093,2.048-5.6,5.1-4.577,7.905a4.919,4.919,0,0,0,.126,3.771A9.045,9.045,0,0,1,272.111,474c5.146-2.576,13.624-2.535,18.756.088,2.84,1.452,4.437,3.382,4.789,5.367.17.959,2.135,1.405,3.312.726l22.9-13.222v-7.519Z" transform="translate(-194.63 -435.319)" fill="url(#linear-gradient-6)"/>
                <path id="Path_32" data-name="Path 32" d="M198.5,472.6,175.22,459.161v7.512l-.005,0,20.577,11.88c.386-.033.773-.058,1.161-.072,2.118-.075,3.049-1.578,1.543-2.447l-1.7-.982c.052,0,.1-.008.156-.009C199.071,474.971,200,473.468,198.5,472.6Z" transform="translate(-175.214 -435.26)" fill="url(#linear-gradient-7)"/>
              </g>
              <path id="Path_33" data-name="Path 33" d="M280.729,484.315a19.37,19.37,0,0,1-8.776-2.307c-2.34-1.352-3.653-3.068-3.954-4.827V479.7c-.394,2.278.921,4.641,3.954,6.392a18.76,18.76,0,0,0,7.653,2.234l2.664-1.538C283.762,485.924,282.844,484.4,280.729,484.315Z" transform="translate(-194.78 -425.958)" fill="url(#linear-gradient)"/>
              <path id="Path_34" data-name="Path 34" d="M264.911,488.177a.95.95,0,0,1-.545.72L241.46,502.121l-.006,0v.007L218.2,488.7c-1.5-.867-4.14-.346-4.27.874-.2,1.842-1.508,3.648-3.94,5.053-5.442,3.141-14.369,3.051-19.682-.258a7.025,7.025,0,0,1-3.546-4.608v5.98c-.358,2.185.821,4.45,3.546,6.147,5.313,3.308,14.24,3.4,19.682.258,2.432-1.4,3.744-3.21,3.94-5.053.13-1.221,2.768-1.741,4.27-.873l23.251,13.424v-.007l.006,0,22.905-13.225c.454-.262.611-.594.545-.908Z" transform="translate(-177.639 -428.278)" fill="url(#linear-gradient-9)"/>
              <path id="Path_35" data-name="Path 35" d="M361.455,478.865a19.17,19.17,0,0,0-9.267,2.731c-2.922,1.909-3.946,4.634-3.09,7.13a5.245,5.245,0,0,0,.118,3.767,7.581,7.581,0,0,1,2.972-3.379,19.154,19.154,0,0,1,9.267-2.731c1.089-.061,1.776-.568,1.8-1.1v-7.428C363.16,478.354,362.482,478.809,361.455,478.865Z" transform="translate(-211.847 -426.1)" fill="url(#linear-gradient-10)"/>
              <path id="Path_36" data-name="Path 36" d="M256.832,506.263h0Z" transform="translate(-192.438 -432.095)" fill="#fff"/>
              <path id="Path_37" data-name="Path 37" d="M308.134,514.339c-5.5-3.659-15.087-3.822-20.882-.477-2.424,1.4-3.783,3.181-4.081,5.014-.155.952-2.121,1.377-3.3.7l-23.045-13.3,0,7.509-.005,0h.005v0l23.05,13.308c1.175.678,3.141.253,3.3-.7.3-1.832,1.657-3.613,4.081-5.013,5.795-3.346,15.379-3.182,20.882.477a7.634,7.634,0,0,1,2.938,3.37,5.244,5.244,0,0,0,.118-3.764C312.04,518.984,311.032,516.266,308.134,514.339Z" transform="translate(-192.435 -432.096)" fill="url(#linear-gradient-11)"/>
              <path id="Path_38" data-name="Path 38" d="M411.708,514.076l0,0v-7.506L388.609,519.9c-1.494.862-.575,2.388,1.54,2.471.04,0,.08.006.121.008l-1.662.959c-1.494.862-.575,2.387,1.54,2.47.376.015.75.04,1.123.073l20.442-11.8H411.7Z" transform="translate(-220.092 -432.159)" fill="url(#linear-gradient-12)"/>
              <path id="Path_39" data-name="Path 39" d="M308.353,535.967a1.154,1.154,0,0,1-.5-.5v6.971c-.156.352-.033.746.5,1.052l23.045,13.3v-7.518Z" transform="translate(-203.192 -438.257)" fill="url(#linear-gradient-13)"/>
              <path id="Path_40" data-name="Path 40" d="M392.35,536.67c-.123,2.009-1.56,3.992-4.334,5.475-5.147,2.752-13.379,2.734-18.551-.041-2.686-1.441-4.143-3.34-4.369-5.276-.143-1.223-2.752-1.77-4.248-.906l-23.136,13.358V556.8l23.136-13.357c1.5-.864,4.1-.318,4.248.906.226,1.935,1.684,3.835,4.369,5.276,5.173,2.775,13.4,2.793,18.551.04,2.775-1.482,4.212-3.466,4.334-5.476h.007v-.061c0-.1,0-.193,0-.289v-7.168Z" transform="translate(-209.506 -438.265)" fill="url(#linear-gradient-14)"/>
            </g>
            <path id="Path_41" data-name="Path 41" d="M332.778,477.8a19.169,19.169,0,0,1,9.266-2.731c1.661-.092,2.421-1.224,1.237-1.908l-23.044-13.3L297.1,473.212c-1.5.864-4.1.318-4.248-.906-.226-1.935-1.684-3.835-4.37-5.276-5.172-2.775-13.4-2.793-18.551-.04-5.7,3.046-5.8,8.2-.323,11.361a19.372,19.372,0,0,0,8.776,2.307c2.115.083,3.034,1.609,1.54,2.47l-23.1,13.34h.01l0,0,23.05,13.307c1.175.679,3.141.253,3.3-.7.3-1.833,1.657-3.614,4.081-5.014,5.795-3.346,15.378-3.182,20.882.477,4.494,2.988,4.477,7.883-.035,10.829a19.15,19.15,0,0,1-9.266,2.731c-1.661.092-2.421,1.225-1.237,1.908l23.044,13.305,23.137-13.358c1.5-.864,4.1-.317,4.248.906.226,1.935,1.684,3.835,4.369,5.277,5.173,2.774,13.4,2.792,18.552.04,5.7-3.046,5.8-8.2.323-11.361a19.356,19.356,0,0,0-8.776-2.307c-2.115-.083-3.034-1.609-1.54-2.471l23.105-13.34h-.01l0,0L361,483.392c-1.175-.679-3.141-.253-3.3.7-.3,1.832-1.657,3.614-4.081,5.013-5.795,3.346-15.378,3.182-20.883-.477C328.249,485.639,328.267,480.745,332.778,477.8Z" transform="translate(-192.435 -387.27)" fill="url(#linear-gradient-15)"/>
            <path id="Path_42" data-name="Path 42" d="M286.872,410.482c5.744-3.316,15.211-3.184,20.737.383,4.466,2.882,4.561,8.016.111,10.923a19.174,19.174,0,0,1-9.267,2.731c-1.66.092-2.42,1.224-1.236,1.908l23.044,13.3L343.4,426.374c1.5-.864,4.105-.318,4.248.905.226,1.935,1.684,3.836,4.369,5.277,5.172,2.775,13.4,2.793,18.552.04,5.7-3.046,5.8-8.2.323-11.361a19.371,19.371,0,0,0-8.777-2.307c-2.115-.083-3.034-1.609-1.54-2.471l23.106-13.339-58.7-33.891a10.228,10.228,0,0,0-10.231,0l-58.3,33.661,23.05,13.308c1.175.679,3.141.252,3.3-.7C283.089,413.663,284.448,411.881,286.872,410.482Z" transform="translate(-192.356 -367.855)" fill="url(#linear-gradient-16)"/>
            <path id="Path_43" data-name="Path 43" d="M270.1,420.242c-2.432,1.4-3.745,3.21-3.941,5.053-.129,1.22-2.767,1.741-4.27.873l-23.25-13.424-.006,0L175.22,449.359l-.005,0L198.495,462.8c1.506.869.576,2.372-1.542,2.447a18.824,18.824,0,0,0-9.111,2.49c-4.773,2.968-4.753,7.721.047,10.71,5.311,3.309,14.24,3.4,19.681.258,2.432-1.4,3.744-3.21,3.94-5.053.13-1.221,2.768-1.741,4.27-.874l23.251,13.424V486.2l.006,0,22.905-13.224c1.168-.675.418-1.813-1.231-1.908A20,20,0,0,1,252,468.683c-5.831-3.367-5.607-8.9.7-12.053,5.146-2.576,13.624-2.535,18.756.087,2.84,1.453,4.437,3.382,4.789,5.368.17.959,2.136,1.4,3.311.726l22.9-13.222-23.281-13.441c-1.506-.869-.576-2.372,1.542-2.447a18.823,18.823,0,0,0,9.112-2.49c4.773-2.969,4.753-7.721-.047-10.71C284.467,417.191,275.538,417.1,270.1,420.242Z" transform="translate(-175.214 -377.328)" fill="url(#linear-gradient-17)"/>
          </g>
          <g id="Group_43" data-name="Group 43" transform="translate(0.036 40.719)">
            <g id="Group_40" data-name="Group 40" transform="translate(64.09)">
              <path id="Path_44" data-name="Path 44" d="M307.609,418.45a7.441,7.441,0,0,1,3,3.485c1.041-2.627.029-5.613-3-7.566-5.526-3.567-14.992-3.7-20.737-.382-2.424,1.4-3.783,3.181-4.081,5.013-.155.952-2.122,1.378-3.3.7l-23.049-13.308v4.081l23.049,13.308c1.175.678,3.142.252,3.3-.7.3-1.833,1.657-3.614,4.081-5.014C292.617,414.752,302.083,414.884,307.609,418.45Z" transform="translate(-256.446 -406.393)" fill="url(#linear-gradient-18)"/>
              <path id="Path_45" data-name="Path 45" d="M381.319,442.271c-5.148,2.752-13.379,2.734-18.552-.04-2.686-1.441-4.142-3.341-4.369-5.277-.144-1.224-2.753-1.77-4.249-.906l-23.137,13.358L307.969,436.1a1.231,1.231,0,0,1-.437-.407v3.3c-.26.383-.162.842.437,1.187l23.044,13.305,23.137-13.358c1.5-.864,4.105-.317,4.249.906.226,1.935,1.683,3.835,4.369,5.277,5.172,2.774,13.4,2.792,18.552.04,2.777-1.485,4.215-3.471,4.335-5.483l.065.006v-4.081l-.068.012C385.524,438.811,384.088,440.79,381.319,442.271Z" transform="translate(-267.198 -412.562)" fill="url(#linear-gradient-19)"/>
              <path id="Path_46" data-name="Path 46" d="M411.383,406.68l-.064.012-23.09,13.331c-1.494.862-.576,2.388,1.539,2.47.376.015.75.04,1.124.073l20.441-11.8-.013-.008.063,0Z" transform="translate(-284.101 -406.454)" fill="url(#linear-gradient-20)"/>
            </g>
            <g id="Group_41" data-name="Group 41" transform="translate(0 13.104)">
              <path id="Path_47" data-name="Path 47" d="M317.433,428.748a18.832,18.832,0,0,1-9.112,2.489c-2.118.075-3.048,1.578-1.542,2.447l2.7,1.561a18.179,18.179,0,0,0,7.95-2.417c2.553-1.587,3.721-3.685,3.534-5.751l.092,0V423l-.09.024C321.143,425.082,319.975,427.168,317.433,428.748Z" transform="translate(-202.821 -423.002)" fill="url(#linear-gradient-21)"/>
              <path id="Path_48" data-name="Path 48" d="M175.221,453.287Z" transform="translate(-175.215 -429.393)" fill="#fff"/>
              <path id="Path_49" data-name="Path 49" d="M298.967,466.8c-1.176.679-3.142.234-3.311-.726-.352-1.986-1.949-3.916-4.789-5.367-5.132-2.622-13.61-2.664-18.756-.088-4.255,2.129-5.728,5.341-4.451,8.238a9.046,9.046,0,0,1,4.451-4.158c5.146-2.576,13.624-2.535,18.756.088,2.84,1.452,4.437,3.382,4.789,5.367.17.959,2.135,1.405,3.311.726l22.9-13.222v-4.081Z" transform="translate(-194.628 -429.455)" fill="url(#linear-gradient-22)"/>
              <path id="Path_50" data-name="Path 50" d="M196.952,469.181c2.118-.075,3.049-1.578,1.542-2.447L175.219,453.3v4.074l-.006,0,20.578,11.88C196.176,469.221,196.564,469.2,196.952,469.181Z" transform="translate(-175.213 -429.395)" fill="url(#linear-gradient-23)"/>
            </g>
            <path id="Path_51" data-name="Path 51" d="M280.729,478.45a19.37,19.37,0,0,1-8.776-2.307c-2.34-1.351-3.653-3.067-3.954-4.826v2.514c-.394,2.279.921,4.641,3.954,6.393a18.757,18.757,0,0,0,7.653,2.234l2.664-1.538C283.762,480.059,282.844,478.533,280.729,478.45Z" transform="translate(-194.779 -420.094)" fill="url(#linear-gradient-24)"/>
            <path id="Path_52" data-name="Path 52" d="M264.911,482.313a.948.948,0,0,1-.545.72L241.46,496.256l-.006,0v.007L218.2,482.837c-1.5-.868-4.14-.347-4.27.873-.2,1.842-1.508,3.648-3.94,5.053-5.441,3.142-14.369,3.051-19.682-.258a7.024,7.024,0,0,1-3.546-4.608v2.542c-.358,2.185.821,4.45,3.546,6.147,5.313,3.308,14.241,3.4,19.682.257,2.432-1.4,3.744-3.21,3.94-5.053.13-1.221,2.768-1.741,4.27-.873l23.25,13.424v-.007l.006,0,22.905-13.224c.454-.262.611-.594.545-.908Z" transform="translate(-177.638 -422.414)" fill="url(#linear-gradient-25)"/>
            <g id="Group_42" data-name="Group 42" transform="translate(64.385 51.754)">
              <path id="Path_53" data-name="Path 53" d="M361.454,473a19.163,19.163,0,0,0-9.266,2.731c-3.051,1.994-4.039,4.877-2.972,7.46a7.585,7.585,0,0,1,2.972-3.379,19.163,19.163,0,0,1,9.266-2.731c1.089-.061,1.776-.568,1.8-1.1V471.99C363.159,472.489,362.48,472.944,361.454,473Z" transform="translate(-276.23 -471.99)" fill="url(#linear-gradient-21)"/>
              <path id="Path_54" data-name="Path 54" d="M256.832,500.4h0Z" transform="translate(-256.822 -477.985)" fill="#fff"/>
              <path id="Path_55" data-name="Path 55" d="M308.134,512.555a7.628,7.628,0,0,1,2.938,3.37c1.059-2.564.088-5.439-2.938-7.45-5.5-3.658-15.087-3.823-20.882-.477-2.424,1.4-3.783,3.182-4.081,5.014-.155.952-2.121,1.378-3.3.7l-23.045-13.305,0,4.071-.005,0h.005v0l23.05,13.308c1.175.679,3.141.253,3.3-.7.3-1.832,1.657-3.614,4.081-5.013C293.047,508.733,302.63,508.9,308.134,512.555Z" transform="translate(-256.819 -477.986)" fill="url(#linear-gradient-27)"/>
              <path id="Path_56" data-name="Path 56" d="M411.709,504.772l0,0V500.7l-23.095,13.333c-1.494.862-.575,2.388,1.54,2.471.376.015.75.04,1.123.073l20.442-11.8h-.01Z" transform="translate(-284.476 -478.049)" fill="url(#linear-gradient-28)"/>
              <path id="Path_57" data-name="Path 57" d="M331.4,543.407l-23.044-13.3a1.15,1.15,0,0,1-.5-.506v3.534c-.156.352-.033.746.5,1.052l23.044,13.3Z" transform="translate(-267.576 -484.147)" fill="url(#linear-gradient-29)"/>
              <path id="Path_58" data-name="Path 58" d="M388.016,536.28c-5.147,2.753-13.379,2.734-18.551-.04-2.686-1.441-4.142-3.341-4.369-5.277-.143-1.223-2.752-1.769-4.248-.9l-23.137,13.357V547.5l23.137-13.357c1.5-.864,4.105-.318,4.248.906.227,1.935,1.684,3.835,4.369,5.276,5.173,2.775,13.4,2.793,18.551.04,2.775-1.483,4.211-3.467,4.334-5.476h.007v-.062c0-.1,0-.193,0-.289V530.8h-.007C392.226,532.815,390.79,534.8,388.016,536.28Z" transform="translate(-273.89 -484.155)" fill="url(#linear-gradient-30)"/>
            </g>
          </g>
          <g id="Group_50" data-name="Group 50" transform="translate(0.037)">
            <g id="Group_46" data-name="Group 46" transform="translate(0 35.032)">
              <path id="Path_59" data-name="Path 59" d="M280.729,475.6a19.371,19.371,0,0,1-8.776-2.307c-2.34-1.352-3.653-3.068-3.954-4.827v2.515c-.394,2.278.921,4.641,3.954,6.392a18.757,18.757,0,0,0,7.653,2.234l2.664-1.538C283.762,477.208,282.844,475.682,280.729,475.6Z" transform="translate(-194.78 -413.805)" fill="url(#linear-gradient)"/>
              <path id="Path_60" data-name="Path 60" d="M256.832,497.548h0Z" transform="translate(-192.438 -419.942)" fill="#fff"/>
              <g id="Group_44" data-name="Group 44" transform="translate(64.089)">
                <path id="Path_61" data-name="Path 61" d="M307.609,414.68a7.432,7.432,0,0,1,3,3.484,5.494,5.494,0,0,0,.114-3.77c.834-2.544-.212-5.362-3.112-7.233-5.525-3.567-14.992-3.7-20.737-.383-2.424,1.4-3.783,3.182-4.081,5.014-.155.951-2.122,1.378-3.3.7l-23.05-13.307V406.7l23.05,13.308c1.175.678,3.142.252,3.3-.7.3-1.832,1.657-3.614,4.081-5.014C292.617,410.982,302.084,411.113,307.609,414.68Z" transform="translate(-256.445 -399.185)" fill="url(#linear-gradient-32)"/>
                <path id="Path_62" data-name="Path 62" d="M381.319,435.062c-5.148,2.753-13.379,2.734-18.552-.04-2.686-1.441-4.142-3.34-4.369-5.276-.143-1.224-2.752-1.77-4.249-.906L331.013,442.2l-23.044-13.3a1.228,1.228,0,0,1-.436-.407v6.738c-.261.383-.163.843.436,1.188l23.044,13.3,23.136-13.358c1.5-.863,4.106-.317,4.249.906.227,1.935,1.684,3.836,4.369,5.277,5.172,2.775,13.4,2.793,18.552.04,2.777-1.485,4.214-3.472,4.334-5.483l.067,0v-7.518l-.069.012C385.524,431.6,384.088,433.582,381.319,435.062Z" transform="translate(-267.197 -405.354)" fill="url(#linear-gradient-3)"/>
                <path id="Path_63" data-name="Path 63" d="M411.319,399.484l-23.091,13.33c-1.494.862-.575,2.388,1.54,2.471.041,0,.081.006.122.008l-1.662.959c-1.494.862-.575,2.388,1.54,2.471.376.014.75.039,1.123.073l20.441-11.8-.013-.008.063.006v-7.519Z" transform="translate(-284.1 -399.245)" fill="url(#linear-gradient-4)"/>
              </g>
              <g id="Group_45" data-name="Group 45" transform="translate(0 13.104)">
                <path id="Path_64" data-name="Path 64" d="M309.484,431.476a18.171,18.171,0,0,0,7.95-2.417c2.552-1.587,3.721-3.685,3.534-5.751l.092.005v-7.519l-.09.023c.174,2.057-.995,4.142-3.536,5.722a18.823,18.823,0,0,1-9.112,2.49c-2.118.075-3.048,1.578-1.542,2.447l1.7.981c-.052,0-.1.008-.157.01C306.2,427.543,309.484,431.476,309.484,431.476Zm11.487-11.606c0,.058,0,.118,0,.176,0-.058,0-.118,0-.176Z" transform="translate(-202.822 -415.794)" fill="url(#linear-gradient-5)"/>
                <path id="Path_65" data-name="Path 65" d="M298.969,459.593c-1.177.679-3.142.233-3.312-.726-.352-1.986-1.949-3.916-4.789-5.367-5.132-2.622-13.61-2.664-18.756-.088-4.093,2.048-5.6,5.1-4.577,7.906a4.917,4.917,0,0,0,.126,3.77,9.04,9.04,0,0,1,4.451-4.158c5.146-2.576,13.624-2.535,18.756.087,2.84,1.452,4.437,3.382,4.789,5.367.17.959,2.135,1.405,3.312.727l22.9-13.222v-7.518Z" transform="translate(-194.63 -422.247)" fill="url(#linear-gradient-36)"/>
                <path id="Path_66" data-name="Path 66" d="M198.5,459.526,175.22,446.088V453.6l-.005,0,20.577,11.88c.386-.032.773-.058,1.161-.072,2.118-.075,3.049-1.578,1.543-2.447l-1.7-.981c.052,0,.1-.007.156-.01C199.071,461.9,200,460.4,198.5,459.526Z" transform="translate(-175.214 -422.187)" fill="url(#linear-gradient-7)"/>
              </g>
              <path id="Path_67" data-name="Path 67" d="M280.729,471.242a19.37,19.37,0,0,1-8.776-2.307c-2.34-1.351-3.653-3.068-3.954-4.827v2.515c-.394,2.278.921,4.641,3.954,6.392a18.744,18.744,0,0,0,7.653,2.234l2.664-1.538C283.762,472.851,282.844,471.325,280.729,471.242Z" transform="translate(-194.78 -412.886)" fill="url(#linear-gradient)"/>
              <path id="Path_68" data-name="Path 68" d="M264.911,475.105a.95.95,0,0,1-.545.719L241.46,489.048l-.006,0v.006L218.2,475.628c-1.5-.867-4.14-.346-4.27.874-.2,1.842-1.508,3.648-3.94,5.053-5.442,3.141-14.369,3.051-19.682-.258a7.024,7.024,0,0,1-3.546-4.608v5.98c-.358,2.185.821,4.45,3.546,6.147,5.313,3.308,14.24,3.4,19.682.258,2.432-1.4,3.744-3.21,3.94-5.053.13-1.221,2.768-1.741,4.27-.874l23.251,13.424v-.007l.006,0,22.905-13.224c.454-.263.611-.595.545-.909Z" transform="translate(-177.639 -415.206)" fill="url(#linear-gradient-9)"/>
              <path id="Path_69" data-name="Path 69" d="M361.455,465.793a19.17,19.17,0,0,0-9.267,2.731c-2.922,1.909-3.946,4.634-3.09,7.131a5.243,5.243,0,0,0,.118,3.767,7.58,7.58,0,0,1,2.972-3.378,19.17,19.17,0,0,1,9.267-2.731c1.089-.061,1.776-.568,1.8-1.1v-7.427C363.16,465.281,362.482,465.736,361.455,465.793Z" transform="translate(-211.847 -413.028)" fill="url(#linear-gradient-10)"/>
              <path id="Path_70" data-name="Path 70" d="M256.832,493.19h0Z" transform="translate(-192.438 -419.023)" fill="#fff"/>
              <path id="Path_71" data-name="Path 71" d="M308.134,501.266c-5.5-3.659-15.087-3.823-20.882-.477-2.424,1.4-3.783,3.182-4.081,5.014-.155.952-2.121,1.378-3.3.7L256.829,493.2l0,7.509-.005,0h.005v0l23.05,13.308c1.175.678,3.141.252,3.3-.7.3-1.832,1.657-3.613,4.081-5.013,5.795-3.346,15.379-3.182,20.882.477a7.634,7.634,0,0,1,2.938,3.37,5.244,5.244,0,0,0,.118-3.764C312.04,505.911,311.032,503.193,308.134,501.266Z" transform="translate(-192.435 -419.024)" fill="url(#linear-gradient-11)"/>
              <path id="Path_72" data-name="Path 72" d="M411.708,501l0,0v-7.506l-23.094,13.334c-1.494.862-.575,2.388,1.54,2.471.04,0,.08.005.121.008l-1.662.959c-1.494.862-.575,2.388,1.54,2.47.376.015.75.04,1.123.072l20.442-11.8H411.7Z" transform="translate(-220.092 -419.087)" fill="url(#linear-gradient-12)"/>
              <path id="Path_73" data-name="Path 73" d="M308.353,522.894a1.153,1.153,0,0,1-.5-.5v6.971c-.156.353-.033.746.5,1.053L331.4,543.718V536.2Z" transform="translate(-203.192 -425.185)" fill="url(#linear-gradient-43)"/>
              <path id="Path_74" data-name="Path 74" d="M392.35,523.6c-.123,2.009-1.56,3.991-4.334,5.475-5.147,2.752-13.379,2.734-18.551-.04-2.686-1.441-4.143-3.341-4.369-5.277-.143-1.223-2.752-1.769-4.248-.906l-23.136,13.358v7.519l23.136-13.358c1.5-.864,4.1-.317,4.248.906.226,1.935,1.684,3.835,4.369,5.276,5.173,2.775,13.4,2.793,18.551.041,2.775-1.483,4.212-3.467,4.334-5.476h.007v-.062c0-.1,0-.192,0-.289V523.6Z" transform="translate(-209.506 -425.193)" fill="url(#linear-gradient-14)"/>
            </g>
            <g id="Group_47" data-name="Group 47" transform="translate(64.384 72.585)">
              <path id="Path_75" data-name="Path 75" d="M298.018,506.719c-.16-.094-.421-.281-.37-.5.069-.292.595-.628,1.431-.675a19.545,19.545,0,0,0,9.461-2.794c2.3-1.5,3.563-3.531,3.572-5.724s-1.247-4.242-3.535-5.763a20.5,20.5,0,0,0-11.073-2.937,20.78,20.78,0,0,0-10.224,2.447c-2.428,1.4-3.946,3.281-4.274,5.292-.062.379-.771.7-1.549.7a2.368,2.368,0,0,1-1.161-.278l-22.412-12.94.637-.317-.17-.013,21.995-12.7a1.526,1.526,0,0,0,.894-1.67c-.214-.866-1.266-1.483-2.615-1.537a19,19,0,0,1-8.6-2.253c-2.5-1.446-3.864-3.341-3.831-5.333.033-2.032,1.5-3.928,4.144-5.339a19.541,19.541,0,0,1,9.028-2.006,19.741,19.741,0,0,1,9.15,2.045c2.464,1.322,3.943,3.088,4.163,4.975.129,1.1,1.553,1.675,2.894,1.675a3.934,3.934,0,0,0,1.944-.474l22.939-13.244,22.848,13.191c.16.093.421.28.37.5-.069.292-.595.628-1.431.675a19.556,19.556,0,0,0-9.46,2.794c-2.3,1.5-3.564,3.532-3.573,5.724s1.247,4.242,3.535,5.763a20.511,20.511,0,0,0,11.073,2.937,20.788,20.788,0,0,0,10.225-2.447c2.428-1.4,3.946-3.281,4.273-5.292.062-.379.771-.7,1.548-.7a2.361,2.361,0,0,1,1.161.279l22.412,12.94-.637.317.17.012-21.995,12.7a1.525,1.525,0,0,0-.894,1.669c.213.866,1.265,1.483,2.615,1.536a19,19,0,0,1,8.6,2.254c2.5,1.446,3.864,3.34,3.831,5.333-.033,2.033-1.5,3.929-4.144,5.339a19.534,19.534,0,0,1-9.028,2.006,19.745,19.745,0,0,1-9.151-2.046c-2.465-1.321-3.943-3.089-4.163-4.974-.129-1.1-1.553-1.675-2.893-1.675a3.942,3.942,0,0,0-1.944.473l-22.939,13.244Z" transform="translate(-257.044 -446.904)" fill="url(#linear-gradient-45)"/>
              <path id="Path_76" data-name="Path 76" d="M320.236,447.693l22.65,13.076a.873.873,0,0,1,.147.1,1.667,1.667,0,0,1-1.033.333,19.944,19.944,0,0,0-9.654,2.858c-2.41,1.574-3.742,3.724-3.752,6.053s1.308,4.5,3.711,6.093a20.918,20.918,0,0,0,11.292,3,21.18,21.18,0,0,0,10.422-2.5c2.533-1.463,4.119-3.441,4.464-5.564a1.508,1.508,0,0,1,1.161-.376,1.961,1.961,0,0,1,.963.226l21.872,12.627-21.922,12.657a1.9,1.9,0,0,0-1.08,2.107c.257,1.038,1.456,1.776,2.984,1.836a18.587,18.587,0,0,1,8.413,2.2c2.374,1.371,3.664,3.14,3.634,4.984-.031,1.883-1.428,3.658-3.936,5a19.139,19.139,0,0,1-8.841,1.959,19.346,19.346,0,0,1-8.965-2c-2.347-1.259-3.753-2.919-3.959-4.672-.156-1.329-1.77-2.024-3.285-2.024a4.34,4.34,0,0,0-2.141.526l-22.742,13.13-22.65-13.077a.816.816,0,0,1-.147-.1,1.657,1.657,0,0,1,1.033-.333,19.944,19.944,0,0,0,9.654-2.858c2.41-1.574,3.742-3.724,3.752-6.053s-1.309-4.5-3.711-6.093a20.911,20.911,0,0,0-11.292-3,21.18,21.18,0,0,0-10.421,2.5c-2.533,1.463-4.119,3.441-4.464,5.564a1.51,1.51,0,0,1-1.161.375,1.967,1.967,0,0,1-.963-.226L258.4,483.4l.97-.56h-.008l20.955-12.1a1.9,1.9,0,0,0,1.08-2.106c-.257-1.038-1.456-1.777-2.984-1.836A18.606,18.606,0,0,1,270,464.6c-2.374-1.37-3.665-3.141-3.634-4.985.03-1.882,1.428-3.657,3.935-5a19.13,19.13,0,0,1,8.841-1.96,19.345,19.345,0,0,1,8.965,2c2.347,1.259,3.753,2.919,3.958,4.673.156,1.329,1.77,2.024,3.285,2.024a4.334,4.334,0,0,0,2.141-.527l22.742-13.129Zm0-.911L297.1,460.139a3.535,3.535,0,0,1-1.747.421c-1.223,0-2.406-.514-2.5-1.327-.226-1.935-1.684-3.835-4.37-5.276a20.233,20.233,0,0,0-9.337-2.093,20.011,20.011,0,0,0-9.214,2.053c-5.7,3.046-5.8,8.2-.323,11.361a19.372,19.372,0,0,0,8.776,2.307c2.115.083,3.034,1.609,1.54,2.47l-23.1,13.34.01,0,0,0,23.05,13.308a2.751,2.751,0,0,0,1.358.331c.937,0,1.835-.4,1.938-1.03.3-1.832,1.657-3.614,4.081-5.014a20.5,20.5,0,0,1,10.027-2.394,20.075,20.075,0,0,1,10.855,2.871c4.494,2.987,4.477,7.882-.035,10.829a19.158,19.158,0,0,1-9.266,2.731c-1.661.092-2.421,1.224-1.237,1.908l23.044,13.305,23.137-13.358a3.544,3.544,0,0,1,1.747-.42c1.223,0,2.406.514,2.5,1.326.226,1.935,1.684,3.835,4.369,5.277a20.247,20.247,0,0,0,9.338,2.092,20.012,20.012,0,0,0,9.214-2.052c5.7-3.046,5.8-8.2.323-11.361a19.372,19.372,0,0,0-8.776-2.307c-2.115-.083-3.034-1.609-1.54-2.471l23.105-13.34h-.01l0,0L361,470.319a2.745,2.745,0,0,0-1.358-.332c-.937,0-1.836.4-1.939,1.031-.3,1.832-1.657,3.614-4.081,5.014a20.5,20.5,0,0,1-10.027,2.394,20.08,20.08,0,0,1-10.855-2.871c-4.493-2.987-4.476-7.882.035-10.829a19.167,19.167,0,0,1,9.266-2.731c1.661-.091,2.421-1.224,1.237-1.908l-23.044-13.3Z" transform="translate(-256.819 -446.782)" fill="#7c1dc9"/>
            </g>
            <g id="Group_48" data-name="Group 48" transform="translate(64.089)">
              <path id="Path_77" data-name="Path 77" d="M297.625,413.118c-.16-.093-.422-.281-.371-.5.07-.292.6-.628,1.432-.675a19.552,19.552,0,0,0,9.461-2.795,6.967,6.967,0,0,0,3.467-5.748,7.106,7.106,0,0,0-3.58-5.837,22.5,22.5,0,0,0-21.148-.392c-2.429,1.4-3.946,3.281-4.274,5.292-.061.379-.771.7-1.549.7h0a2.355,2.355,0,0,1-1.16-.278L257.445,389.92l57.712-33.32a9.836,9.836,0,0,1,9.835,0L383.1,390.15l-22.513,13a1.526,1.526,0,0,0-.895,1.669c.213.866,1.265,1.484,2.615,1.538a18.987,18.987,0,0,1,8.6,2.253c2.5,1.445,3.864,3.339,3.831,5.333-.033,2.032-1.5,3.928-4.144,5.339a19.524,19.524,0,0,1-9.027,2.006,19.753,19.753,0,0,1-9.153-2.045c-2.465-1.322-3.943-3.09-4.163-4.975-.129-1.1-1.553-1.675-2.893-1.675a3.953,3.953,0,0,0-1.945.474l-22.939,13.244Z" transform="translate(-256.656 -354.888)" fill="url(#linear-gradient-46)"/>
              <path id="Path_78" data-name="Path 78" d="M319.863,355.572a9.453,9.453,0,0,1,4.72,1.265L382.1,390.044,360.179,402.7a1.9,1.9,0,0,0-1.08,2.107c.257,1.038,1.456,1.776,2.984,1.835a18.606,18.606,0,0,1,8.413,2.2c2.374,1.37,3.665,3.141,3.634,4.985-.03,1.882-1.428,3.657-3.935,5a19.14,19.14,0,0,1-8.841,1.959,19.344,19.344,0,0,1-8.965-2c-2.347-1.259-3.753-2.919-3.958-4.673-.155-1.329-1.77-2.024-3.285-2.024a4.33,4.33,0,0,0-2.141.527l-22.742,13.13-22.65-13.077a.849.849,0,0,1-.147-.1,1.663,1.663,0,0,1,1.033-.332,19.955,19.955,0,0,0,9.655-2.859A7.349,7.349,0,0,0,311.8,403.3a7.493,7.493,0,0,0-3.76-6.168,22.9,22.9,0,0,0-21.559-.4c-2.533,1.463-4.119,3.441-4.464,5.564a1.51,1.51,0,0,1-1.161.376,1.958,1.958,0,0,1-.963-.226l-21.866-12.624,57.119-32.977a9.454,9.454,0,0,1,4.721-1.265Zm0-.789a10.225,10.225,0,0,0-5.115,1.37l-58.3,33.661,23.05,13.308a2.741,2.741,0,0,0,1.357.332c.937,0,1.836-.4,1.939-1.031.3-1.832,1.657-3.614,4.081-5.013a20.487,20.487,0,0,1,10.027-2.394,20.207,20.207,0,0,1,10.71,2.776c4.466,2.882,4.561,8.016.111,10.923a19.173,19.173,0,0,1-9.267,2.731c-1.66.092-2.42,1.225-1.236,1.908l23.044,13.3L343.4,413.3a3.535,3.535,0,0,1,1.747-.421c1.223,0,2.406.514,2.5,1.327.226,1.935,1.684,3.835,4.369,5.276a20.234,20.234,0,0,0,9.338,2.093,20.011,20.011,0,0,0,9.214-2.053c5.7-3.046,5.8-8.2.323-11.361a19.373,19.373,0,0,0-8.777-2.307c-2.115-.083-3.034-1.609-1.54-2.471l23.106-13.339-58.7-33.891a10.226,10.226,0,0,0-5.116-1.37Z" transform="translate(-256.445 -354.783)" fill="#7c1dc9"/>
            </g>
            <g id="Group_49" data-name="Group 49" transform="translate(0 35.416)">
              <path id="Path_79" data-name="Path 79" d="M238.852,472.539v.036L216.187,459.49a4.028,4.028,0,0,0-1.987-.484c-1.34,0-2.756.569-2.872,1.657-.189,1.779-1.52,3.467-3.745,4.754a20.847,20.847,0,0,1-19.276-.253c-2.21-1.377-3.427-3.169-3.427-5.049,0-1.864,1.2-3.636,3.381-4.99a18.383,18.383,0,0,1,8.917-2.43c1.356-.049,2.412-.658,2.626-1.518a1.526,1.526,0,0,0-.9-1.666l-22.691-13.1,62.635-36.162L261.9,413.558a4.033,4.033,0,0,0,1.988.484c1.34,0,2.756-.569,2.871-1.656.19-1.78,1.52-3.468,3.746-4.754a20.846,20.846,0,0,1,19.275.253c2.211,1.377,3.428,3.169,3.427,5.049,0,1.864-1.2,3.636-3.381,4.991a18.391,18.391,0,0,1-8.918,2.431c-1.356.048-2.411.658-2.625,1.517a1.524,1.524,0,0,0,.9,1.665l22.689,13.1-22.309,12.88a2.314,2.314,0,0,1-1.139.274h0c-.791,0-1.516-.333-1.587-.727-.389-2.195-2.164-4.2-5-5.651a23.919,23.919,0,0,0-19.112-.088c-3.18,1.591-5.047,3.922-5.12,6.395-.072,2.416,1.492,4.672,4.4,6.353a20.487,20.487,0,0,0,8.884,2.44c.828.047,1.35.386,1.419.679.051.217-.205.4-.362.493l-22.7,13.106Z" transform="translate(-175.425 -399.794)" fill="url(#linear-gradient-47)"/>
              <path id="Path_80" data-name="Path 80" d="M238.637,400.582l22.856,13.2a4.423,4.423,0,0,0,2.185.536c1.469,0,3.117-.629,3.264-2.009.176-1.652,1.437-3.233,3.55-4.454a20.455,20.455,0,0,1,18.87.245c2.091,1.3,3.242,2.977,3.241,4.715,0,1.722-1.135,3.375-3.2,4.656a18,18,0,0,1-8.722,2.372c-1.534.054-2.737.784-2.994,1.815a1.9,1.9,0,0,0,1.086,2.1l22.1,12.758-21.717,12.538a1.924,1.924,0,0,1-.942.221,1.522,1.522,0,0,1-1.2-.4c-.411-2.32-2.26-4.426-5.206-5.932a24.309,24.309,0,0,0-19.469-.091c-3.314,1.659-5.26,4.114-5.338,6.737-.076,2.567,1.557,4.948,4.6,6.706a20.881,20.881,0,0,0,9.059,2.492,1.621,1.621,0,0,1,1.023.337.786.786,0,0,1-.141.1l-22.512,13-.8-.458h0l-22.06-12.736a4.429,4.429,0,0,0-2.185-.536c-1.469,0-3.117.629-3.264,2.009-.176,1.651-1.437,3.232-3.55,4.453a20.456,20.456,0,0,1-18.87-.245c-2.091-1.3-3.242-2.977-3.241-4.715,0-1.721,1.135-3.375,3.195-4.656a17.993,17.993,0,0,1,8.723-2.371c1.534-.054,2.737-.784,2.994-1.816a1.9,1.9,0,0,0-1.086-2.1l-22.1-12.758,61.845-35.706Zm0-.911-.006,0L175.22,436.286l-.005,0,23.281,13.442c1.506.869.576,2.372-1.542,2.447a18.823,18.823,0,0,0-9.111,2.49c-4.773,2.968-4.753,7.721.047,10.71a21.233,21.233,0,0,0,19.681.258c2.432-1.4,3.744-3.21,3.94-5.053.086-.8,1.259-1.3,2.48-1.3a3.631,3.631,0,0,1,1.79.431l23.251,13.423v-.006l.006,0,22.905-13.224c1.168-.675.418-1.812-1.231-1.908A20.006,20.006,0,0,1,252,455.61c-5.831-3.366-5.607-8.9.7-12.053a21.328,21.328,0,0,1,9.258-1.906,21.547,21.547,0,0,1,9.5,1.994c2.84,1.452,4.437,3.382,4.789,5.367.113.641,1.029,1.053,1.975,1.053a2.7,2.7,0,0,0,1.336-.327l22.9-13.222-23.281-13.442c-1.506-.87-.576-2.372,1.542-2.447a18.833,18.833,0,0,0,9.112-2.489c4.773-2.969,4.753-7.722-.047-10.711a21.232,21.232,0,0,0-19.681-.258c-2.432,1.4-3.745,3.21-3.941,5.053-.085.8-1.258,1.3-2.479,1.3a3.643,3.643,0,0,1-1.791-.43l-23.25-13.424Z" transform="translate(-175.214 -399.672)" fill="#7c1dc9"/>
            </g>
          </g>
          <g id="Group_51" data-name="Group 51" transform="translate(64.281 85.188)" style="mix-blend-mode: color-dodge;isolation: isolate">
            <path id="Path_81" data-name="Path 81" d="M351.857,467.388c-2.534,1.655-3.647,3.926-3.337,6.128a6.879,6.879,0,0,1,3.337-4.716,19.138,19.138,0,0,1,9.251-2.727c1.6-.088,2.34-1.135,1.341-1.822a2.617,2.617,0,0,1-1.341.409A19.132,19.132,0,0,0,351.857,467.388Z" transform="translate(-276.019 -463.073)" fill="url(#radial-gradient)"/>
            <path id="Path_82" data-name="Path 82" d="M271.752,469.038a19.352,19.352,0,0,0,8.762,2.3,2.817,2.817,0,0,1,1.956.732c.842-.872-.088-2.072-1.956-2.145a19.342,19.342,0,0,1-8.762-2.3c-2.359-1.362-3.675-3.094-3.959-4.868C267.456,465,268.768,467.315,271.752,469.038Z" transform="translate(-258.984 -462.757)" fill="url(#radial-gradient-2)"/>
            <path id="Path_83" data-name="Path 83" d="M411.284,493.747l-1.217-.7-21.844,12.612c-.854.492-.915,1.2-.418,1.734a1.866,1.866,0,0,1,.418-.322l23.068-13.318-.01,0Z" transform="translate(-284.254 -469.148)" fill="url(#radial-gradient-3)"/>
            <path id="Path_84" data-name="Path 84" d="M381.323,527.679c-5.139,2.747-13.358,2.73-18.522-.04-2.682-1.439-4.136-3.336-4.362-5.268-.144-1.221-2.747-1.766-4.242-.9L331.1,534.8l-23.008-13.283c-.044-.026-.068-.056-.107-.083-.6.414-.668,1.049.107,1.5L331.1,536.216l23.1-13.337c1.494-.862,4.1-.316,4.242.9.226,1.932,1.68,3.83,4.362,5.268,5.164,2.77,13.383,2.788,18.522.04,3.234-1.729,4.656-4.138,4.282-6.475C385.324,524.481,383.906,526.3,381.323,527.679Z" transform="translate(-267.378 -475.058)" fill="url(#radial-gradient-4)"/>
            <path id="Path_85" data-name="Path 85" d="M307.874,501.518a6.938,6.938,0,0,1,3.3,4.683c.3-2.179-.8-4.433-3.3-6.1-5.494-3.653-15.062-3.816-20.848-.476-2.421,1.4-3.778,3.176-4.075,5.005-.155.951-2.118,1.375-3.291.7l-21.8-12.583-1.224.706h.011l0,0,23.013,13.286c1.172.678,3.136.253,3.291-.7.3-1.83,1.654-3.609,4.075-5.006C292.811,497.7,302.379,497.865,307.874,501.518Z" transform="translate(-256.641 -469.086)" fill="url(#radial-gradient-5)"/>
          </g>
          <g id="Group_52" data-name="Group 52" transform="translate(63.986 34.802)" style="mix-blend-mode: color-dodge;isolation: isolate">
            <path id="Path_86" data-name="Path 86" d="M307.351,407.564a6.894,6.894,0,0,1,3.343,4.825c.3-2.259-.819-4.608-3.343-6.237-5.517-3.561-14.969-3.692-20.7-.381-2.42,1.4-3.778,3.176-4.075,5.005-.155.95-2.117,1.375-3.291.7l-21.789-12.58-1.224.706,23.013,13.286c1.173.678,3.136.252,3.291-.7.3-1.83,1.655-3.609,4.075-5.006C292.382,403.872,301.833,404,307.351,407.564Z" transform="translate(-256.268 -398.894)" fill="url(#radial-gradient-6)"/>
            <path id="Path_87" data-name="Path 87" d="M387.841,411.8c-.854.493-.915,1.2-.418,1.735a1.886,1.886,0,0,1,.418-.322l23.069-13.319-1.224-.706Z" transform="translate(-283.879 -398.955)" fill="url(#radial-gradient-7)"/>
            <path id="Path_88" data-name="Path 88" d="M380.943,433.819c-5.14,2.748-13.358,2.731-18.522-.04-2.682-1.438-4.137-3.335-4.362-5.268-.144-1.221-2.748-1.767-4.241-.9l-23.1,13.336L307.711,427.66a1.327,1.327,0,0,1-.107-.083c-.6.414-.668,1.049.107,1.5l23.007,13.284,23.1-13.337c1.493-.862,4.1-.317,4.241.9.226,1.932,1.68,3.83,4.362,5.268,5.164,2.77,13.382,2.788,18.522.04,3.234-1.729,4.657-4.138,4.282-6.476C384.944,430.622,383.526,432.438,380.943,433.819Z" transform="translate(-267.004 -404.865)" fill="url(#radial-gradient-8)"/>
          </g>
          <g id="Group_53" data-name="Group 53" transform="translate(0 48.311)" style="mix-blend-mode: color-dodge;isolation: isolate">
            <path id="Path_89" data-name="Path 89" d="M198.827,460.162c.5-.525.447-1.232-.417-1.73l-22.02-12.714-1.218.7-.006,0,23.244,13.42A1.91,1.91,0,0,1,198.827,460.162Z" transform="translate(-175.167 -422.284)" fill="url(#radial-gradient-9)"/>
            <path id="Path_90" data-name="Path 90" d="M317.159,420.621a18.8,18.8,0,0,1-9.1,2.485c-1.874.066-2.812,1.252-1.956,2.125a2.848,2.848,0,0,1,1.956-.712,18.8,18.8,0,0,0,9.1-2.486c2.663-1.656,3.829-3.868,3.506-6.018A6.887,6.887,0,0,1,317.159,420.621Z" transform="translate(-202.732 -416.016)" fill="url(#radial-gradient-10)"/>
            <path id="Path_91" data-name="Path 91" d="M298.723,458.5c-1.174.678-3.137.233-3.307-.725-.351-1.983-1.946-3.909-4.782-5.359-5.124-2.619-13.588-2.659-18.726-.087-3.614,1.809-5.215,4.4-4.829,6.917.294-2.044,1.891-4.033,4.829-5.5,5.139-2.572,13.6-2.531,18.726.088,2.836,1.449,4.431,3.376,4.782,5.359.17.957,2.133,1.4,3.307.724l22.864-13.2-1.224-.706Z" transform="translate(-194.551 -422.345)" fill="url(#radial-gradient-11)"/>
            <path id="Path_92" data-name="Path 92" d="M264.277,474.462c-.037.025-.059.054-.1.079l-22.868,13.2-.006,0v.007l-23.212-13.4c-1.5-.866-4.134-.346-4.264.873-.2,1.839-1.506,3.643-3.935,5.045-5.432,3.136-14.346,3.045-19.649-.258a6.965,6.965,0,0,1-3.552-4.675c-.332,2.166.851,4.406,3.552,6.089,5.3,3.3,14.217,3.393,19.649.258,2.428-1.4,3.738-3.206,3.935-5.045.129-1.219,2.762-1.739,4.264-.873l23.212,13.4v-.007l.006,0,22.868-13.2C264.939,475.513,264.871,474.877,264.277,474.462Z" transform="translate(-177.587 -428.234)" fill="url(#radial-gradient-12)"/>
          </g>
        </g>
        <g id="Group_62" data-name="Group 62" transform="translate(776.238 5087.033)">
          <g id="Group_56" data-name="Group 56" transform="translate(0.063 10.314)">
            <path id="Path_93" data-name="Path 93" d="M386.759,404.063c-1.168.674-.418,1.812,1.232,1.907a20,20,0,0,1,8.709,2.388c5.831,3.367,5.608,8.9-.7,12.054-5.146,2.575-13.625,2.535-18.756-.087-2.841-1.453-4.437-3.382-4.789-5.368-.17-.959-2.136-1.4-3.312-.726l-22.9,13.222,23.282,13.442c1.506.87.576,2.373-1.542,2.447a18.829,18.829,0,0,0-9.112,2.49c-4.773,2.968-4.753,7.721.047,10.71,5.312,3.309,14.241,3.4,19.681.258,2.432-1.4,3.745-3.21,3.942-5.053.129-1.221,2.767-1.741,4.269-.873L410.064,464.3l22.9-13.222c1.176-.678.4-1.814-1.258-1.912a19.4,19.4,0,0,1-9.3-2.765c-4.542-2.963-4.612-7.857-.151-10.829,5.464-3.639,15.046-3.768,20.878-.4,2.439,1.408,3.818,3.2,4.136,5.029.165.952,2.136,1.385,3.3.711l22.906-13.225-63.817-36.844Z" transform="translate(-346.247 -390.838)" fill="url(#linear-gradient-48)"/>
            <g id="Group_55" data-name="Group 55" transform="translate(0 14.05)">
              <path id="Path_94" data-name="Path 94" d="M369.529,454.125l-1.7-.981c.053,0,.1-.008.158-.01,2.118-.075,3.048-1.578,1.542-2.447l-23.281-13.442h0v7.519l20.577,11.88c.387-.032.773-.058,1.163-.072C370.1,456.5,371.035,454.994,369.529,454.125Z" transform="translate(-346.247 -414.681)" fill="url(#linear-gradient-49)"/>
              <path id="Path_95" data-name="Path 95" d="M407.38,412.116a20,20,0,0,0-8.709-2.388c-1.061-.061-1.74-.554-1.786-1.077l-.03,0v7.519l.031,0c.039.526.718,1.025,1.785,1.086a20,20,0,0,1,8.709,2.388,8.631,8.631,0,0,1,3.755,3.815,4.919,4.919,0,0,0,.126-3.769C412.231,417.041,410.946,414.174,407.38,412.116Z" transform="translate(-356.927 -408.646)" fill="url(#linear-gradient-50)"/>
              <path id="Path_96" data-name="Path 96" d="M450.543,466.511a1.115,1.115,0,0,1-.51.533l-22.9,13.222v7.518l22.9-13.222c.5-.287.63-.655.51-.992Z" transform="translate(-363.316 -420.857)" fill="url(#linear-gradient-51)"/>
              <path id="Path_97" data-name="Path 97" d="M389.231,466.816c-1.5-.868-4.14-.347-4.27.873-.2,1.842-1.509,3.648-3.94,5.053-5.441,3.141-14.37,3.051-19.681-.258-2.35-1.463-3.546-3.348-3.6-5.241l-.029,0v7.519l.029,0c.054,1.9,1.251,3.785,3.6,5.25,5.311,3.309,14.24,3.4,19.681.258,2.432-1.4,3.744-3.21,3.94-5.053.13-1.22,2.767-1.74,4.27-.873l23.251,13.424v-7.518Z" transform="translate(-348.665 -420.831)" fill="url(#linear-gradient-52)"/>
              <path id="Path_98" data-name="Path 98" d="M470.026,450.762c-1.168.674-3.138.241-3.3-.712-.318-1.833-1.7-3.62-4.136-5.028-5.831-3.367-15.413-3.237-20.878.4-2.855,1.9-3.838,4.589-2.995,7.057a5.251,5.251,0,0,0,.115,3.76,7.52,7.52,0,0,1,2.88-3.3c5.465-3.639,15.047-3.768,20.878-.4,2.439,1.408,3.818,3.2,4.136,5.028.165.953,2.136,1.385,3.3.712l22.906-13.225v-7.519Z" transform="translate(-365.698 -414.743)" fill="url(#linear-gradient-53)"/>
            </g>
          </g>
          <g id="Group_57" data-name="Group 57" transform="translate(0.063 19.738)">
            <path id="Path_99" data-name="Path 99" d="M367.987,447.27c2.118-.076,3.048-1.578,1.542-2.447l-23.281-13.442h0v4.081l20.577,11.88C367.211,447.31,367.6,447.283,367.987,447.27Z" transform="translate(-346.247 -408.817)" fill="url(#linear-gradient-54)"/>
            <path id="Path_100" data-name="Path 100" d="M398.67,407.944a20.01,20.01,0,0,1,8.709,2.387,8.632,8.632,0,0,1,3.755,3.815c1.207-2.727-.039-5.75-3.755-7.9a20.009,20.009,0,0,0-8.709-2.387c-1.061-.062-1.74-.555-1.786-1.078l-.03,0v4.081l.031,0C396.923,407.384,397.6,407.883,398.67,407.944Z" transform="translate(-356.927 -402.782)" fill="url(#linear-gradient-55)"/>
            <path id="Path_101" data-name="Path 101" d="M427.133,478.481l22.9-13.222c.5-.287.63-.655.51-.993v-3.621a1.111,1.111,0,0,1-.51.533l-22.9,13.222Z" transform="translate(-363.316 -414.993)" fill="url(#linear-gradient-56)"/>
            <path id="Path_102" data-name="Path 102" d="M412.482,474.374l-23.25-13.424c-1.5-.868-4.141-.347-4.271.873-.2,1.842-1.509,3.649-3.94,5.053-5.441,3.141-14.37,3.05-19.681-.258-2.35-1.464-3.546-3.349-3.6-5.241l-.029,0v4.081l.029,0c.054,1.9,1.251,3.785,3.6,5.25,5.311,3.309,14.24,3.4,19.681.258,2.432-1.4,3.744-3.21,3.94-5.054.13-1.22,2.767-1.74,4.271-.873l23.25,13.424Z" transform="translate(-348.665 -414.966)" fill="url(#linear-gradient-57)"/>
            <path id="Path_103" data-name="Path 103" d="M470.025,444.9c-1.167.675-3.138.241-3.3-.711-.318-1.834-1.7-3.621-4.136-5.028-5.831-3.367-15.413-3.238-20.878.4-2.98,1.984-3.927,4.826-2.881,7.378a7.524,7.524,0,0,1,2.881-3.3c5.464-3.639,15.046-3.768,20.878-.4,2.439,1.408,3.818,3.2,4.136,5.028.165.952,2.136,1.385,3.3.711l22.906-13.224v-4.081Z" transform="translate(-365.697 -408.879)" fill="url(#linear-gradient-58)"/>
          </g>
          <g id="Group_60" data-name="Group 60" transform="translate(0.063)">
            <g id="Group_58" data-name="Group 58" transform="translate(0 14.05)">
              <path id="Path_104" data-name="Path 104" d="M369.529,441.052l-1.7-.981c.053,0,.1-.008.158-.01,2.118-.075,3.048-1.578,1.542-2.447l-23.281-13.441h0v7.518l20.577,11.881c.387-.033.773-.059,1.163-.073C370.1,443.425,371.035,441.922,369.529,441.052Z" transform="translate(-346.247 -401.608)" fill="url(#linear-gradient-49)"/>
              <path id="Path_105" data-name="Path 105" d="M407.38,399.043a19.988,19.988,0,0,0-8.709-2.387c-1.061-.062-1.74-.555-1.786-1.078l-.03,0v7.519l.031,0c.039.526.718,1.025,1.785,1.086a20,20,0,0,1,8.709,2.388,8.631,8.631,0,0,1,3.755,3.815,4.919,4.919,0,0,0,.126-3.769C412.231,403.968,410.946,401.1,407.38,399.043Z" transform="translate(-356.927 -395.573)" fill="url(#linear-gradient-50)"/>
              <path id="Path_106" data-name="Path 106" d="M450.543,453.438a1.114,1.114,0,0,1-.51.533l-22.9,13.222v7.519l22.9-13.222c.5-.287.63-.654.51-.992Z" transform="translate(-363.316 -407.784)" fill="url(#linear-gradient-51)"/>
              <path id="Path_107" data-name="Path 107" d="M389.231,453.743c-1.5-.868-4.14-.347-4.27.873-.2,1.842-1.509,3.648-3.94,5.053-5.441,3.141-14.37,3.051-19.681-.258-2.35-1.463-3.546-3.348-3.6-5.241l-.029,0v7.519l.029,0c.054,1.9,1.251,3.785,3.6,5.25,5.311,3.309,14.24,3.4,19.681.258,2.432-1.4,3.744-3.21,3.94-5.053.13-1.221,2.767-1.741,4.27-.873l23.251,13.424v-7.519Z" transform="translate(-348.665 -407.758)" fill="url(#linear-gradient-52)"/>
              <path id="Path_108" data-name="Path 108" d="M470.026,437.689c-1.168.675-3.138.241-3.3-.711-.318-1.834-1.7-3.621-4.136-5.029-5.831-3.366-15.413-3.237-20.878.4-2.855,1.9-3.838,4.59-2.995,7.057a5.251,5.251,0,0,0,.115,3.76,7.521,7.521,0,0,1,2.88-3.3c5.465-3.639,15.047-3.768,20.878-.4,2.439,1.408,3.818,3.2,4.136,5.029.165.952,2.136,1.385,3.3.711l22.906-13.225v-7.519Z" transform="translate(-365.698 -401.67)" fill="url(#linear-gradient-53)"/>
            </g>
            <g id="Group_59" data-name="Group 59">
              <path id="Path_109" data-name="Path 109" d="M387.221,437.58a4.03,4.03,0,0,0-1.987-.484c-1.34,0-2.756.57-2.871,1.658-.19,1.78-1.52,3.468-3.746,4.753a20.842,20.842,0,0,1-19.275-.252c-2.211-1.377-3.428-3.17-3.427-5.049,0-1.863,1.2-3.636,3.381-4.991a18.4,18.4,0,0,1,8.917-2.43c1.356-.048,2.411-.658,2.625-1.516a1.525,1.525,0,0,0-.9-1.666l-22.69-13.1,22.309-12.881a2.315,2.315,0,0,1,1.139-.274c.79,0,1.517.333,1.587.727.39,2.195,2.165,4.2,5,5.65a23.915,23.915,0,0,0,19.112.089c3.18-1.591,5.047-3.923,5.121-6.4.072-2.416-1.492-4.672-4.4-6.353a20.486,20.486,0,0,0-8.883-2.44c-.829-.047-1.35-.385-1.419-.678-.052-.217.2-.4.361-.493l22.708-13.111,63.028,36.39-22.314,12.883a2.333,2.333,0,0,1-1.145.274c-.786,0-1.506-.326-1.573-.711-.348-2.01-1.886-3.894-4.327-5.3a21.013,21.013,0,0,0-10.341-2.484,20.266,20.266,0,0,0-10.953,2.9,6.911,6.911,0,0,0-3.476,5.7c.011,2.212,1.3,4.267,3.632,5.787a19.778,19.778,0,0,0,9.489,2.829c.9.054,1.386.435,1.445.688.051.215-.2.4-.362.489l-22.7,13.108Z" transform="translate(-346.458 -377.887)" fill="url(#linear-gradient-64)"/>
              <path id="Path_110" data-name="Path 110" d="M409.665,378.676,471.9,414.609l-21.723,12.541a1.928,1.928,0,0,1-.948.221,1.536,1.536,0,0,1-1.184-.383c-.369-2.127-1.973-4.107-4.518-5.577a21.422,21.422,0,0,0-10.538-2.536,20.666,20.666,0,0,0-11.171,2.964,7.288,7.288,0,0,0-3.653,6.03c.012,2.349,1.365,4.521,3.811,6.116a20.175,20.175,0,0,0,9.681,2.892,1.675,1.675,0,0,1,1.048.345.817.817,0,0,1-.138.1l-22.506,12.994-22.857-13.2a4.423,4.423,0,0,0-2.185-.537c-1.469,0-3.117.629-3.264,2.01-.176,1.651-1.437,3.233-3.551,4.453a20.449,20.449,0,0,1-18.869-.245c-2.091-1.3-3.242-2.976-3.241-4.715,0-1.722,1.135-3.375,3.195-4.656a18,18,0,0,1,8.723-2.371c1.534-.054,2.737-.784,2.994-1.816a1.9,1.9,0,0,0-1.086-2.1l-22.1-12.758,21.717-12.539a1.925,1.925,0,0,1,.943-.221,1.518,1.518,0,0,1,1.2.4c.411,2.32,2.26,4.426,5.207,5.932a24.308,24.308,0,0,0,19.468.091c3.314-1.659,5.26-4.115,5.338-6.737.077-2.566-1.557-4.948-4.6-6.705a20.876,20.876,0,0,0-9.058-2.492,1.623,1.623,0,0,1-1.023-.337.774.774,0,0,1,.14-.1l22.511-13Zm0-.911L386.759,390.99c-1.168.674-.418,1.812,1.232,1.908a19.988,19.988,0,0,1,8.709,2.387c5.831,3.367,5.608,8.9-.7,12.054a21.328,21.328,0,0,1-9.258,1.905,21.55,21.55,0,0,1-9.5-1.993c-2.841-1.452-4.437-3.382-4.789-5.367-.114-.641-1.03-1.053-1.975-1.053a2.706,2.706,0,0,0-1.337.327l-22.9,13.222,23.282,13.441c1.506.869.576,2.372-1.542,2.447a18.846,18.846,0,0,0-9.112,2.49c-4.773,2.969-4.753,7.721.047,10.71a21.226,21.226,0,0,0,19.681.258c2.432-1.4,3.745-3.21,3.942-5.053.085-.8,1.258-1.3,2.479-1.3a3.631,3.631,0,0,1,1.79.431l23.251,13.424L432.964,438c1.176-.679.4-1.815-1.258-1.913a19.405,19.405,0,0,1-9.3-2.765c-4.542-2.963-4.612-7.858-.151-10.829a19.827,19.827,0,0,1,10.734-2.832,20.738,20.738,0,0,1,10.144,2.43c2.439,1.408,3.818,3.2,4.136,5.029.11.634,1.02,1.037,1.961,1.037a2.707,2.707,0,0,0,1.342-.327l22.906-13.225-63.817-36.844Z" transform="translate(-346.247 -377.765)" fill="#7c1dc9"/>
            </g>
          </g>
          <g id="Group_61" data-name="Group 61" transform="translate(0 36.058)" style="mix-blend-mode: color-dodge;isolation: isolate">
            <path id="Path_111" data-name="Path 111" d="M369.827,437.912c.5-.525.447-1.232-.417-1.73l-22.02-12.714-1.218.7-.006,0,23.244,13.42A1.913,1.913,0,0,1,369.827,437.912Z" transform="translate(-346.167 -423.468)" fill="url(#radial-gradient-13)"/>
            <path id="Path_112" data-name="Path 112" d="M469.723,436.249c-1.174.678-3.137.233-3.307-.725-.351-1.983-1.946-3.909-4.782-5.359-5.124-2.619-13.588-2.659-18.726-.088-3.614,1.809-5.215,4.4-4.829,6.917.294-2.044,1.891-4.033,4.829-5.5,5.139-2.572,13.6-2.531,18.726.088,2.836,1.449,4.431,3.376,4.782,5.359.17.957,2.133,1.4,3.307.725l22.864-13.2-1.224-.706Z" transform="translate(-365.551 -423.528)" fill="url(#radial-gradient-14)"/>
            <path id="Path_113" data-name="Path 113" d="M435.277,452.212c-.037.025-.059.054-.1.079l-22.868,13.2-.006,0v.007l-23.212-13.4c-1.5-.866-4.134-.346-4.264.873-.2,1.839-1.506,3.643-3.935,5.045-5.432,3.136-14.346,3.045-19.649-.258a6.965,6.965,0,0,1-3.552-4.675c-.332,2.166.851,4.406,3.552,6.088,5.3,3.3,14.217,3.393,19.649.258,2.428-1.4,3.738-3.206,3.935-5.045.129-1.219,2.762-1.739,4.264-.873l23.212,13.4V466.9l.006,0,22.868-13.2C435.939,453.263,435.871,452.628,435.277,452.212Z" transform="translate(-348.587 -429.418)" fill="url(#radial-gradient-15)"/>
          </g>
        </g>
        <g id="Group_65" data-name="Group 65" transform="translate(763.145 5156.359)">
          <path id="Path_119" data-name="Path 119" d="M352.307,466.689a7.89,7.89,0,1,0,10.814,2.749A7.889,7.889,0,0,0,352.307,466.689Z" transform="translate(-333.556 -465.58)" fill="url(#radial-gradient-16)" style="mix-blend-mode: screen;isolation: isolate"/>
          <path id="Path_120" data-name="Path 120" d="M345.766,472.147a6.9,6.9,0,1,0,9.462,2.4A6.9,6.9,0,0,0,345.766,472.147Z" transform="translate(-332.278 -466.761)" opacity="0.825" fill="url(#radial-gradient-17)" style="mix-blend-mode: screen;isolation: isolate"/>
          <path id="Path_121" data-name="Path 121" d="M339.955,477.17a5.917,5.917,0,1,0,8.111,2.062A5.917,5.917,0,0,0,339.955,477.17Z" transform="translate(-331.153 -467.85)" opacity="0.65" fill="url(#radial-gradient-18)" style="mix-blend-mode: screen;isolation: isolate"/>
          <path id="Path_122" data-name="Path 122" d="M335.363,481.469a4.931,4.931,0,1,0,6.759,1.718A4.932,4.932,0,0,0,335.363,481.469Z" transform="translate(-330.286 -468.786)" opacity="0.475" fill="url(#radial-gradient-19)" style="mix-blend-mode: screen;isolation: isolate"/>
          <path id="Path_123" data-name="Path 123" d="M331.5,485.335a3.944,3.944,0,1,0,5.407,1.374A3.945,3.945,0,0,0,331.5,485.335Z" transform="translate(-329.573 -469.631)" opacity="0.3" fill="url(#radial-gradient-20)" style="mix-blend-mode: screen;isolation: isolate"/>
        </g>
        <g id="Group_66" data-name="Group 66" transform="translate(0 0)" style="mix-blend-mode: color-dodge;isolation: isolate">
          <path id="Path_124" data-name="Path 124" d="M224.333,544.943l-2-3.661-23.446,12.626-23.446,12.625a2.087,2.087,0,0,0-.835,2.835h0a2.088,2.088,0,0,0,2.828.832l23.451-12.628Z" transform="translate(466.33 4674.948)" fill="url(#linear-gradient-65)"/>
          <g id="Rectangle_94" data-name="Rectangle 94" fill="none" stroke="#707070" stroke-width="1">
            <rect width="1080.167" height="7069.822" stroke="none"/>
            <rect x="0.5" y="0.5" width="1079.167" height="7068.822" fill="none"/>
          </g>
          <path id="Path_125" data-name="Path 125" d="M221.081,546.308,200.13,557.874l-.727.4L179.2,569.43a3.261,3.261,0,0,1-1.6.411,1.1,1.1,0,0,1-.93-.581h0a1.127,1.127,0,0,1,.022-1.141c.054-.3.839-.89,1.127-1.047l20.458-10.941.865-.461,19.586-10.475Z" transform="translate(465.87 4674.121)" fill="url(#linear-gradient-66)"/>
          <path id="Path_126" data-name="Path 126" d="M217.814,547.29l-19.1,10.873-19.1,10.873a.668.668,0,0,1-.9-.266h0a.667.667,0,0,1,.267-.907L198.4,557.577Z" transform="translate(465.425 4673.679)" fill="url(#linear-gradient-67)"/>
        </g>
      </g>
    </g>
    <line id="Line_54" data-name="Line 54" y1="45.442" transform="translate(222.974 183.88)" fill="#fff" stroke="#231f20" stroke-linecap="round" stroke-linejoin="round" stroke-width="3"/>
    <g transform="matrix(1, 0, 0, 1, -9, 0)" filter="url(#Rectangle_236)">
      <rect id="Rectangle_236-2" data-name="Rectangle 236" width="71.424" height="31.149" rx="15.575" transform="translate(195 159.23)" fill="#fff"/>
    </g>
    <text id="Sales-2" data-name="Sales" transform="translate(221 177.233)" font-size="8" font-family="SegoeUI, Segoe UI"><tspan x="-8.918" y="0">Sales</tspan></text>
    <g id="Component_2_6" data-name="Component 2 – 6" transform="translate(184.425 159.132)" opacity="0.49">
      <g id="Mask_Group_1-5" data-name="Mask Group 1" transform="translate(0 0)" clip-path="url(#clip-path-6)">
        <g id="Rectangle_6-5" data-name="Rectangle 6" fill="none" stroke="#100101" stroke-width="7">
          <rect width="79.926" height="41.199" rx="20.599" stroke="none"/>
          <rect x="3.5" y="3.5" width="72.926" height="34.199" rx="17.099" fill="none"/>
        </g>
        <g id="Rectangle_7-5" data-name="Rectangle 7" transform="translate(-5.768 -4.944)" fill="none" stroke="#fff" stroke-width="7">
          <rect width="78.278" height="35.431" rx="17.716" stroke="none"/>
          <rect x="3.5" y="3.5" width="71.278" height="28.431" rx="14.216" fill="none"/>
        </g>
      </g>
    </g>
  </g>
</svg>
