<svg xmlns="http://www.w3.org/2000/svg" width="62.249" height="62.49" viewBox="0 0 62.249 62.49">
  <g id="object" transform="translate(-1.751 13.797)">
    <g id="Group_873" data-name="Group 873" transform="translate(12.285 -13.797)">
      <g id="Group_872" data-name="Group 872" transform="translate(0)">
        <path id="Path_1966" data-name="Path 1966" d="M359.768,715.106l-.111.863,1.616.756.974-.423-.752-.974-1.616-1.085Z" transform="translate(-356.352 -668.776)" fill="#305399"/>
        <g id="Group_868" data-name="Group 868" transform="translate(3.109 19.829)">
          <path id="Path_1967" data-name="Path 1967" d="M358.131,508.533l1.246-11.01-1.5-12.326.337-2.622,6.7-.254.242,4.267-1.124,10.951L359.8,509.1Z" transform="translate(-357.878 -482.321)" fill="#bcbec0"/>
        </g>
        <path id="Path_1968" data-name="Path 1968" d="M427.181,372.125l3.368.917,3.9,6.9-1.845,1.708-2.6-3.075Z" transform="translate(-416.411 -364.478)" fill="#7db5db"/>
        <g id="Group_869" data-name="Group 869" transform="translate(8.27 19.994)">
          <path id="Path_1969" data-name="Path 1969" d="M411.354,484.888l.018,11.11-2.236,14.3-1.61-.016-.885-13.227-2.071-13.239Z" transform="translate(-404.57 -483.819)" fill="#bcbec0"/>
          <path id="Path_1970" data-name="Path 1970" d="M431.33,722.361l1.732.558.879-.532-.862-.879-1.741-.017Z" transform="translate(-428.372 -695.216)" fill="#305399"/>
        </g>
        <g id="Group_870" data-name="Group 870" transform="translate(2.405 7.573)">
          <path id="Path_1971" data-name="Path 1971" d="M351.523,388.727c.015-.481.042-.883.046-1.027.035-1.292.15-2.58.311-3.863.145-1.149.328-4,.524-5.144a24.414,24.414,0,0,1,1.137-4.171c1.017-2.175.7-2.376,5.169-3.022,1.957-.283,2.42.937,4.02,2.34.158.138.149.962.186,1.18.064.384.134.768.213,1.149.062.3.131.6.208.9h0s1.343,6.113,2.232,7.412,2.724,3.114-.346,4.222a10.976,10.976,0,0,1-1.658.433s-2.511-.279-3.8-.269a21.926,21.926,0,0,0-3.553.331,7.647,7.647,0,0,0-2.279.686c-.667.349-1.149.861-1.826,1.222a.354.354,0,0,1-.207.059C351.509,391.107,351.491,389.74,351.523,388.727Z" transform="translate(-351.512 -371.459)" fill="#7db5db"/>
        </g>
        <g id="Group_871" data-name="Group 871" transform="translate(5.38)">
          <path id="Path_1972" data-name="Path 1972" d="M397.4,334.29a1.837,1.837,0,0,1-1.312-.066.29.29,0,0,1-.186-.272,7.526,7.526,0,0,1,.081-1.007c-.416-.146-.9-.366-.969-.8a1.245,1.245,0,0,1,.025-.414l.293-1.7a1.517,1.517,0,0,1,.176-.565,1.274,1.274,0,0,1,.893-.483,3.1,3.1,0,0,1,2.511.612,1.358,1.358,0,0,1,.424.559,1.842,1.842,0,0,1-.062,1.076l-.257.978c-.1.375-.241.8-.6.941-.192.075-.418.053-.592.163C397.517,333.508,397.558,333.964,397.4,334.29Z" transform="translate(-393.17 -326.062)" fill="#b97262"/>
          <path id="Path_1973" data-name="Path 1973" d="M387.707,305.7a3.677,3.677,0,0,1,.283-.406,7.161,7.161,0,0,0,.682-.822.927.927,0,0,0,.027-1.008,1.1,1.1,0,0,0-.588-.339,4.275,4.275,0,0,0-2.249-.042,3.245,3.245,0,0,1-2.032.21,2.374,2.374,0,0,0-1.833.1,17.064,17.064,0,0,0-2.433.708,2,2,0,0,0-.685.676,3.014,3.014,0,0,0-.008,3.187,4.312,4.312,0,0,0,.469.591,3.23,3.23,0,0,0,1.262,1c.012-.435-.385-1.806-.051-2.163.53-.566,1.728-.368,2.386-.229.717.152,1.356.66,2.068.768a2.68,2.68,0,0,0,1.6-.437C387.143,307.168,387.393,306.215,387.707,305.7Z" transform="translate(-378.42 -302.953)" fill="#3b455a"/>
        </g>
        <path id="Path_1974" data-name="Path 1974" d="M335.652,379.393l-2.787,2.442-3.109,6.533,3.926,4.671.676-2.612Z" transform="translate(-329.757 -370.943)" fill="#7db5db"/>
      </g>
    </g>
    <g id="Group_877" data-name="Group 877" transform="translate(1.751 -11.221)">
      <g id="Group_876" data-name="Group 876" transform="translate(0 0)">
        <g id="Group_874" data-name="Group 874" transform="translate(0 8.318)">
          <path id="Path_1975" data-name="Path 1975" d="M278.682,401.508,244.236,404.1l18.032,9.441Z" transform="translate(-243.156 -401.508)" fill="#305399"/>
          <path id="Path_1976" data-name="Path 1976" d="M234.467,409.891l1.67,22.183,32.291-2.431a4.6,4.6,0,0,0,4.066-5.06l-1.314-17.456-17.495,12.827Z" transform="translate(-234.467 -406.506)" fill="#305399"/>
          <path id="Path_1977" data-name="Path 1977" d="M499.788,401.973a5.972,5.972,0,0,0,0,.9,5.911,5.911,0,0,0,.807,2.573l5.374-3.94Z" transform="translate(-470.442 -401.508)" fill="#292949"/>
          <path id="Path_1978" data-name="Path 1978" d="M518.524,413.347a5.952,5.952,0,0,0,1.448-.292l-.446-5.928-5.847,4.286A5.926,5.926,0,0,0,518.524,413.347Z" transform="translate(-482.814 -406.506)" fill="#292949"/>
        </g>
        <circle id="Ellipse_165" data-name="Ellipse 165" cx="5.936" cy="5.936" r="5.936" transform="translate(28.277 8.395) rotate(-45)" fill="#7db5db"/>
        <g id="Group_875" data-name="Group 875" transform="translate(35.292 5.674)">
          <path id="Path_1979" data-name="Path 1979" d="M556.334,383.555l-1.39.083-.273-4.576-.869.052-.083-1.39,2.259-.135Z" transform="translate(-553.719 -377.589)" fill="#fff"/>
        </g>
      </g>
    </g>
    <g id="Group_902" data-name="Group 902" transform="translate(39.004 0.799)">
      <g id="Group_897" data-name="Group 897" transform="translate(3.783 0)">
        <g id="Group_895" data-name="Group 895">
          <g id="Group_880" data-name="Group 880" transform="translate(14.139 34.942)">
            <g id="Group_878" data-name="Group 878" transform="translate(0 9.759)">
              <path id="Path_1980" data-name="Path 1980" d="M750.03,714.773a.577.577,0,0,1,.522-.224.59.59,0,0,1,.439.33,1.121,1.121,0,0,1,.075.376c-.016-.2.121,2.216-.832,2.461a.657.657,0,0,1-.776-.5A3.481,3.481,0,0,1,750.03,714.773Z" transform="translate(-749.412 -714.543)" fill="#305399"/>
            </g>
            <g id="Group_879" data-name="Group 879" transform="translate(0.305)">
              <path id="Path_1981" data-name="Path 1981" d="M752.168,626.263l.046,4.039c-.054,1.794.227,3.6.173,5.392a4.551,4.551,0,0,0-.016,1.257c.1.4.427.471.76.268.447-.271.375-.905.449-1.367.2-1.27.444-2.535.658-3.8.1-.622-.111-1.494-.064-2.123l.652-3.385Z" transform="translate(-752.168 -626.263)" fill="#efbfa5"/>
            </g>
          </g>
          <g id="Group_881" data-name="Group 881" transform="translate(13.381 22.911)">
            <path id="Path_1982" data-name="Path 1982" d="M748.239,522.93l-1.758,7.808-.373,7.374-2.787-.063-.758-20.626,5.4.1Z" transform="translate(-742.563 -517.424)" fill="#305399"/>
          </g>
          <g id="Group_886" data-name="Group 886" transform="translate(8.485 23.061)">
            <g id="Group_884" data-name="Group 884" transform="translate(1.085 12.449)">
              <g id="Group_882" data-name="Group 882" transform="translate(0.494 9.071)">
                <path id="Path_1983" data-name="Path 1983" d="M713.266,713.648a.566.566,0,0,1,.53-.193.6.6,0,0,1,.423.357,1.137,1.137,0,0,1,.059.381c-.008-.206-.012,2.232-.935,2.413a.668.668,0,0,1-.752-.547A3.461,3.461,0,0,1,713.266,713.648Z" transform="translate(-712.56 -713.444)" fill="#305399"/>
              </g>
              <g id="Group_883" data-name="Group 883">
                <path id="Path_1984" data-name="Path 1984" d="M710.758,631.392l-.237,4.032c-.019,1.12-.169,2.232-.285,3.345a7.277,7.277,0,0,1-.48,3.051c-.169.295-.512.491-.751.133-.185-.276-.075-.737-.11-1.05-.144-1.279-.324-2.553-.478-3.83-.075-.626.181-1.487.164-2.118l-.492-3.412Z" transform="translate(-708.089 -631.392)" fill="#efbfa5"/>
              </g>
            </g>
            <g id="Group_885" data-name="Group 885">
              <path id="Path_1985" data-name="Path 1985" d="M698.5,523.659l-.227,7.58,1.19,7.665,2.835.085-.125-8.3,1.5-6.879.5-4.5-4.5-.531Z" transform="translate(-698.274 -518.78)" fill="#305399"/>
            </g>
          </g>
          <g id="Group_887" data-name="Group 887" transform="translate(9.563 7.433)">
            <path id="Path_1986" data-name="Path 1986" d="M710.728,377.528l4.847-.116,2.81,5.226-1,4.9-.178,5.858-6.914.094-2.275-.369.6-6.259-.346-8.361Z" transform="translate(-708.019 -377.413)" fill="#d3e5ef"/>
          </g>
          <g id="Group_888" data-name="Group 888" transform="translate(13.381 7.793)">
            <path id="Path_1987" data-name="Path 1987" d="M746.46,380.673l3.934,5.992L749.8,390l-6.093,4.221-1.147-1,4.074-5.15-.158-3.254Z" transform="translate(-742.563 -380.673)" fill="#d3e5ef"/>
          </g>
          <g id="Group_889" data-name="Group 889" transform="translate(0 8.517)">
            <path id="Path_1988" data-name="Path 1988" d="M633.544,389.417l-2.524,5.047L628.3,395l-6.782-2.961,1.17-1.327,6.185,1.132,2.466-4.63Z" transform="translate(-621.516 -387.219)" fill="#d3e5ef"/>
          </g>
          <g id="Group_894" data-name="Group 894" transform="translate(9.367)">
            <g id="Group_890" data-name="Group 890" transform="translate(2.919 2.221)">
              <path id="Path_1989" data-name="Path 1989" d="M732.936,331.538c.731-2.124,3.535-1.328,4.113.563a2.772,2.772,0,0,1-1.854,3.189,1.245,1.245,0,0,0-.01.132,4.142,4.142,0,0,1-.055.591,6.441,6.441,0,0,1-1.255-.166.169.169,0,0,1-.116-.057c-.045-.07.028-.277.036-.355l.029-.276a2.207,2.207,0,0,1-1.14-1.631A4.1,4.1,0,0,1,732.936,331.538Z" transform="translate(-732.647 -330.271)" fill="#efbfa5"/>
            </g>
            <g id="Group_893" data-name="Group 893">
              <g id="Group_891" data-name="Group 891" transform="translate(0 1.267)">
                <path id="Path_1990" data-name="Path 1990" d="M711.283,321.94a1.115,1.115,0,0,1,.253.57.891.891,0,0,1,.022.369c-.1.482-.582.457-.952.613a2.467,2.467,0,0,0-1.1.951,2.859,2.859,0,0,0-.058,2.157c.057.247.172.615-.02.836a.824.824,0,0,1-.879.074c-.213-.105-.389-.3-.623-.34s-.583.068-.7-.16a1.548,1.548,0,0,0-.076-.2c-.137-.2-.478.034-.671-.1a.377.377,0,0,1-.078-.409.974.974,0,0,0,.08-.434,1.434,1.434,0,0,0-.17-.338.666.666,0,0,1,.092-.708c.305-.353.9-.286,1.223-.619a1.439,1.439,0,0,0,.3-.659,1.263,1.263,0,0,1,.322-.646c.225-.2.55-.164.772-.4a4.541,4.541,0,0,1,.364-.437,2.928,2.928,0,0,1,.81-.36A1.054,1.054,0,0,1,711.283,321.94Z" transform="translate(-706.245 -321.639)" fill="#2f3849"/>
              </g>
              <g id="Group_892" data-name="Group 892" transform="translate(3.81)">
                <path id="Path_1991" data-name="Path 1991" d="M743.714,315.135c.013.7-.334,1.455-.012,2.07s1.135.733,1.826.766c.114.005,1.571.131,1.577.1a4.747,4.747,0,0,1,.476-1.411,1.555,1.555,0,0,1,1.168-.812.3.3,0,0,1-.2-.342,2.316,2.316,0,0,1,.135-.416.979.979,0,0,0-.256-.983c-.515-.481-1.45-.281-1.892-.833-.274-.342-.242-.838-.385-1.256-.278-.808-1.162-.977-1.823-1.342a3.167,3.167,0,0,0-2.16-.462,1.642,1.642,0,0,0-1.356,2.14c.494,1.227,2.469,1.121,2.838,2.367A1.538,1.538,0,0,1,743.714,315.135Z" transform="translate(-740.713 -310.177)" fill="#2f3849"/>
              </g>
            </g>
          </g>
        </g>
        <g id="Group_896" data-name="Group 896" transform="translate(12.296 7.433)">
          <path id="Path_1992" data-name="Path 1992" d="M736.128,377.5l-1.5,2.125-.707-.058-1.178-2.155Z" transform="translate(-732.74 -377.413)" fill="#3b455a"/>
        </g>
      </g>
      <g id="Group_900" data-name="Group 900" transform="translate(0 8.105)">
        <g id="Group_899" data-name="Group 899">
          <path id="Path_1993" data-name="Path 1993" d="M600.467,400.23a.426.426,0,0,1-.308-.127l-3.424-3.51-2.127,2.723a.378.378,0,0,1-.3.15.5.5,0,0,1-.442-.313l-5.043-13.576a.388.388,0,0,1,.1-.436.373.373,0,0,1,.3-.148.433.433,0,0,1,.161.032l13.446,5.377a.46.46,0,0,1,.3.365.454.454,0,0,1-.192.423l-2.726,2.023,3.417,3.5a.446.446,0,0,1,0,.623l-2.833,2.764a.454.454,0,0,1-.315.127Zm-3.777-4.745a.455.455,0,0,1,.322.129l3.467,3.555,2.2-2.148-3.461-3.548a.427.427,0,0,1-.126-.336.482.482,0,0,1,.2-.344l2.5-1.855L590,386.22l4.424,11.911,1.953-2.5A.394.394,0,0,1,596.69,395.486Z" transform="translate(-588.625 -384.827)" fill="#fff"/>
          <g id="Group_898" data-name="Group 898">
            <path id="Path_1994" data-name="Path 1994" d="M602.4,395.267l-1.654-1.7-1.631-1.672,1.135-.842,1.439-1.068a.61.61,0,0,0-.143-1.076l-4.571-1.828-7.223-2.888-.983-.393-.67-.268a.6.6,0,0,0-.223-.044.536.536,0,0,0-.419.2.555.555,0,0,0-.128.606l.182.489,1.532,4.125,2.709,7.293.313.842.307.826a.661.661,0,0,0,.6.421.541.541,0,0,0,.434-.214l1.083-1.386.927-1.187,1.282,1.314,1.547,1.586.463.475a.59.59,0,0,0,.427.178.622.622,0,0,0,.431-.174l1.394-1.36,1.438-1.4A.607.607,0,0,0,602.4,395.267Zm-.235.62-2.833,2.764a.287.287,0,0,1-.2.08.262.262,0,0,1-.189-.077l-.463-.475-3.094-3.171-2.244,2.872a.213.213,0,0,1-.172.086.328.328,0,0,1-.287-.2l-.62-1.668-2.709-7.292-1.714-4.615a.225.225,0,0,1,.063-.266.208.208,0,0,1,.174-.095.266.266,0,0,1,.1.021l1.653.661,7.223,2.888,4.571,1.828a.279.279,0,0,1,.068.5l-2.878,2.136.241.247,3.308,3.391A.279.279,0,0,1,602.167,395.887Z" transform="translate(-587.293 -383.493)" fill="#fff"/>
            <path id="Path_1995" data-name="Path 1995" d="M606.743,400.872a.279.279,0,0,1,.054-.432l2.738-2.032-1.169-.468-7.223-2.888-4.028-1.611.413,1.111,2.709,7.292,1.536,4.136,2.136-2.734a.23.23,0,0,1,.185-.081.29.29,0,0,1,.2.079l.463.475,3.12,3.2,2.439-2.38-.268-.275Zm1.143,5.577-.689-.706-2.2-2.255-.07-.072-.393-.4a.615.615,0,0,0-.44-.179.559.559,0,0,0-.447.209l-1.068,1.367-.7.9-.532-1.432-.8-2.148-2.709-7.292-.152-.411,3.333,1.333,3.612,1.444,3.611,1.444.6.239.019.008-.868.645-1.393,1.034a.647.647,0,0,0-.265.464.592.592,0,0,0,.172.465l1.654,1.7,1.654,1.7.037.038Z" transform="translate(-596.029 -392.342)" fill="#fff"/>
          </g>
        </g>
        <path id="Path_1996" data-name="Path 1996" d="M592.851,389.078l5.043,13.576,2.418-3.095,3.771,3.866,1.416-1.382,1.416-1.382-3.771-3.866,3.153-2.34Z" transform="translate(-592.851 -388.467)" fill="#3b455a"/>
      </g>
      <g id="Group_901" data-name="Group 901" transform="translate(13.571 20.207)">
        <path id="Path_1997" data-name="Path 1997" d="M712.306,493.634l.026.817-1.443.525-.832-.63v-.952l.8-.045.025-.209.263-.169Z" transform="translate(-710.057 -492.971)" fill="#efbfa5"/>
      </g>
    </g>
    <path id="Path_1998" data-name="Path 1998" d="M334.861,410.679l.816-1.09,1.656-.322.892.89-1.579,1.645Z" transform="translate(-323.763 -397.515)" fill="#b97262"/>
    <path id="Path_1999" data-name="Path 1999" d="M454.141,396.427l.816-1.09,1.656-.322.892.89-1.579,1.645Z" transform="translate(-429.857 -384.839)" fill="#b97262"/>
  </g>
</svg>
