<svg id="Smart_tv_applications" data-name="Smart tv applications" xmlns="http://www.w3.org/2000/svg" xmlns:xlink="http://www.w3.org/1999/xlink" width="67.9" height="64" viewBox="0 0 67.9 64">
  <defs>
    <linearGradient id="linear-gradient" y1="0.5" x2="1" y2="0.5" gradientUnits="objectBoundingBox">
      <stop offset="0" stop-color="#444b8c"/>
      <stop offset="0.996" stop-color="#26264f"/>
    </linearGradient>
    <linearGradient id="linear-gradient-3" x1="1.039" y1="0.5" x2="2.039" y2="0.5" gradientUnits="objectBoundingBox">
      <stop offset="0" stop-color="#ffc444"/>
      <stop offset="0.996" stop-color="#f36f56"/>
    </linearGradient>
    <linearGradient id="linear-gradient-5" x1="0.841" y1="0.024" x2="-0.325" y2="1.643" gradientUnits="objectBoundingBox">
      <stop offset="0" stop-color="#311944"/>
      <stop offset="1" stop-color="#893976"/>
    </linearGradient>
    <linearGradient id="linear-gradient-6" x1="0.847" y1="0.018" x2="-0.327" y2="1.648" gradientUnits="objectBoundingBox">
      <stop offset="0.004" stop-color="#e38ddd"/>
      <stop offset="1" stop-color="#9571f6"/>
    </linearGradient>
    <linearGradient id="linear-gradient-7" y1="0.5" x2="1" y2="0.5" gradientUnits="objectBoundingBox">
      <stop offset="0" stop-color="#ff9085"/>
      <stop offset="1" stop-color="#fb6fbb"/>
    </linearGradient>
    <linearGradient id="linear-gradient-8" x1="0.742" y1="-0.038" x2="-0.089" y2="1.806" gradientUnits="objectBoundingBox">
      <stop offset="0" stop-color="#aa80f9"/>
      <stop offset="0.996" stop-color="#6165d7"/>
    </linearGradient>
    <linearGradient id="linear-gradient-9" x1="-0.584" y1="-1.259" x2="-1.279" y2="-0.383" xlink:href="#linear-gradient-6"/>
    <linearGradient id="linear-gradient-10" x1="-0.857" y1="0.34" x2="-0.654" y2="0.428" xlink:href="#linear-gradient"/>
    <linearGradient id="linear-gradient-11" x1="-1.224" y1="0.127" x2="-0.485" y2="0.614" xlink:href="#linear-gradient-8"/>
    <linearGradient id="linear-gradient-12" x1="-1.89" y1="0.1" x2="-0.878" y2="0.587" xlink:href="#linear-gradient-8"/>
    <linearGradient id="linear-gradient-13" x1="-0.123" y1="0.323" x2="0.595" y2="0.953" xlink:href="#linear-gradient-8"/>
    <linearGradient id="linear-gradient-14" x1="-5.939" y1="0.249" x2="-5.737" y2="0.324" xlink:href="#linear-gradient"/>
    <linearGradient id="linear-gradient-15" x1="-0.446" y1="-0.088" x2="-0.27" y2="1.094" xlink:href="#linear-gradient"/>
    <linearGradient id="linear-gradient-16" x1="-0.271" y1="0.311" x2="0.548" y2="0.944" xlink:href="#linear-gradient-8"/>
    <linearGradient id="linear-gradient-17" x1="-5.939" y1="0.249" x2="-5.737" y2="0.324" xlink:href="#linear-gradient"/>
    <linearGradient id="linear-gradient-18" x1="0" y1="0.5" x2="1" y2="0.5" xlink:href="#linear-gradient-3"/>
    <clipPath id="clip-path">
      <path id="Path_2054" data-name="Path 2054" d="M1495.616,1350.653l16.1-.363,19.451-5.884-11.706-18.874-30.271-.357S1486.582,1348.439,1495.616,1350.653Z" transform="translate(-1488.839 -1325.175)" fill="none"/>
    </clipPath>
    <linearGradient id="linear-gradient-19" x1="-5.467" y1="3.86" x2="-4.679" y2="1.918" xlink:href="#linear-gradient-7"/>
    <linearGradient id="linear-gradient-20" x1="-8.069" y1="0.899" x2="-7.435" y2="-0.244" xlink:href="#linear-gradient-7"/>
    <linearGradient id="linear-gradient-21" x1="-22.161" y1="10.733" x2="-22.107" y2="8.972" xlink:href="#linear-gradient-3"/>
    <linearGradient id="linear-gradient-22" x1="21.758" y1="2.904" x2="21.089" y2="1.298" xlink:href="#linear-gradient"/>
    <linearGradient id="linear-gradient-23" x1="-56.981" y1="-1.057" x2="-57.016" y2="2.083" xlink:href="#linear-gradient-3"/>
    <linearGradient id="linear-gradient-24" x1="29.287" y1="3.057" x2="28.376" y2="1.158" xlink:href="#linear-gradient"/>
    <linearGradient id="linear-gradient-25" x1="107.214" y1="15.385" x2="107.396" y2="19.551" gradientUnits="objectBoundingBox">
      <stop offset="0" stop-color="#ffc444"/>
      <stop offset="1" stop-color="#f36f56"/>
    </linearGradient>
    <linearGradient id="linear-gradient-26" x1="-13.542" y1="1.047" x2="-12.49" y2="-0.673" xlink:href="#linear-gradient-7"/>
    <linearGradient id="linear-gradient-27" x1="-10.366" y1="0.911" x2="-9.552" y2="-0.745" xlink:href="#linear-gradient-7"/>
    <linearGradient id="linear-gradient-28" x1="-1.181" y1="4.607" x2="1.993" y2="-2.809" xlink:href="#linear-gradient-7"/>
    <linearGradient id="linear-gradient-29" x1="-1.708" y1="1.398" x2="1.96" y2="-0.094" xlink:href="#linear-gradient-6"/>
    <linearGradient id="linear-gradient-31" x1="-1.59" y1="2.966" x2="3.258" y2="-2.757" xlink:href="#linear-gradient"/>
    <linearGradient id="linear-gradient-32" x1="-12.244" y1="18.075" x2="5.625" y2="-6.569" xlink:href="#linear-gradient"/>
    <linearGradient id="linear-gradient-33" x1="-5.902" y1="8.995" x2="5.532" y2="-6.201" xlink:href="#linear-gradient"/>
    <linearGradient id="linear-gradient-34" x1="-5.172" y1="7.858" x2="5.976" y2="-6.61" xlink:href="#linear-gradient"/>
    <linearGradient id="linear-gradient-35" x1="-6.293" y1="9.221" x2="4.616" y2="-4.801" xlink:href="#linear-gradient"/>
    <linearGradient id="linear-gradient-36" x1="-5.573" y1="8.099" x2="5.061" y2="-5.221" xlink:href="#linear-gradient"/>
    <linearGradient id="linear-gradient-37" x1="-3.331" y1="4.88" x2="10.547" y2="-11.009" xlink:href="#linear-gradient"/>
    <linearGradient id="linear-gradient-38" x1="-3.784" y1="5.233" x2="9.445" y2="-9.401" xlink:href="#linear-gradient"/>
    <linearGradient id="linear-gradient-39" x1="-4.219" y1="5.533" x2="8.335" y2="-7.875" xlink:href="#linear-gradient"/>
    <linearGradient id="linear-gradient-40" x1="-2.318" y1="3.603" x2="10.964" y2="-11.051" xlink:href="#linear-gradient"/>
    <linearGradient id="linear-gradient-41" x1="-2.755" y1="3.948" x2="9.8" y2="-9.377" xlink:href="#linear-gradient"/>
    <linearGradient id="linear-gradient-42" x1="-3.172" y1="4.24" x2="8.629" y2="-7.801" xlink:href="#linear-gradient"/>
    <linearGradient id="linear-gradient-43" x1="-1.281" y1="2.383" x2="11.283" y2="-10.948" xlink:href="#linear-gradient"/>
    <linearGradient id="linear-gradient-44" x1="-1.731" y1="2.761" x2="10.137" y2="-9.307" xlink:href="#linear-gradient"/>
    <linearGradient id="linear-gradient-45" x1="-2.167" y1="3.088" x2="8.981" y2="-7.763" xlink:href="#linear-gradient"/>
    <linearGradient id="linear-gradient-46" x1="-0.261" y1="1.268" x2="11.608" y2="-10.823" xlink:href="#linear-gradient"/>
    <linearGradient id="linear-gradient-47" x1="-0.722" y1="1.679" x2="10.48" y2="-9.211" xlink:href="#linear-gradient"/>
    <linearGradient id="linear-gradient-48" x1="-1.172" y1="2.04" x2="9.339" y2="-7.698" xlink:href="#linear-gradient"/>
  </defs>
  <g id="Group_938" data-name="Group 938" transform="translate(0)">
    <g id="Group_908" data-name="Group 908" transform="translate(0 11.158)">
      <path id="Path_2005" data-name="Path 2005" d="M679.317,2528.4l.282,1.9-5.2,5.971-1.8.1,1.564-4.786s.973-.692-1.3-.522l-7.612,2.118.038-.484,8.945-3.708S677.281,2528.567,679.317,2528.4Z" transform="translate(-665.119 -2489.341)" fill="url(#linear-gradient)"/>
      <g id="Group_907" data-name="Group 907">
        <g id="Group_906" data-name="Group 906">
          <path id="Path_2006" data-name="Path 2006" d="M662.565,1086.192a2.067,2.067,0,0,1-2.367-1.789l.088-37.506a2.007,2.007,0,0,1,2.376-1.717l58.777,4.22a1.748,1.748,0,0,1,1.641,1.681l-.091,31.054a1.7,1.7,0,0,1-1.65,1.63Z" transform="translate(-660.198 -1045.172)" fill="#97a6b7"/>
          <path id="Path_2007" data-name="Path 2007" d="M681.937,1086.83a2.066,2.066,0,0,1-2.366-1.788l.088-37.5a2.007,2.007,0,0,1,2.375-1.717l58.752,4.219a1.747,1.747,0,0,1,1.64,1.681l-.091,31.047a1.694,1.694,0,0,1-1.649,1.63Z" transform="translate(-679.061 -1045.803)" fill="url(#linear-gradient)"/>
          <path id="Path_2008" data-name="Path 2008" d="M779.332,1083.2l-58.86-4.077a1.072,1.072,0,0,0-1.268.918l-.069,29.151-.02,8.232a1.1,1.1,0,0,0,1.263.956l58.858-2.285a.905.905,0,0,0,.885-.871l.021-7.1.07-24.027A.933.933,0,0,0,779.332,1083.2Z" transform="translate(-717.564 -1078.222)" fill="#d8dee8" opacity="0.3" style="mix-blend-mode: multiply;isolation: isolate"/>
          <path id="Path_2009" data-name="Path 2009" d="M747.366,1137.882a.435.435,0,0,1-.493-.377l.083-34.73a.419.419,0,0,1,.495-.358l58.94,3.978a.365.365,0,0,1,.345.351l-.085,29.029a.351.351,0,0,1-.347.338Z" transform="translate(-744.591 -1100.908)" fill="url(#linear-gradient-3)"/>
        </g>
        <path id="Path_2010" data-name="Path 2010" d="M734.7,1082.044c-4.847-2.938-1.431-10.993-6.88-15.2-5.521-4.258-13.364.631-17.27-3.757-2.917-3.277.515-7.054-2.269-10.145-4.38-4.862-15.715,1.334-20.94-3.511a6.723,6.723,0,0,1-1.919-3.364l-3.39-.243a2.007,2.007,0,0,0-2.375,1.717l-.088,37.5a2.066,2.066,0,0,0,2.366,1.788l58.755-2.426a1.694,1.694,0,0,0,1.65-1.63l0-.552C738.535,1083.392,736.2,1082.954,734.7,1082.044Z" transform="translate(-679.061 -1045.803)" fill="#fff" opacity="0.6" style="mix-blend-mode: soft-light;isolation: isolate"/>
      </g>
      <path id="Path_2011" data-name="Path 2011" d="M2528.737,2513.856l.086.838,4.709,2.873.735-.538-2.793-2.505s-.548-.165.273-.349l2.637-.013-.2-.145-3.4-.4S2529.621,2513.73,2528.737,2513.856Z" transform="translate(-2475.781 -2474.949)" fill="url(#linear-gradient)"/>
    </g>
    <g id="Group_912" data-name="Group 912" transform="translate(3.984)">
      <g id="Group_909" data-name="Group 909">
        <path id="Path_2012" data-name="Path 2012" d="M830.755,707.937l-17.5-1.238-.17-.308-.074-.005a1.354,1.354,0,0,0-1.5,1.33v26.23a1.471,1.471,0,0,0,1.5,1.434h.248l.077-.156,17.331-.415c.757,0,1.479-.04,1.479-.793V709.08C832.14,708.327,831.512,707.99,830.755,707.937Z" transform="translate(-811.503 -706.383)" fill="url(#linear-gradient-5)"/>
      </g>
      <g id="Group_910" data-name="Group 910" transform="translate(0.306)">
        <path id="Path_2013" data-name="Path 2013" d="M842.406,707.621l-17.766-1.235a1.354,1.354,0,0,0-1.5,1.33v26.23a1.471,1.471,0,0,0,1.5,1.434h17.766a1.365,1.365,0,0,0,1.368-1.364V709.08A1.486,1.486,0,0,0,842.406,707.621Z" transform="translate(-823.137 -706.383)" fill="url(#linear-gradient-6)"/>
      </g>
      <path id="Path_2014" data-name="Path 2014" d="M903.4,789.243l-17.478-1.01v-2.821L903.4,786.54Z" transform="translate(-883.962 -783.331)" fill="#fff" style="mix-blend-mode: soft-light;isolation: isolate"/>
      <path id="Path_2015" data-name="Path 2015" d="M903.4,1442.8l-17.478-.352V1441.2l17.478.4Z" transform="translate(-883.962 -1421.85)" fill="#fff" style="mix-blend-mode: soft-light;isolation: isolate"/>
      <path id="Path_2016" data-name="Path 2016" d="M903.4,1528.2l-17.478-.258v-1.244l17.478.31Z" transform="translate(-883.962 -1505.094)" fill="#fff" style="mix-blend-mode: soft-light;isolation: isolate"/>
      <path id="Path_2017" data-name="Path 2017" d="M903.4,1613.6l-17.478-.164v-1.244l17.478.216Z" transform="translate(-883.962 -1588.339)" fill="#fff" style="mix-blend-mode: soft-light;isolation: isolate"/>
      <path id="Path_2018" data-name="Path 2018" d="M903.4,944.935l-17.478-.538V934.229l17.478.964Z" transform="translate(-883.962 -928.229)" fill="#fff"/>
      <g id="Group_911" data-name="Group 911" transform="translate(7.905 8.37)">
        <path id="Path_2019" data-name="Path 2019" d="M1117.64,1027.255a2.775,2.775,0,0,1-2.937,2.758,3.081,3.081,0,0,1-2.98-3.015,2.775,2.775,0,0,1,2.98-2.756A3.083,3.083,0,0,1,1117.64,1027.255Z" transform="translate(-1111.722 -1024.238)" fill="url(#linear-gradient-7)"/>
        <path id="Path_2020" data-name="Path 2020" d="M1190.38,1079.082l-2.048-1.287a.249.249,0,0,0-.391.2v2.4a.268.268,0,0,0,.391.232l2.048-1.109A.247.247,0,0,0,1190.38,1079.082Z" transform="translate(-1185.934 -1076.343)" fill="#fff"/>
      </g>
    </g>
    <g id="Group_915" data-name="Group 915" transform="translate(50.808 34.924)">
      <g id="Group_913" data-name="Group 913">
        <path id="Path_2021" data-name="Path 2021" d="M2456.438,1973.278l-8.561-.595a.652.652,0,0,0-.724.641v7.413a.709.709,0,0,0,.724.691h8.561a.658.658,0,0,0,.66-.657v-6.79A.716.716,0,0,0,2456.438,1973.278Z" transform="translate(-2447.153 -1972.682)" fill="url(#linear-gradient-8)"/>
      </g>
      <path id="Path_2022" data-name="Path 2022" d="M2485.829,2223.4l-8.422-.078v-.6l8.422.1Z" transform="translate(-2476.61 -2216.14)" fill="#fff" style="mix-blend-mode: soft-light;isolation: isolate"/>
      <path id="Path_2023" data-name="Path 2023" d="M2485.829,2014.362l-8.422-.259v-4.9l8.422.464Z" transform="translate(-2476.61 -2008.241)" fill="#fff"/>
      <g id="Group_914" data-name="Group 914" transform="translate(1.98 1.864)">
        <path id="Path_2024" data-name="Path 2024" d="M2527.181,2043.639l-4.53-.183a.277.277,0,0,0-.2.073.265.265,0,0,0-.086.193l-.032,2.849a.351.351,0,0,0,.11.259.366.366,0,0,0,.25.1h.016l4.447-.04a.346.346,0,0,0,.336-.344l.031-2.551A.356.356,0,0,0,2527.181,2043.639Zm.019.42-1.615,1.4a.557.557,0,0,1-.377.137.568.568,0,0,1-.323-.109l-2.138-1.548a.079.079,0,0,1-.018-.111.082.082,0,0,1,.113-.016l2.136,1.549a.4.4,0,0,0,.5-.02l1.617-1.4a.078.078,0,0,1,.1.117Z" transform="translate(-2522.332 -2043.456)" fill="url(#linear-gradient-9)"/>
      </g>
    </g>
    <g id="Group_920" data-name="Group 920" transform="translate(29.863 5.907)">
      <g id="Group_916" data-name="Group 916">
        <path id="Path_2025" data-name="Path 2025" d="M1725.125,931.821l-15.779-1.1a1.177,1.177,0,0,0-1.312,1.18l.24,13.646a1.333,1.333,0,0,0,1.356,1.272h15.759a1.185,1.185,0,0,0,1.192-1.21l-.22-12.5A1.347,1.347,0,0,0,1725.125,931.821Z" transform="translate(-1708.034 -930.722)" fill="#d8dee8"/>
      </g>
      <path id="Path_2026" data-name="Path 2026" d="M1779.8,1007.449l-15.513-.477-.159-9.02,15.519.855Z" transform="translate(-1762.651 -996.182)" fill="#fff"/>
      <g id="Group_919" data-name="Group 919" transform="translate(6.422 2.705)">
        <g id="Group_918" data-name="Group 918">
          <path id="Path_2027" data-name="Path 2027" d="M2009.008,1035.975a.068.068,0,0,1-.068-.062,3.6,3.6,0,0,0-.573-1.67,1.245,1.245,0,0,0-.875-.64h0c-.995,0-1.2,2.286-1.205,2.309a.068.068,0,0,1-.135-.012c.009-.1.222-2.431,1.34-2.434h0a1.35,1.35,0,0,1,.987.7,3.741,3.741,0,0,1,.6,1.734.068.068,0,0,1-.061.074Z" transform="translate(-2004.724 -1033.468)" fill="url(#linear-gradient-10)"/>
          <path id="Path_2028" data-name="Path 2028" d="M1952.069,1120.987l1.31.663.794-2.435-1.308-3.265-.371.091-.562,4.689A.254.254,0,0,0,1952.069,1120.987Z" transform="translate(-1951.93 -1113.778)" fill="url(#linear-gradient-11)"/>
          <path id="Path_2029" data-name="Path 2029" d="M1976.564,1119.215l-1.308-3.265-.219.054a7.117,7.117,0,0,0,0,1.056c.088,1.111.379,1.421.238,2.2-.117.645-.373.732-.351,1.166a1.709,1.709,0,0,0,.746,1.179l.1.049Z" transform="translate(-1974.321 -1113.778)" opacity="0.3" fill="url(#linear-gradient-12)" style="mix-blend-mode: multiply;isolation: isolate"/>
          <path id="Path_2030" data-name="Path 2030" d="M1987.448,1115.95h4.884l1.616,5.218-5.986.482Z" transform="translate(-1986.512 -1113.778)" fill="url(#linear-gradient-13)"/>
          <path id="Path_2031" data-name="Path 2031" d="M2038.092,1126.3a.19.19,0,1,1-.19-.19A.19.19,0,0,1,2038.092,1126.3Z" transform="translate(-2035.453 -1123.674)" fill="url(#linear-gradient-14)"/>
          <path id="Path_2032" data-name="Path 2032" d="M2037.9,1038.094a.068.068,0,0,1-.066-.052,3.469,3.469,0,0,1,.118-2.144.788.788,0,0,1,.539-.357c1.169-.206,1.89,2.306,1.92,2.413a.068.068,0,1,1-.131.037c-.007-.025-.716-2.5-1.765-2.316a.648.648,0,0,0-.448.3,3.412,3.412,0,0,0-.1,2.038.068.068,0,0,1-.051.082Z" transform="translate(-2035.454 -1035.474)" fill="url(#linear-gradient-15)"/>
          <g id="Group_917" data-name="Group 917" transform="translate(1.742 2.172)" opacity="0.3" style="mix-blend-mode: multiply;isolation: isolate">
            <path id="Path_2033" data-name="Path 2033" d="M2022.17,1115.95h-2.423a.656.656,0,0,0-.212.419c-.038.738,1.659.981,1.823,1.993.118.73-.609,1.572-1.257,1.947-.683.4-1.146.2-1.608.634a1.516,1.516,0,0,0-.4.684l5.693-.459Z" transform="translate(-2018.093 -1115.95)" fill="url(#linear-gradient-16)"/>
          </g>
          <path id="Path_2034" data-name="Path 2034" d="M2132.117,1125.635a.19.19,0,1,1-.19-.19A.19.19,0,0,1,2132.117,1125.635Z" transform="translate(-2127.002 -1123.023)" fill="url(#linear-gradient-17)"/>
        </g>
      </g>
    </g>
    <g id="Group_922" data-name="Group 922" transform="translate(4.29 31.3)">
      <g id="Group_921" data-name="Group 921">
        <path id="Path_2035" data-name="Path 2035" d="M824.279,1834.5l13.677.137a1.109,1.109,0,0,1,1.069,1.113l.153,11.84a1.072,1.072,0,0,1-1.042,1.112l-13.695.084a1.167,1.167,0,0,1-1.171-1.154l-.135-11.984A1.128,1.128,0,0,1,824.279,1834.5Z" transform="translate(-823.136 -1834.504)" fill="#d8dee8"/>
      </g>
      <path id="Path_2036" data-name="Path 2036" d="M871.651,1898.167l13.466-.126-.1-7.883-13.459-.21Z" transform="translate(-870.282 -1888.486)" fill="#fff"/>
      <path id="Path_2037" data-name="Path 2037" d="M1031.251,1936.82a2.81,2.81,0,0,0,.407-1.219,1.8,1.8,0,0,0-.151-.87,2.494,2.494,0,0,0-.886-.977,2.707,2.707,0,0,1-.658-.624l-.03-.044a1.2,1.2,0,0,1-.222-.448.267.267,0,0,0-.263-.24.25.25,0,0,0-.245.246l-.145,4.647a1.477,1.477,0,0,0-.756-.257,1.142,1.142,0,0,0-1.3.971,1.214,1.214,0,0,0,1.239,1.116,1.142,1.142,0,0,0,1.3-.971l.095-3.04a1.93,1.93,0,0,1,1.135,1.489,1.428,1.428,0,0,1-.1.137.265.265,0,0,0,.011.369.249.249,0,0,0,.359,0,1.861,1.861,0,0,0,.195-.258A.172.172,0,0,0,1031.251,1936.82Z" transform="translate(-1021.629 -1929.82)" fill="url(#linear-gradient-18)"/>
    </g>
    <g id="Group_937" data-name="Group 937" transform="translate(25.363 17.584)">
      <g id="Group_925" data-name="Group 925" transform="translate(0 4.261)">
        <g id="Group_923" data-name="Group 923">
          <path id="Path_2038" data-name="Path 2038" d="M1508.633,1488.7l-25.211-1.32-.2-.369-.089-.006a1.623,1.623,0,0,0-1.8,1.594l-.519,20.116a1.763,1.763,0,0,0,1.8,1.719h.3l.092-.187,25-1.12c.907,0,1.772-.048,1.772-.95l.519-18.108C1510.292,1489.163,1509.54,1488.759,1508.633,1488.7Z" transform="translate(-1480.809 -1486.996)" fill="#d8dee8"/>
        </g>
        <g id="Group_924" data-name="Group 924" transform="translate(0.367)">
          <path id="Path_2039" data-name="Path 2039" d="M1522.075,1509.807a1.636,1.636,0,0,0,1.64-1.634l.519-18.108a1.781,1.781,0,0,0-1.64-1.748L1497.07,1487a1.623,1.623,0,0,0-1.8,1.594l-.519,20.116a1.762,1.762,0,0,0,1.8,1.719Z" transform="translate(-1494.75 -1486.996)" fill="#fff"/>
        </g>
      </g>
      <g id="Group_927" data-name="Group 927" transform="translate(0.142 4.542)">
        <g id="Group_926" data-name="Group 926">
          <path id="Path_2040" data-name="Path 2040" d="M1582.957,1570.025l-24.751.624a.688.688,0,0,1-.677-.748l.573-18.182a.727.727,0,0,1,.724-.736l24.7,1.047a.657.657,0,0,1,.562.723l-.523,16.56A.694.694,0,0,1,1582.957,1570.025Z" transform="translate(-1555.65 -1549.578)" fill="#d8dee8"/>
          <path id="Path_2041" data-name="Path 2041" d="M1508.17,1513.478c-2.081-1.3-3.795.146-5.355-1.435-.946-.959-.446-1.618-1.6-3.038-1.281-1.573-2.162-1.106-3.454-2.528-1.634-1.8-.748-3.1-2.163-4.4-1.717-1.58-3.663-.282-5.3-1.8a4.485,4.485,0,0,1-1.251-2.541l-1.643-.077a.528.528,0,0,0-.539.526l-.676,21.527a.5.5,0,0,0,.506.536l28.075-.8a.44.44,0,0,0,.345-.2,6.194,6.194,0,0,1-4.066-1.748C1509.519,1515.959,1509.838,1514.523,1508.17,1513.478Z" transform="translate(-1486.189 -1497.66)" fill="#fff" opacity="0.48" style="mix-blend-mode: soft-light;isolation: isolate"/>
        </g>
      </g>
      <g id="Group_933" data-name="Group 933" transform="translate(0.211)">
        <g id="Group_932" data-name="Group 932" clip-path="url(#clip-path)">
          <g id="Group_931" data-name="Group 931" transform="translate(1.564 0.843)">
            <g id="Group_930" data-name="Group 930">
              <path id="Path_2042" data-name="Path 2042" d="M2556.115,1360.024l-.091-.723s-.728-.761-.711-1.125c.019-.392.047-.933.285-.986.287-.064.716.6.9,1.111a2.588,2.588,0,0,1,.152.9l.262.965Z" transform="translate(-2528.795 -1357.185)" fill="#fff"/>
              <path id="Path_2043" data-name="Path 2043" d="M2547.753,1393.122a1.26,1.26,0,0,1-.489-.81c-.069-.522.129.013.526.234l.4.221s.424.217.333.381S2547.753,1393.122,2547.753,1393.122Z" transform="translate(-2520.945 -1391.171)" fill="#fff"/>
              <path id="Path_2044" data-name="Path 2044" d="M2291.2,1448.059a1.755,1.755,0,0,1,1.151-.641c1.578-.118,3.474,2.634,3.6,5.176a6.292,6.292,0,0,1-2.052,4.839c-3.164,2.649-8.943,1.244-9.923-1.07a5.025,5.025,0,0,1-.216-2.073,5.756,5.756,0,0,1,.885-2.622c2.5.753,5.593,1.222,6.537.015A2.891,2.891,0,0,0,2291.2,1448.059Z" transform="translate(-2264.375 -1445.038)" fill="url(#linear-gradient-19)"/>
              <path id="Path_2045" data-name="Path 2045" d="M1787.746,1573.36a25.577,25.577,0,0,1,14.954.28l.517,3.47a40.28,40.28,0,0,1-.211,4.545c-.189,1.834-.318,1.856-.7,4.44-.623,4.213-.453,5.329-1.334,5.8-.573.3-.766.26-3.629-.153a8.327,8.327,0,0,0-3.715-.068c-1.341.38-1.975.674-2.516.406-.518-.256-.557-1.151-.571-2.71-.022-2.4.035-4.035.044-4.619a22.951,22.951,0,0,0-1.383-7.419A35.7,35.7,0,0,0,1787.746,1573.36Z" transform="translate(-1781.439 -1566.712)" fill="url(#linear-gradient-20)"/>
              <g id="Group_929" data-name="Group 929" transform="translate(12.878 1.956)">
                <path id="Path_2046" data-name="Path 2046" d="M2039.782,1474.791a7.7,7.7,0,0,1-.277,1.555c-.118.41-.187.512-.271.592-.126.12-.308.214-1.308.355-.544.077-.612.067-.628.117-.079.248,1.3,1.256,2.817,1.2.929-.036,1.809-.469,1.781-.744s-.958-.222-1.189-.742c-.161-.361.094-.827.381-1.2C2040.882,1475.443,2039.987,1475.265,2039.782,1474.791Z" transform="translate(-2037.294 -1473.651)" fill="url(#linear-gradient-21)"/>
                <g id="Group_928" data-name="Group 928" transform="translate(2.079)">
                  <path id="Path_2047" data-name="Path 2047" d="M2120.848,1433.257a.934.934,0,0,0,.33-1.041,1.075,1.075,0,0,0-.615-.559,1.61,1.61,0,0,0-1.735.155c-.246.249-.141.977-.129,1.105.013.145.1.223.161.35.085.176.217.456.43.92a2.34,2.34,0,0,1,.252-.328,2.079,2.079,0,0,1,.413-.346C2120.364,1433.265,2120.567,1433.445,2120.848,1433.257Z" transform="translate(-2118.603 -1431.479)" fill="url(#linear-gradient-22)"/>
                  <path id="Path_2048" data-name="Path 2048" d="M2116.563,1476.873a1.331,1.331,0,0,0,.917.918c.669.182,1.25-1.224.934-1.672a.893.893,0,0,0-.619-.3c-.147-.009-.211.03-.45.011-.221-.017-.271-.059-.349-.03-.1.037-.207.173-.22.638a.382.382,0,0,0-.34-.252.232.232,0,0,0-.115.053C2116.173,1476.37,2116.256,1476.632,2116.563,1476.873Z" transform="translate(-2116.249 -1474.621)" fill="url(#linear-gradient-23)"/>
                  <path id="Path_2049" data-name="Path 2049" d="M2123.852,1472.162c.024.034-.112.116-.174.277a.839.839,0,0,0,.4.951c.191.086.285-.012.623.066a1.619,1.619,0,0,1,.468.189.8.8,0,0,1-.52.777.884.884,0,0,1-.727-.221,1,1,0,0,1-.407-.569c-.067-.328.145-.44.024-.687a1.6,1.6,0,0,1-.225-.428.976.976,0,0,1-.025-.144C2123.52,1472.256,2123.818,1472.113,2123.852,1472.162Z" transform="translate(-2123.107 -1471.082)" fill="url(#linear-gradient-24)"/>
                  <path id="Path_2050" data-name="Path 2050" d="M2167.855,1527.862a.854.854,0,0,1-.406-.073c-.012,0-.026-.006-.03,0-.013.021.109.176.267.186.112.007.224-.061.218-.09C2167.9,1527.873,2167.879,1527.866,2167.855,1527.862Z" transform="translate(-2166.071 -1525.25)" fill="url(#linear-gradient-25)"/>
                </g>
              </g>
              <path id="Path_2051" data-name="Path 2051" d="M1840.293,2019.92l.694-.006s.779-.59,1.123-.535a3.043,3.043,0,0,1,.915.368c.062.052-.2.318-.451.279s-.818.069-.926.283-.548.325-.619.194l-.937.139Z" transform="translate(-1832.409 -2001.939)" fill="#fff"/>
              <path id="Path_2052" data-name="Path 2052" d="M1556.343,1608.8a1.611,1.611,0,0,1-.319,1.187c-.952,1.112-4.05.5-5.851-1.138a6.014,6.014,0,0,1-1.926-4.612c.15-3.106,3.173-6.015,7.56-6.865l1.755,5.778c-2.686-.085-3.854,1.759-3.657,3.192A2.831,2.831,0,0,0,1556.343,1608.8Z" transform="translate(-1548.241 -1591.052)" fill="url(#linear-gradient-26)"/>
              <path id="Path_2053" data-name="Path 2053" d="M1869.121,1816.422c-1.393-.659-1.347-1.885-2.65-2.459-1.859-.818-3.992.783-4.3.3-.322-.506,2.208-1.892,1.924-3.389-.226-1.189-1.966-1.062-2.844-2.716-.833-1.57.066-2.943-.7-3.511-.274-.2-.765-.3-1.713.06a19.428,19.428,0,0,1,.966,6.018c-.009.584-.067,2.215-.044,4.619.015,1.559.053,2.454.571,2.71.54.267,1.174-.026,2.516-.407a7.259,7.259,0,0,1,3.718-.3c2.862.414,3.053.823,3.626.518a1.452,1.452,0,0,0,.694-1.131A3.591,3.591,0,0,1,1869.121,1816.422Z" transform="translate(-1850.661 -1792.684)" opacity="0.3" fill="url(#linear-gradient-27)" style="mix-blend-mode: multiply;isolation: isolate"/>
            </g>
          </g>
        </g>
      </g>
      <g id="Group_935" data-name="Group 935" transform="translate(15.354 19.907)">
        <path id="Path_2055" data-name="Path 2055" d="M2069.074,2083.818a2.418,2.418,0,0,1-2.56,2.4,2.685,2.685,0,0,1-2.6-2.627,2.418,2.418,0,0,1,2.6-2.4A2.687,2.687,0,0,1,2069.074,2083.818Z" transform="translate(-2063.918 -2081.188)" fill="#f4f7fa"/>
        <g id="Group_934" data-name="Group 934" transform="translate(0.972 1.791)">
          <path id="Path_2056" data-name="Path 2056" d="M2101.035,2150.489a.314.314,0,0,0,.167-.03l.108-.031.127-.037.109-.029.055-.01a.471.471,0,0,0,.074-.018.116.116,0,0,0,.046-.028.148.148,0,0,0,.028-.1.871.871,0,0,0-.009-.151,1.106,1.106,0,0,1-.011-.148.137.137,0,0,1,.023-.1.118.118,0,0,1,.035-.022l.038-.015.049-.013.04-.01a1.8,1.8,0,0,1,1.055,0l.039.01.049.013.038.015a.127.127,0,0,1,.035.022.137.137,0,0,1,.023.1,1.148,1.148,0,0,1-.011.148.871.871,0,0,0-.009.151.151.151,0,0,0,.027.1.117.117,0,0,0,.046.028.471.471,0,0,0,.074.018l.055.01.109.029.127.037.108.031a.314.314,0,0,0,.167.03.1.1,0,0,0,.031-.023.593.593,0,0,0,.078-.1.749.749,0,0,0,.061-.115.49.49,0,0,0-.02-.294.708.708,0,0,0-.174-.306.67.67,0,0,0-.072-.063.747.747,0,0,0-.09-.058c-.035-.02-.062-.034-.08-.042l-.1-.045-.086-.04a1.654,1.654,0,0,0-.333-.119,3.063,3.063,0,0,0-1.238,0,1.659,1.659,0,0,0-.333.118l-.087.04-.1.045c-.018.008-.045.023-.08.042a.7.7,0,0,0-.163.121.7.7,0,0,0-.174.306.485.485,0,0,0-.021.294.688.688,0,0,0,.061.115.6.6,0,0,0,.078.1A.1.1,0,0,0,2101.035,2150.489Z" transform="translate(-2100.85 -2149.216)" fill="url(#linear-gradient-28)"/>
        </g>
      </g>
      <g id="Group_936" data-name="Group 936" transform="translate(9.418 19.838)">
        <path id="Path_2057" data-name="Path 2057" d="M1843.616,2081.176a2.418,2.418,0,0,1-2.56,2.4,2.685,2.685,0,0,1-2.6-2.627,2.418,2.418,0,0,1,2.6-2.4A2.686,2.686,0,0,1,1843.616,2081.176Z" transform="translate(-1838.46 -2078.546)" fill="url(#linear-gradient-29)"/>
        <circle id="Ellipse_166" data-name="Ellipse 166" cx="0.378" cy="0.378" r="0.378" transform="translate(0.873 2.515) rotate(-45)" fill="#f4f7fa"/>
        <circle id="Ellipse_167" data-name="Ellipse 167" cx="0.378" cy="0.378" r="0.378" transform="translate(2.172 2.159)" fill="#f4f7fa"/>
        <circle id="Ellipse_168" data-name="Ellipse 168" cx="0.378" cy="0.378" r="0.378" transform="translate(3.314 2.159)" fill="#f4f7fa"/>
      </g>
    </g>
  </g>
  <g id="Group_945" data-name="Group 945" transform="translate(15.393 51.986)">
    <g id="Group_939" data-name="Group 939">
      <path id="Path_2058" data-name="Path 2058" d="M1188.56,2644.9c7.356-2.21,14.94-2.673,22.3-4.883a3.418,3.418,0,0,1,1-.144,12.474,12.474,0,0,1,3.412.473c.61.185,1.007-.392,1.516-.218a.955.955,0,0,1,.523.416.848.848,0,0,1-.354,1.025q-6.452,2.965-13.525,5.859-2.96,1.206-5.869,2.329a5.892,5.892,0,0,1-3.307.966,6.573,6.573,0,0,1-3.533-1.288,4.915,4.915,0,0,1-2.161-2.092C1188.214,2646.54,1187.728,2645.149,1188.56,2644.9Z" transform="translate(-1188.097 -2638.708)" fill="url(#linear-gradient)"/>
      <path id="Path_2059" data-name="Path 2059" d="M1188,2601.942l22.469-6.147a2.68,2.68,0,0,1,.793-.095,12.316,12.316,0,0,1,3.49.6c.967.334,1.678.591,2.147.764a.271.271,0,0,1,.006.526c-6.9,2.653-14.218,5.306-21.094,7.958a2.546,2.546,0,0,1-1.622.059,15.96,15.96,0,0,1-3.649-1.58,13.818,13.818,0,0,1-2.583-1.972C1187.921,2602.017,1187.944,2601.958,1188,2601.942Z" transform="translate(-1187.941 -2595.699)" fill="#fff"/>
    </g>
    <g id="Group_944" data-name="Group 944" transform="translate(3.959 1.161)">
      <path id="Path_2060" data-name="Path 2060" d="M1340.855,2798.047v.266h0a.077.077,0,0,1-.009.043.393.393,0,0,1-.244.146l-.681.2a1.31,1.31,0,0,1-.805-.018l-.713-.354c-.072-.035-.1-.079-.088-.122l0-.248.222.094.055-.017.674-.181a1.332,1.332,0,0,1,.766.018l.649.3.057-.123Z" transform="translate(-1338.311 -2793.644)" fill="#fff"/>
      <path id="Path_2061" data-name="Path 2061" d="M1410.1,2830.95a.094.094,0,0,0,0-.012v-.266h-.08l-.145.087-.707-.327a1.355,1.355,0,0,0-.819-.017l-.682.2-.046.015v-.1l-.215.031,0,.253h0c0,.043.035.084.105.119l.8.4a1.347,1.347,0,0,0,.864.018l.685-.22c.149-.048.23-.114.238-.179h0Z" transform="translate(-1405.589 -2825.342)" fill="#fff"/>
      <path id="Path_2062" data-name="Path 2062" d="M1505.505,2804.141h0l-.006-.23-.13-.079-.118.13-.676-.286a1.39,1.39,0,0,0-.8-.015l-.577.171-.011,0-.016-.113-.207.027V2804h0c-.007.048.03.1.116.134l.793.355a1.38,1.38,0,0,0,.844.016l.578-.186C1505.437,2804.268,1505.509,2804.2,1505.505,2804.141Z" transform="translate(-1498.625 -2799.296)" fill="#fff"/>
      <path id="Path_2063" data-name="Path 2063" d="M1435.468,2774.2v-.221l-.136-.027-.1.1-.593-.25a1.357,1.357,0,0,0-.751-.015l-.541.145.019-.027-.106-.125-.2.058.007.245h0c-.02.048.009.1.095.134l.708.317a1.352,1.352,0,0,0,.789.016l.576-.167C1435.411,2774.337,1435.489,2774.265,1435.468,2774.2Z" transform="translate(-1430.573 -2770.217)" fill="#fff"/>
      <path id="Path_2064" data-name="Path 2064" d="M1486.469,2866.983c-.3-.164-.7-.331-.889-.41a1.391,1.391,0,0,0-.878-.017l-.687.227-.245-.063a.721.721,0,0,0,0,.27.167.167,0,0,0,.032.073.3.3,0,0,0,.092.066l.912.452a1.386,1.386,0,0,0,.929.018l.688-.249c.029-.011.222-.09.22-.2v-.265Z" transform="translate(-1479.927 -2860.524)" fill="#fff"/>
      <path id="Path_2065" data-name="Path 2065" d="M1583.013,2837.179l0-.24-.235.075-.82-.346a1.419,1.419,0,0,0-.857-.014l-.578.191h0v-.129l-.217.051v.249h0c-.005.054.038.108.135.151l.9.4a1.408,1.408,0,0,0,.9.014l.577-.208c.112-.04.175-.092.191-.146h0A.092.092,0,0,0,1583.013,2837.179Z" transform="translate(-1573.935 -2831.411)" fill="#fff"/>
      <path id="Path_2066" data-name="Path 2066" d="M1591.659,2779.644h-.2l-.061.085-.658-.255a1.416,1.416,0,0,0-.786-.013l-.442.131-.035-.088h-.218v.248h0c-.006.047.034.094.127.132l.778.318a1.406,1.406,0,0,0,.825.013l.483-.155c.12-.039.184-.091.19-.143h0Z" transform="translate(-1582.646 -2775.735)" fill="#fff"/>
      <path id="Path_2067" data-name="Path 2067" d="M1669.143,2810.234h0v-.265l-.267.021-.02.047-.757-.293a1.442,1.442,0,0,0-.838-.012l-.42.139-.257-.087v.27h0c0,.049.05.1.148.139l.876.359a1.435,1.435,0,0,0,.881.012l.479-.173C1669.088,2810.347,1669.145,2810.291,1669.143,2810.234Z" transform="translate(-1657.941 -2805.201)" fill="#fff"/>
      <path id="Path_2068" data-name="Path 2068" d="M1521.307,2752.081h-.243l-.033.081-.55-.213a1.387,1.387,0,0,0-.739-.013l-.452.122c0-.036-.011-.063-.027-.063-.042,0-.23-.036-.23-.036l0,.244h0c-.012.044.022.089.109.125l.7.285a1.384,1.384,0,0,0,.774.013l.484-.14c.135-.039.2-.094.2-.148h0Z" transform="translate(-1514.274 -2748.94)" fill="#fff"/>
      <path id="Path_2069" data-name="Path 2069" d="M1598.767,2731.873h-.235l-.047.078-.555-.2a1.415,1.415,0,0,0-.726-.012l-.319.085c0-.019,0-.032-.005-.032-.027,0-.288-.07-.288-.07v.263h0c0,.039.035.079.118.11l.7.264a1.406,1.406,0,0,0,.759.012l.406-.118c.133-.039.194-.093.186-.145h0Z" transform="translate(-1589.79 -2729.278)" fill="#fff"/>
      <path id="Path_2070" data-name="Path 2070" d="M1725.862,2699.947l0-.206-.117-.056-.008.026a3.509,3.509,0,0,0-1.488-.751,8.8,8.8,0,0,0-4.113-.318,1.167,1.167,0,0,0-.34.148l-.013-.052-.15.033v.266h0c-.015.281.442.63,1.33.938a8.672,8.672,0,0,0,4.464.385c.274-.091.412-.213.431-.352h0v0A.258.258,0,0,0,1725.862,2699.947Zm-2.148-.143a3.453,3.453,0,0,1-1.725-.144c-.568-.19-.726-.428-.368-.536a3.476,3.476,0,0,1,1.669.134C1723.877,2699.443,1724.073,2699.689,1723.713,2699.8Z" transform="translate(-1709.594 -2696.968)" fill="#fff"/>
      <path id="Path_2071" data-name="Path 2071" d="M1669.707,2757.852h0v-.267h-.288c-.008,0-.028.047-.042.08l-.583-.21a1.442,1.442,0,0,0-.772-.011l-.275.082-.011-.054-.31-.031v.27h0c0,.042.046.084.135.117l.76.287a1.434,1.434,0,0,0,.808.011l.4-.13C1669.658,2757.957,1669.713,2757.9,1669.707,2757.852Z" transform="translate(-1658.761 -2754.299)" fill="#fff"/>
      <path id="Path_2072" data-name="Path 2072" d="M1746.87,2785.546l-.217.018-.026.063-.764-.274a1.463,1.463,0,0,0-.82-.01l-.311.1c-.018-.018-.036-.033-.043-.033s-.223-.045-.223-.045v.242h0c-.008.053.043.108.156.15l.831.314a1.46,1.46,0,0,0,.86.01l.4-.144c.1-.036.151-.084.155-.132h0Z" transform="translate(-1733.771 -2781.457)" fill="#fff"/>
      <path id="Path_2073" data-name="Path 2073" d="M1869.163,2667.266l-.956.281-.047-.075h-.322l0,.242h0c-.02.058.048.119.2.166l.387.115a1.979,1.979,0,0,0,.964.008l1.15-.351v-.266Z" transform="translate(-1853.893 -2666.542)" fill="#fff"/>
      <path id="Path_2074" data-name="Path 2074" d="M1931.859,2650.181v-.01l0-.244a1.583,1.583,0,0,1-.257,0c-.012-.012-.052.053-.065.074l-.3-.079a2.029,2.029,0,0,0-.914,0l-1.1.056v.266l1.385.38,1.1-.337c.095-.029.144-.065.152-.1Z" transform="translate(-1913.658 -2649.602)" fill="#fff"/>
      <path id="Path_2075" data-name="Path 2075" d="M2021.259,2673.671l0-.253-.368-.089.013.148-.343-.089a2.069,2.069,0,0,0-.96-.005l-1.107.081v.266l1.512.415,1.111-.363c.1-.031.142-.071.144-.111Z" transform="translate(-2000.581 -2672.446)" fill="#fff"/>
      <path id="Path_2076" data-name="Path 2076" d="M1958.2,2692.045l-.75.235.014-.037-.267-.1-.321.158,0,.254h0c.01.055.09.112.239.156l.425.126a2.018,2.018,0,0,0,1.015.01l1.16-.379v-.266Z" transform="translate(-1940.586 -2690.668)" fill="#fff"/>
      <path id="Path_2077" data-name="Path 2077" d="M2150.3,2653.488l-.008-.238-.057-.072-.157.1v.043h0c-.04-.013-.084-.027-.133-.039a2.765,2.765,0,0,0-1.073-.03l-.053-.108h-.207v.249a.063.063,0,0,0,0,.017h0c.006.068.122.14.339.194a2.574,2.574,0,0,0,1.192.006c.1-.034.155-.077.157-.122Z" transform="translate(-2127.277 -2652.792)" fill="#fff"/>
      <g id="Group_943" data-name="Group 943">
        <path id="Path_2078" data-name="Path 2078" d="M1724.225,2688.869a8.8,8.8,0,0,0-4.113-.319c-.9.26-.573.849.827,1.334a8.676,8.676,0,0,0,4.464.386C1726.311,2689.966,1725.737,2689.331,1724.225,2688.869Zm-2.262.7c-.568-.19-.726-.428-.367-.536a3.467,3.467,0,0,1,1.669.134c.586.186.782.432.423.546A3.453,3.453,0,0,1,1721.962,2689.568Z" transform="translate(-1709.568 -2687.142)" fill="url(#linear-gradient-31)"/>
        <path id="Path_2079" data-name="Path 2079" d="M2150.129,2646.038a2.578,2.578,0,0,1-1.192-.006c-.375-.094-.45-.24-.175-.328a2.605,2.605,0,0,1,1.169,0C2150.311,2645.8,2150.4,2645.947,2150.129,2646.038Z" transform="translate(-2127.261 -2645.485)" fill="url(#linear-gradient-32)"/>
        <g id="Group_940" data-name="Group 940" transform="translate(13.943)">
          <path id="Path_2080" data-name="Path 2080" d="M1931.706,2640.192l-1.1.337-1.385-.381,1.1-.322a2.025,2.025,0,0,1,.914,0l.392.1C1931.9,2640,1931.94,2640.121,1931.706,2640.192Z" transform="translate(-1927.602 -2639.776)" fill="url(#linear-gradient-33)"/>
          <path id="Path_2081" data-name="Path 2081" d="M1869.155,2657.174l1.383.384-1.15.351a1.973,1.973,0,0,1-.964-.008l-.387-.114c-.268-.079-.278-.2-.025-.278Z" transform="translate(-1867.828 -2656.716)" fill="url(#linear-gradient-34)"/>
        </g>
        <g id="Group_941" data-name="Group 941" transform="translate(16.288 0.618)">
          <path id="Path_2082" data-name="Path 2082" d="M2021.114,2663.69l-1.111.363-1.512-.415,1.107-.347a2.066,2.066,0,0,1,.96.005l.429.111C2021.292,2663.486,2021.35,2663.613,2021.114,2663.69Z" transform="translate(-2016.869 -2663.237)" fill="url(#linear-gradient-35)"/>
          <path id="Path_2083" data-name="Path 2083" d="M1958.2,2681.952l1.511.42-1.16.379a2.015,2.015,0,0,1-1.015-.01l-.425-.126c-.294-.087-.321-.222-.066-.3Z" transform="translate(-1956.874 -2681.459)" fill="url(#linear-gradient-36)"/>
        </g>
        <g id="Group_942" data-name="Group 942" transform="translate(0 2.155)">
          <path id="Path_2084" data-name="Path 2084" d="M1597.921,2721.66l.7.252c.2.071.175.184-.055.25l-.406.118a1.408,1.408,0,0,1-.759-.012l-.7-.264c-.191-.072-.151-.184.085-.248l.407-.109A1.412,1.412,0,0,1,1597.921,2721.66Z" transform="translate(-1589.781 -2721.607)" fill="url(#linear-gradient-37)"/>
          <path id="Path_2085" data-name="Path 2085" d="M1668.8,2747.362l.76.273c.212.076.2.2-.02.268l-.4.13a1.435,1.435,0,0,1-.807-.011l-.76-.287c-.2-.077-.178-.2.053-.264l.406-.121A1.442,1.442,0,0,1,1668.8,2747.362Z" transform="translate(-1658.76 -2746.626)" fill="url(#linear-gradient-38)"/>
          <path id="Path_2086" data-name="Path 2086" d="M1746.663,2775.846l-.4.144a1.453,1.453,0,0,1-.86-.01l-.831-.313c-.218-.083-.209-.209.017-.283l.4-.133a1.468,1.468,0,0,1,.82.01l.83.3C1746.871,2775.64,1746.88,2775.767,1746.663,2775.846Z" transform="translate(-1733.721 -2773.785)" fill="url(#linear-gradient-39)"/>
          <path id="Path_2087" data-name="Path 2087" d="M1520.481,2741.857l.7.272c.195.076.159.195-.082.264l-.484.14a1.384,1.384,0,0,1-.774-.013l-.7-.286c-.186-.076-.133-.194.115-.261l.483-.13A1.387,1.387,0,0,1,1520.481,2741.857Z" transform="translate(-1514.275 -2741.268)" fill="url(#linear-gradient-40)"/>
          <path id="Path_2088" data-name="Path 2088" d="M1591.468,2769.968l-.483.155a1.408,1.408,0,0,1-.825-.013l-.778-.318c-.2-.082-.161-.208.083-.28l.483-.143a1.418,1.418,0,0,1,.786.013l.781.3C1591.724,2769.765,1591.7,2769.892,1591.468,2769.968Z" transform="translate(-1582.646 -2768.063)" fill="url(#linear-gradient-41)"/>
          <path id="Path_2089" data-name="Path 2089" d="M1668.971,2800.3l-.479.173a1.436,1.436,0,0,1-.881-.012l-.876-.358c-.215-.088-.193-.222.047-.3l.482-.159a1.439,1.439,0,0,1,.838.012l.877.34C1669.2,2800.079,1669.2,2800.214,1668.971,2800.3Z" transform="translate(-1657.942 -2797.53)" fill="url(#linear-gradient-42)"/>
          <path id="Path_2090" data-name="Path 2090" d="M1434.643,2763.712l.713.3c.19.08.141.207-.113.28l-.576.167a1.348,1.348,0,0,1-.789-.015l-.708-.317c-.181-.081-.113-.206.148-.276l.574-.154A1.355,1.355,0,0,1,1434.643,2763.712Z" transform="translate(-1430.572 -2762.544)" fill="url(#linear-gradient-43)"/>
          <path id="Path_2091" data-name="Path 2091" d="M1504.574,2793.584l.8.336c.2.086.171.221-.079.3l-.578.186a1.384,1.384,0,0,1-.844-.015l-.793-.355c-.195-.087-.141-.221.118-.3l.577-.171A1.391,1.391,0,0,1,1504.574,2793.584Z" transform="translate(-1498.625 -2791.624)" fill="url(#linear-gradient-44)"/>
          <path id="Path_2092" data-name="Path 2092" d="M1582.8,2827.281l-.577.208a1.413,1.413,0,0,1-.9-.014l-.9-.4c-.211-.094-.173-.237.082-.322l.578-.191a1.415,1.415,0,0,1,.857.015l.9.379C1583.057,2827.048,1583.041,2827.192,1582.8,2827.281Z" transform="translate(-1573.911 -2823.739)" fill="url(#linear-gradient-45)"/>
          <path id="Path_2093" data-name="Path 2093" d="M1340.027,2787.77l.722.334c.185.086.118.22-.15.3l-.68.2a1.317,1.317,0,0,1-.806-.018l-.713-.354c-.175-.086-.088-.219.188-.293l.675-.181A1.323,1.323,0,0,1,1340.027,2787.77Z" transform="translate(-1338.309 -2785.965)" fill="url(#linear-gradient-46)"/>
          <path id="Path_2094" data-name="Path 2094" d="M1409.173,2820.339l.81.375c.2.093.149.237-.116.322l-.685.22a1.347,1.347,0,0,1-.864-.018l-.8-.4c-.189-.093-.116-.236.158-.317l.681-.2A1.359,1.359,0,0,1,1409.173,2820.339Z" transform="translate(-1405.59 -2817.67)" fill="url(#linear-gradient-47)"/>
          <path id="Path_2095" data-name="Path 2095" d="M1486.893,2857.257l-.688.249a1.382,1.382,0,0,1-.929-.017l-.912-.453c-.205-.1-.149-.255.122-.345l.687-.227a1.386,1.386,0,0,1,.878.017l.919.426C1487.188,2857.007,1487.155,2857.163,1486.893,2857.257Z" transform="translate(-1480.398 -2852.852)" fill="url(#linear-gradient-48)"/>
        </g>
      </g>
    </g>
  </g>
</svg>
