<svg xmlns="http://www.w3.org/2000/svg" xmlns:xlink="http://www.w3.org/1999/xlink" width="404" height="473.241" viewBox="0 0 404 473.241">
  <defs>
    <filter id="Path_3345" x="0" y="42.492" width="404" height="403.276" filterUnits="userSpaceOnUse">
      <feOffset dx="7" dy="-7" input="SourceAlpha"/>
      <feGaussianBlur stdDeviation="7.5" result="blur"/>
      <feFlood flood-opacity="0.161"/>
      <feComposite operator="in" in2="blur"/>
      <feComposite in="SourceGraphic"/>
    </filter>
    <linearGradient id="linear-gradient" x1="0.001" y1="-0.085" x2="1.003" y2="0.973" gradientUnits="objectBoundingBox">
      <stop offset="0" stop-color="#6affd3"/>
      <stop offset="0.147" stop-color="#62f2da"/>
      <stop offset="0.71" stop-color="#48c6f4"/>
      <stop offset="0.996" stop-color="#3fb6ff"/>
    </linearGradient>
    <clipPath id="clip-path">
      <path id="Path_24" data-name="Path 24" d="M837.613,283.85,764.735,297.5a29.285,29.285,0,0,1-10.762,0L681.1,283.85a10.933,10.933,0,0,1-9.2-10.526V170.94a7.7,7.7,0,0,1,7.939-7.445H838.879a7.7,7.7,0,0,1,7.938,7.445V273.324A10.932,10.932,0,0,1,837.613,283.85Z" transform="translate(-671.892 -163.495)" fill="none"/>
    </clipPath>
    <!-- <linearGradient id="linear-gradient-2" y1="0.5" x2="1" y2="0.5" gradientUnits="objectBoundingBox">
      <stop offset="0" stop-color="#f4424f"/>
      <stop offset="0.588" stop-color="#ed296e"/>
      <stop offset="0.996" stop-color="#ea1c7f"/>
    </linearGradient> -->
    <radialGradient id="radial-gradient" cx="0.5" cy="0.5" r="0.5" gradientTransform="matrix(0.226, 0.974, -0.974, 0.226, 0.874, -0.1)" gradientUnits="objectBoundingBox">
      <stop offset="0" stop-color="#656266"/>
      <stop offset="0.081" stop-color="#7f7c80"/>
      <stop offset="0.219" stop-color="#a6a4a6"/>
      <stop offset="0.362" stop-color="#c6c5c6"/>
      <stop offset="0.509" stop-color="#dfdedf"/>
      <stop offset="0.66" stop-color="#f1f0f1"/>
      <stop offset="0.819" stop-color="#fbfbfb"/>
      <stop offset="1" stop-color="#fff"/>
    </radialGradient>
    <filter id="Rectangle_690" x="103.5" y="398.241" width="200" height="75" filterUnits="userSpaceOnUse">
      <feOffset dx="8" dy="5" input="SourceAlpha"/>
      <feGaussianBlur stdDeviation="5" result="blur-2"/>
      <feFlood flood-opacity="0.161"/>
      <feComposite operator="in" in2="blur-2"/>
      <feComposite in="SourceGraphic"/>
    </filter>
  </defs>
  <g transform="matrix(1, 0, 0, 1, 0, 0)" filter="url(#Path_3345)">
    <path id="Path_3345-2" data-name="Path 3345" d="M39.676-3,319.324-1.206C341.237-1.206,359,15.4,359,35.878V318.192c0,20.481-17.763,37.084-39.676,37.084H39.676C17.763,355.276,0,338.673,0,318.192V35.878C0,15.4,17.763-3,39.676-3Z" transform="translate(15.5 74.99)" fill="#fff" opacity="0.6"/>
  </g>
  <ellipse id="Ellipse_238" data-name="Ellipse 238" cx="44.777" cy="44.338" rx="44.777" ry="44.338" transform="translate(148.467 13.922)" fill="#57e0e5" opacity="0.44"/>
  <text id="Experience_our_Messaging_Platform_for_free" data-name="Experience our Messaging
 Platform for free" transform="translate(196.5 210.241)" font-size="16" font-family="SegoeUI, Segoe UI"><tspan x="-92.406" y="0">Experience our Messaging</tspan><tspan x="-60.262" y="18" xml:space="preserve"> Platform for free</tspan></text>
  <text id="Includes_30_SMS_Credits" data-name="Includes 30 SMS Credits" transform="translate(196.5 267.241)" font-size="16" font-family="SegoeUI, Segoe UI"><tspan x="-84.66" y="0">Includes 30 SMS Credits</tspan></text>
  <text id="Includes_5_MMS_Credits_Includes_all_our_Premium_features_Free_Templates_Use-Cases" data-name="Includes 5 MMS Credits
Includes all our Premium features
Free Templates/Use-Cases" transform="translate(74.5 314.241)" font-size="16" font-family="SegoeUI, Segoe UI"><tspan x="0" y="0">Includes 5 MMS Credits</tspan><tspan x="0" y="22">Includes all our Premium features</tspan><tspan x="0" y="44">Free Templates/Use-Cases</tspan></text>
  <g id="Group_3214" data-name="Group 3214" transform="translate(110.33 7.059)">
    <path id="Path_22" data-name="Path 22" d="M834.907,280.726l-71.686,12.995a29.733,29.733,0,0,1-10.586,0l-71.688-12.995c-5.265-.954-9.055-5.15-9.055-10.022V173.218c0-3.915,3.5-7.089,7.81-7.089h156.45c4.313,0,7.81,3.175,7.81,7.089V270.7C843.962,275.577,840.172,279.772,834.907,280.726Z" transform="translate(-670.464 -116.214)" fill="url(#linear-gradient)"/>
    <g id="Group_33" data-name="Group 33" transform="translate(0 66.833)" opacity="0.24" style="mix-blend-mode: screen;isolation: isolate">
      <g id="Group_32" data-name="Group 32" clip-path="url(#clip-path)">
        <ellipse id="Ellipse_23" data-name="Ellipse 23" cx="43.346" cy="40.65" rx="43.346" ry="40.65" transform="translate(64.847 -21.149)" fill="url(#linear-gradient-2)"/>
        <ellipse id="Ellipse_24" data-name="Ellipse 24" cx="32.947" cy="30.898" rx="32.947" ry="30.898" transform="translate(-12.097 -18.046)" fill="url(#linear-gradient-2)"/>
        <ellipse id="Ellipse_25" data-name="Ellipse 25" cx="52.367" cy="49.109" rx="52.367" ry="49.109" transform="translate(-14.768 56.593)" fill="url(#linear-gradient-2)"/>
        <ellipse id="Ellipse_26" data-name="Ellipse 26" cx="24.86" cy="23.314" rx="24.86" ry="23.314" transform="translate(147.41 33.279)" fill="url(#linear-gradient-2)"/>
        <ellipse id="Ellipse_27" data-name="Ellipse 27" cx="45.257" cy="42.442" rx="45.257" ry="42.442" transform="translate(97.926 83.562)" fill="url(#linear-gradient-2)"/>
      </g>
    </g>
    <g id="Group_34" data-name="Group 34" transform="translate(26.488 -7.059)">
      <circle id="Ellipse_28" data-name="Ellipse 28" cx="47.475" cy="47.475" r="47.475" transform="translate(0 92.494) rotate(-76.941)" fill="url(#radial-gradient)" style="mix-blend-mode: multiply;isolation: isolate"/>
      <circle id="Ellipse_29" data-name="Ellipse 29" cx="30.271" cy="30.271" r="30.271" transform="translate(26.704 23.036)" fill="#fff"/>
    </g>
  </g>
  <text id="_14-_Day_Free_Trial" data-name="14- Day
 Free Trial" transform="translate(196.5 123.241)" font-size="20" font-family="SegoeUI, Segoe UI"><tspan x="-34.458" y="0">14- Day</tspan><tspan x="-42.075" y="25" xml:space="preserve"> Free Trial</tspan></text>
  <text id="_" data-name="$" transform="translate(194.029 69.213)" fill="#5fbad6" font-size="44" font-family="SegoeUI, Segoe UI" letter-spacing="0.02em"><tspan x="-11.859" y="0">$</tspan></text>
  <!-- <g transform="matrix(1, 0, 0, 1, 0, 0)" filter="url(#Rectangle_690)">
    <rect id="Rectangle_690-2" data-name="Rectangle 690" width="170" height="45" rx="22.5" transform="translate(110.5 408.24)" fill="#7adde8"/>
  </g> -->
  <path id="Polygon_1" data-name="Polygon 1" d="M6.5,0,13,12H0Z" transform="translate(57.5 303.241)" fill="#7adde8"/>
  <path id="Polygon_2" data-name="Polygon 2" d="M6.5,0,13,12H0Z" transform="translate(57.5 325.241)" fill="#7adde8"/>
  <path id="Polygon_3" data-name="Polygon 3" d="M6.5,0,13,12H0Z" transform="translate(57.5 347.241)" fill="#7adde8"/>
</svg>
